<svg xmlns="http://www.w3.org/2000/svg" width="110" height="68" viewBox="0 0 110 68">
  <defs>
    <style>
      .cls-1 {
        fill: #fff;
        fill-rule: evenodd;
      }
    </style>
  </defs>
  <path id="MENÚ_HAMBURGUESA" data-name="MENÚ HAMBURGUESA" class="cls-1" d="M1165.73,41h98.54a5.734,5.734,0,0,1,0,11.469h-98.54A5.734,5.734,0,0,1,1165.73,41Zm0,56.531h98.54a5.734,5.734,0,0,1,0,11.469h-98.54A5.734,5.734,0,0,1,1165.73,97.531Zm23.08-28.625h49.07a5.653,5.653,0,0,1,5.65,5.656h0a5.653,5.653,0,0,1-5.65,5.656h-49.07a5.653,5.653,0,0,1-5.65-5.656h0A5.653,5.653,0,0,1,1188.81,68.906Z" transform="translate(-1160 -41)"/>
</svg>
