<?xml version="1.0" standalone="no"?>
<!DOCTYPE svg PUBLIC "-//W3C//DTD SVG 1.1//EN" "http://www.w3.org/Graphics/SVG/1.1/DTD/svg11.dtd" >
<svg>
<metadata>
Created by FontForge 20090914 at Mon Feb 17 19:34:37 2020
 By www-data
Copyright (c) 2014 by Kimmy Design. All rights reserved.
</metadata>
<defs>
<font id="LunchBox-Bold" horiz-adv-x="334" >
  <font-face 
    font-family="LunchBox Bold"
    font-weight="400"
    font-stretch="normal"
    units-per-em="1000"
    panose-1="0 0 0 0 0 0 0 0 0 0"
    ascent="700"
    descent="-300"
    x-height="452.999"
    cap-height="696"
    bbox="-405.995 -274.998 1102.99 1004"
    underline-thickness="50"
    underline-position="-50"
    unicode-range="U+000D-U+FB02"
  />
<missing-glyph horiz-adv-x="237" 
 />
    <glyph glyph-name=".notdef" horiz-adv-x="237" 
 />
    <glyph glyph-name="NULL" horiz-adv-x="0" 
 />
    <glyph glyph-name="NULL" horiz-adv-x="0" 
 />
    <glyph glyph-name="nonmarkingreturn" unicode="&#xd;" horiz-adv-x="237" 
 />
    <glyph glyph-name="space" unicode=" " horiz-adv-x="237" 
 />
    <glyph glyph-name="exclam" unicode="!" horiz-adv-x="172" 
d="M98 92c13.333 0 23.499 -5.33398 30.499 -16.001s10.5 -22 10.5 -34c0 -11.333 -5.66699 -21.166 -17 -29.499s-22.666 -12.5 -33.999 -12.5c-10.667 0 -20.167 5.16699 -28.5 15.5s-12.5 20.5 -12.5 30.5c0 12.667 5.5 23.5 16.5 32.5s22.5 13.5 34.5 13.5z
M134.999 185.999c0 -7.33301 -0.501953 -14.4961 -1.50195 -21.4961s-3.5 -13.5 -7.5 -19.5h1c-5.33301 -8 -12.666 -13 -21.999 -15s-18.333 -3 -27 -3h-16.5c-5 0 -9.33301 0.833008 -13 2.5s-6.33398 4.66699 -8.00098 9s-2.5 10.5 -2.5 18.5
c0 9.33301 0.833008 18.666 2.5 27.999s2.5 18.666 2.5 27.999c0 63.333 -2 126.333 -6 189s-6 125.667 -6 189c0 7.33301 0.166992 15.166 0.5 23.499s1.83301 16 4.5 23s6.83398 12.833 12.501 17.5s13.834 7 24.501 7c14 0 28 -2.66699 42 -8
c4.66699 -32 7.33398 -64.333 8.00098 -97s1.66699 -65.334 3 -98.001c1.33301 -46 3.16602 -91.5 5.49902 -136.5s3.5 -90.5 3.5 -136.5z" />
    <glyph glyph-name="quotedbl" unicode="&#x22;" horiz-adv-x="207" 
d="M138 670c6.66699 0 15.499 -0.832031 26.499 -2.49902s19.5 -3.83398 25.5 -6.50098l4 -14c-1.33301 -2.66699 -2 -8.33398 -2 -17.001c0 -5.33301 0.166992 -10.666 0.5 -15.999s0.5 -9.66602 0.5 -12.999c0 -15.333 -2.16699 -25 -6.5 -29s-14.166 -6 -29.499 -6
c-14.667 0 -24.667 2.5 -30 7.5s-8 18.167 -8 39.5c0 12 1 24.167 3 36.5s6.33301 19.166 13 20.499h3zM33.999 610.001l-2.00293 18.501c-0.666992 6.33301 -1 12.5 -1 18.5c0 10 2.33301 15.833 7 17.5s11.334 2.5 20.001 2.5c18 0 30 -1.83301 36 -5.5
s9 -14.834 9 -33.501c0 -5.33301 -0.5 -10.666 -1.5 -15.999s-1.83301 -10.666 -2.5 -15.999c-0.666992 -6 -1 -10.833 -1 -14.5s-0.5 -6.33398 -1.5 -8.00098s-3.16699 -2.83398 -6.5 -3.50098s-8.66602 -1 -15.999 -1c-11.333 0 -19.666 0.833008 -24.999 2.5
s-9 4.16699 -11 7.5s-3 7.5 -3 12.5s-0.333008 11.167 -1 18.5zM189.996 662.002c2.66699 0 4 -1 4 -3l-4 2v1z" />
    <glyph glyph-name="numbersign" unicode="#" horiz-adv-x="548" 
d="M494 363c-15.333 0 -30.6689 0.324219 -46.002 0.991211s-30.333 2 -45 4c-0.666992 -7.33301 -1 -15 -1 -23v-23v-27c4.66699 0 9.16699 0.166992 13.5 0.5s9.16602 0.5 14.499 0.5h10.5c3.66699 0 7.16699 -0.333008 10.5 -1
c0.666992 1.33301 3.33398 2.16602 8.00098 2.49902s7.66699 0.5 9 0.5c13.333 0 21.833 -5 25.5 -15s5.5 -20.667 5.5 -32c0 -6 0.166992 -12.667 0.5 -20s-0.166992 -14.166 -1.5 -20.499s-3.66602 -11.666 -6.99902 -15.999s-8.66602 -6.5 -15.999 -6.5
c-9.33301 0 -18 0.833008 -26 2.5s-16.667 2.5 -26 2.5h-17c0 -11.333 -0.5 -23 -1.5 -35s-1.5 -23.667 -1.5 -35s0.5 -22.5 1.5 -33.5s1.5 -22.167 1.5 -33.5c0 -2.66699 -0.166992 -6.66699 -0.5 -12s-0.833008 -11 -1.5 -17s-1.16699 -11.667 -1.5 -17
s-0.833008 -9.33301 -1.5 -12l-78 4c-8 5.33301 -13.5 12.333 -16.5 21s-4.5 17.667 -4.5 27c0 24.667 1.33301 49.334 4 74.001s4.33398 49.334 5.00098 74.001c-8 0.666992 -16.333 1.16699 -25 1.5s-17 0.5 -25 0.5c-7.33301 0 -14.833 -0.333008 -22.5 -1
s-15.167 -1 -22.5 -1c0 -28.667 1 -57.167 3 -85.5s3 -56.833 3 -85.5c0 -10 -2.83301 -16.667 -8.5 -20s-13.5 -5 -23.5 -5c-7.33301 0 -15.833 0.5 -25.5 1.5s-19.834 2.16699 -30.501 3.5c-2 2.66699 -3.66699 9.33398 -5 20.001s-2.16602 22.834 -2.49902 36.501
l-1 41.5c-0.333008 14 -0.5 26 -0.5 36v44v13c-7.33301 0 -14.333 -0.333008 -21 -1s-13.667 -1 -21 -1c-12.667 0 -22.334 2 -29.001 6s-11.334 9.33301 -14.001 16s-4.16699 14 -4.5 22s-0.5 16 -0.5 24v12c8.66699 15.333 22.334 23 41.001 23
c7.33301 0 15.333 -0.666992 24 -2s16.667 -2.66602 24 -3.99902l1 90c-10.667 -1.33301 -21.834 -2.33301 -33.501 -3s-23.167 -1 -34.5 -1c-10.667 0 -17.5 4.16699 -20.5 12.5s-4.5 17.5 -4.5 27.5c0 18 2.5 30.833 7.5 38.5s11.833 12.5 20.5 14.5
s18.834 2.83301 30.501 2.5s24.5 0.5 38.5 2.5c1.33301 11.333 2 22.833 2 34.5v35.5c0 18.667 -0.166992 36.834 -0.5 54.501s-1.16602 35.834 -2.49902 54.501c11.333 5.33301 24.5 8.5 39.5 9.5s28.833 1.5 41.5 1.5c6 0 11.5 -1 16.5 -3s9.16699 -5.66699 12.5 -11
c0 -30 -0.666992 -59.5 -2 -88.5s-3.33301 -58.5 -6 -88.5h79c0 16.667 -0.833008 33.5 -2.5 50.5s-2.5 34.167 -2.5 51.5c0 2.66699 0.166992 5.33398 0.5 8.00098s0.5 5.66699 0.5 9c-0.666992 2 -1 5.5 -1 10.5v10.5c0 7.33301 1 14.666 3 21.999s6.66699 12.333 14 15
h-1c5.33301 2.66699 11.166 4.33398 17.499 5.00098s12.833 1 19.5 1h21.5c7 0 13 -0.833008 18 -2.5s9 -4.33398 12 -8.00098s4.5 -9.16699 4.5 -16.5c0 -15.333 -0.833008 -30.833 -2.5 -46.5s-2.5 -31.167 -2.5 -46.5v-68c9.33301 0 19 -0.333008 29 -1s19.667 -1 29 -1
s19 1.66699 29 5c4 -9.33301 6.5 -19.666 7.5 -30.999s1.5 -22.333 1.5 -33c0 -8 -0.333008 -16.333 -1 -25s-3.66699 -16 -9 -22zM252.997 289.991l58.999 0.000976562v89l-40 4c-13.333 1.33301 -26.666 2 -39.999 2c-1.33301 0 -2.5 -0.166992 -3.5 -0.5
s-2.16699 -0.5 -3.5 -0.5c-0.666992 0 -1.16699 0.166992 -1.5 0.5s-0.833008 0.5 -1.5 0.5c-2.66699 -30.667 -4.66699 -62.334 -6 -95.001h37z" />
    <glyph glyph-name="dollar" unicode="$" horiz-adv-x="397" 
d="M378 535c0 -15.333 -3.8252 -27.3301 -11.4922 -35.9971s-19.5 -13 -35.5 -13c-19.333 0 -32.5 2.5 -39.5 7.5s-10.5 17.167 -10.5 36.5c0 6 -2 12.333 -6 19s-9 10.667 -15 12c0.666992 -6 1 -11.833 1 -17.5v-17.5c0 -24 -0.666992 -48 -2 -72s-2 -48 -2 -72v-16
c0 -2.66699 0.166992 -5.16699 0.5 -7.5s0.5 -4.83301 0.5 -7.5s-0.166992 -5.16699 -0.5 -7.5s-0.5 -4.83301 -0.5 -7.5l40 -45c14 -15.333 26.833 -31.5 38.5 -48.5s21.167 -35 28.5 -54s11 -38.833 11 -59.5c0 -15.333 -2.83301 -30 -8.5 -44
s-13.334 -26.833 -23.001 -38.5s-20.834 -21.5 -33.501 -29.5s-26.334 -13.333 -41.001 -16v-32c0 -33.333 -16 -50 -48 -50c-13.333 0 -24.833 1.16699 -34.5 3.5s-14.5 11.5 -14.5 27.5c0 14 1 27 3 39c-14 0 -29.167 4.66699 -45.5 14s-31.833 21 -46.5 35
s-26.834 29.167 -36.501 45.5s-14.5 31.5 -14.5 45.5c0 16 5.16699 25.667 15.5 29s21.5 5 33.5 5c18.667 0 31.667 -2.66699 39 -8s12.833 -12 16.5 -20l12 -25c4.33301 -8.66699 13.166 -16.334 26.499 -23.001c1.33301 29.333 2 58.333 2 87v87
c-5.33301 6.66699 -11.333 13 -18 19s-13.334 11.667 -20.001 17h1c-12.667 12 -25 26.167 -37 42.5s-22.667 33.666 -32 51.999s-16.833 37 -22.5 56s-8.5 37.5 -8.5 55.5c0 18.667 4.16699 36.5 12.5 53.5s18.833 32 31.5 45s26.5 24 41.5 33s29.167 15.167 42.5 18.5
l-1 62c3.33301 0 8.66602 0.166992 15.999 0.5l22 1c7.33301 0.333008 14.333 1 21 2s11.334 2.16699 14.001 3.5c4 -6.66699 7.16699 -16.334 9.5 -29.001s4.16602 -23 5.49902 -31c3.33301 -1.33301 6.66602 -2.33301 9.99902 -3s6.66602 -1.66699 9.99902 -3
c12.667 -4 25.334 -10 38.001 -18s23.667 -17.167 33 -27.5s17 -22 23 -35s9 -26.5 9 -40.5zM143.008 448.003l1 -1.99902l17 -31.5l12 -22.5v10c0 21.333 0.333008 42.666 1 63.999s1 42.666 1 63.999c0 4.66699 -0.166992 9.16699 -0.5 13.5s-0.833008 8.5 -1.5 12.5
c-12 -4.66699 -22 -12 -30 -22s-12 -21.667 -12 -35c0 -9.33301 1.33301 -18.166 4 -26.499s5.66699 -16.5 9 -24.5h-1zM264.008 226.004c0 -20 -0.833008 -40.667 -2.5 -62s-2.5 -41.666 -2.5 -60.999v-16c10 5.33301 17.667 10.666 23 15.999s8 14.333 8 27
c0 15.333 -2.5 31.833 -7.5 49.5s-11.167 33.167 -18.5 46.5z" />
    <glyph glyph-name="percent" unicode="%" horiz-adv-x="716" 
d="M36 483c0 20.667 2.5 41.333 7.5 62s12.833 39.167 23.5 55.5s24.667 29.5 42 39.5s38.666 15 63.999 15c24 0 44.833 -7.83301 62.5 -23.5s32.334 -34.834 44.001 -57.501s20.334 -46.667 26.001 -72s8.5 -47.333 8.5 -66c0 -20 -2.33301 -39.167 -7 -57.5
s-12 -34.666 -22 -48.999s-22.833 -25.833 -38.5 -34.5s-34.834 -13 -57.501 -13c-28 0 -51.833 5.83301 -71.5 17.5s-35.5 27 -47.5 46s-20.667 40.5 -26 64.5s-8 48.333 -8 73zM685 218.999c0 -21.333 -1.6709 -43.832 -5.00391 -67.499s-9.83301 -45.834 -19.5 -66.501
s-23 -37.667 -40 -51s-38.833 -20 -65.5 -20c-26 0 -47.667 7 -65 21s-31.166 31.5 -41.499 52.5s-17.666 43.667 -21.999 68s-6.5 47.166 -6.5 68.499c0 18.667 1.83301 37.834 5.5 57.501s9.83398 37.667 18.501 54s20.334 29.833 35.001 40.5s33.334 16 56.001 16
c12.667 0 25.167 -1.5 37.5 -4.5s24.166 -7.16699 35.499 -12.5l1 -1c30.667 -18.667 51 -40.5 61 -65.5s15 -54.833 15 -89.5zM254.996 -17c-3.33301 0 -8.33203 0.333008 -14.999 1s-13.5 2 -20.5 4s-13 4.5 -18 7.5s-7.5 6.83301 -7.5 11.5
c0 15.333 3.33301 30.333 10 45s12.667 29 18 43c22 55.333 43 112 63 170l59 172c2.66699 8.66699 7.33398 22 14.001 40l20.5 56c7 19.333 13.167 37.833 18.5 55.5s8.66602 30.5 9.99902 38.5c0.666992 6.66699 1.5 13.167 2.5 19.5s3.16699 12 6.5 17
s8.33301 8.83301 15 11.5s15.667 4 27 4s22.5 -0.666992 33.5 -2s20.833 -6 29.5 -14c-3.33301 -18 -8.33301 -36.167 -15 -54.5s-12.667 -36.166 -18 -53.499c-13.333 -40 -26 -80 -38 -120s-24.667 -80 -38 -120l-99 -308c-2 -5.33301 -5.33301 -9.5 -10 -12.5
s-9.83398 -5.33301 -15.501 -7s-11.5 -2.83398 -17.5 -3.50098s-11 -1 -15 -1zM172.997 374c10 0 18.335 3.00098 25.002 9.00098s12 13.5 16 22.5s6.66699 18.333 8 28s2 18.5 2 26.5c0 9.33301 -1 19.666 -3 30.999s-5.33301 22 -10 32s-10.834 18.5 -18.501 25.5
s-17.167 10.5 -28.5 10.5c-7.33301 0 -13.833 -2.5 -19.5 -7.5s-10.5 -11.667 -14.5 -20s-7 -18 -9 -29s-3 -22.167 -3 -33.5c0 -12 1.16699 -23.667 3.5 -35s5.66602 -21.5 9.99902 -30.5s10 -16.167 17 -21.5s15.167 -8 24.5 -8zM550.999 303.001
c-10 0 -18 -3.83496 -24 -11.502s-10.5 -17 -13.5 -28s-5 -22.167 -6 -33.5s-1.5 -20.666 -1.5 -27.999c0 -8 0.5 -17.667 1.5 -29s3.16699 -22.333 6.5 -33s8.33301 -19.667 15 -27s15.667 -11 27 -11c8 0 14.5 4.66699 19.5 14s9 20 12 32s5 24.167 6 36.5
s1.5 21.5 1.5 27.5c0 6.66699 -0.5 15.334 -1.5 26.001s-3 20.667 -6 30s-7.33301 17.5 -13 24.5s-13.5 10.5 -23.5 10.5z" />
    <glyph glyph-name="ampersand" unicode="&#x26;" horiz-adv-x="521" 
d="M33 178c0 20 2.49805 39.834 7.49805 59.501s11.833 39.167 20.5 58.5s18.334 37.833 29.001 55.5s21.667 34.5 33 50.5c-4 12.667 -9 24.5 -15 35.5l-17.5 33c-5.66699 11 -10.334 22.5 -14.001 34.5s-5.5 25 -5.5 39c0 18 3.5 35 10.5 51s16.5 30 28.5 42
s26 21.5 42 28.5s33 10.5 51 10.5c34 0 60.167 -11.333 78.5 -34s27.5 -50.334 27.5 -83.001c0 -13.333 -1.66699 -27.5 -5 -42.5s-7.83301 -29.667 -13.5 -44s-12.5 -27.833 -20.5 -40.5s-17 -24 -27 -34l42 -75.5l43 -75.5c0.666992 4 1 8 1 12v12
c0 20.667 -1.16699 42.167 -3.5 64.5s-6.16602 43.166 -11.499 62.499l26 2c8.66699 0.666992 17.334 1 26.001 1c7.33301 0 15 -0.833008 23 -2.5s14.333 -5.83398 19 -12.501c3.33301 -4.66699 6 -12.334 8 -23.001s3.66699 -22.167 5 -34.5s2.33301 -24.166 3 -35.499
s1 -19.666 1 -24.999c0 -23.333 -1.33301 -47.833 -4 -73.5s-8.66699 -49.167 -18 -70.5c9.33301 -15.333 18.5 -31.666 27.5 -48.999s19.167 -32.666 30.5 -45.999v2c1.33301 -1.33301 3.16602 -3.5 5.49902 -6.5s4.5 -6.33301 6.5 -10l5.5 -10
c1.66699 -3 2.5 -5.5 2.5 -7.5c0 -6.66699 -3.66699 -12 -11 -16s-13.333 -7 -18 -9l1 1c-5.33301 -2.66699 -11.666 -5.33398 -18.999 -8.00098s-13.666 -4 -18.999 -4c-6.66699 0 -14 3.16699 -22 9.5s-15.667 13.833 -23 22.5s-14 17.667 -20 27s-10.333 17 -13 23
l-53 -29.5c-16.667 -9 -36.334 -13.5 -59.001 -13.5c-24 -0 -47.5 3.83301 -70.5 11.5s-43.5 19 -61.5 34s-32.5 33.667 -43.5 56s-16.5 47.833 -16.5 76.5zM195.998 583.001c-10.667 0 -18.5 -5.50098 -23.5 -16.501s-7.5 -20.833 -7.5 -29.5c0 -11.333 2 -22.333 6 -33
s10.667 -19 20 -25c8 8.66699 15.833 20.334 23.5 35.001s11.5 28 11.5 40c0 8 -3 14.833 -9 20.5s-13 8.5 -21 8.5zM207.998 90c13.333 0 27.832 3.66992 43.499 11.0029s27.5 15.666 35.5 24.999l-19.5 41l-29 59.5c-10.333 20.333 -20.333 39 -30 56
s-17.167 27.167 -22.5 30.5c-5.33301 -10 -10.833 -21.667 -16.5 -35s-11.167 -27 -16.5 -41s-9.66602 -27.833 -12.999 -41.5s-5 -25.834 -5 -36.501c0 -20.667 7.33301 -37.334 22 -50.001s31.667 -19 51 -19z" />
    <glyph glyph-name="quotesingle" unicode="'" horiz-adv-x="14" 
d="M-31 549c-3.33301 6.66699 -5.33398 14.1689 -6.00098 22.502s-1.16699 16.666 -1.5 24.999s-0.833008 16.666 -1.5 24.999s-2.66699 15.833 -6 22.5c3.33301 13.333 10.833 21.166 22.5 23.499s22.834 3.5 33.501 3.5c9.33301 0 18.666 -2.66699 27.999 -8
c1.33301 -17.333 2.33301 -33.666 3 -48.999s2.33398 -31.333 5.00098 -48v3v-1c0 -3.33301 -2.66699 -6.33301 -8 -9s-12 -4.66699 -20 -6s-16.5 -2.33301 -25.5 -3s-16.833 -1 -23.5 -1z" />
    <glyph glyph-name="parenleft" unicode="(" horiz-adv-x="251" 
d="M132 360c0 -16 1.16797 -37.501 3.50098 -64.501s5.83301 -54.667 10.5 -83s10.167 -55.166 16.5 -80.499s13.166 -45 20.499 -59c5.33301 -10 12.166 -22 20.499 -36s12.5 -26.333 12.5 -37c0 -6.66699 -1.33301 -11.667 -4 -15v1c-4 -8 -11.5 -12.833 -22.5 -14.5
s-20.167 -2.5 -27.5 -2.5h-23c-7.33301 0 -13.833 2.83301 -19.5 8.5s-10.5 12.334 -14.5 20.001s-7.33301 15.5 -10 23.5s-5 14.667 -7 20l-5 13c-20 46 -33.667 93.5 -41 142.5s-11 98.5 -11 148.5c0 51.333 3.83301 99.5 11.5 144.5s18.167 92.5 31.5 142.5
c2.66699 8.66699 4.5 18.667 5.5 30s2.83301 21.666 5.5 30.999s7.33398 17.333 14.001 24s16.667 10 30 10c12 0 21.333 -1 28 -3s11.5 -5 14.5 -9s4.83301 -9.16699 5.5 -15.5s1 -13.833 1 -22.5c0 -12.667 -1.33301 -25.667 -4 -39s-5.66699 -27 -9 -41l-10.5 -42
c-3.66699 -14 -6.5 -27.333 -8.5 -40c-4 -25.333 -7.33301 -51 -10 -77s-4 -52 -4 -78z" />
    <glyph glyph-name="parenright" unicode=")" horiz-adv-x="247" 
d="M132 720c6 -16.667 12.5039 -32.8311 19.5039 -48.498l21.5 -47.5c6.66699 -16 12.5 -35.833 17.5 -59.5s9 -48.334 12 -74.001s5.16699 -50.667 6.5 -75s2 -45.5 2 -63.5c0 -51.333 -4 -102.666 -12 -153.999s-22 -101 -42 -149l-1 -1c-2.66699 -8 -5.5 -16 -8.5 -24
s-6.83301 -15.167 -11.5 -21.5s-10.334 -11.333 -17.001 -15s-15 -5.5 -25 -5.5c-8 0 -15.333 0.166992 -22 0.5s-12.167 1.66602 -16.5 3.99902s-7.83301 6.16602 -10.5 11.499s-4 13.333 -4 24c17.333 56.667 33.166 113.334 47.499 170.001s21.5 115 21.5 175
c0 12 -1.66699 30.333 -5 55s-7.33301 50.5 -12 77.5s-9.83398 52.5 -15.501 76.5s-10.834 41 -15.501 51l-20 42.5c-7.33301 15 -11 30.167 -11 45.5v4c11.333 3.33301 22.833 5.66602 34.5 6.99902s23.5 2 35.5 2h19z" />
    <glyph glyph-name="asterisk" unicode="*" horiz-adv-x="311" 
d="M109 563l-11.0039 -10.498c-4 -3.66699 -8.33301 -5.5 -13 -5.5c-4 0 -8 2.16699 -12 6.5s-8 9.33301 -12 15l-11.5 17c-3.66699 5.66699 -6.83398 9.83398 -9.50098 12.501c-5.33301 4.66699 -8 11.334 -8 20.001c0 8 3 14.333 9 19s12 8.66699 18 12
c-6 3.33301 -11.167 6.66602 -15.5 9.99902s-6.5 8.66602 -6.5 15.999c0 4 0.666992 9.5 2 16.5s3.5 14 6.5 21s6.5 13 10.5 18s8.66699 7.5 14 7.5c3.33301 0 7.33301 -0.833008 12 -2.5l13 -4.5v17c0 8 2.33301 14 7 18s10.334 6.66699 17.001 8s13.834 2 21.501 2
s14.5 0.333008 20.5 1h-2c3.33301 0.666992 8 1 14 1c7.33301 0 12.666 -3 15.999 -9s5 -12.333 5 -19c0 -1.33301 -0.166992 -2.83301 -0.5 -4.5s-0.5 -3.16699 -0.5 -4.5v2c-0.666992 -2 -1 -5.33301 -1 -10c6 3.33301 10.333 6.83301 13 10.5s8.33398 5.5 17.001 5.5
c4.66699 0 9.33398 -1.5 14.001 -4.5s9.16699 -6.66699 13.5 -11s8.16602 -9 11.499 -14s6 -9.16699 8 -12.5v1l4 -8c1.33301 -2.66699 2 -5.66699 2 -9c0 -6 -2.5 -11.5 -7.5 -16.5s-9.5 -9.16699 -13.5 -12.5h1c-2 -0.666992 -3.83301 -1.5 -5.5 -2.5
s-3.16699 -2.16699 -4.5 -3.5c5.33301 0 11.333 -2.83301 18 -8.5s10 -11.5 10 -17.5c0 -3.33301 -0.666992 -6.33301 -2 -9s-2.66602 -5.66699 -3.99902 -9l1 1c-1.33301 -3.33301 -3.16602 -7.5 -5.49902 -12.5s-4.83301 -9.66699 -7.5 -14s-5.83398 -8 -9.50098 -11
s-7.5 -4.5 -11.5 -4.5c-4.66699 0 -9.66699 1.33301 -15 4l1 -1c-9.33301 3.33301 -16.666 7.33301 -21.999 12c-1.33301 -6.66699 -1.83301 -12.5 -1.5 -17.5s-0.166992 -9.33301 -1.5 -13s-3.83301 -6.83398 -7.5 -9.50098s-9.83398 -5 -18.501 -7h1l-19.5 -2
c-6.33301 -0.666992 -13.166 -1 -20.499 -1s-12.666 2.66699 -15.999 8s-5 11.666 -5 18.999z" />
    <glyph glyph-name="plus" unicode="+" horiz-adv-x="359" 
d="M32 312c0 9.33301 1.83789 16.834 5.50488 22.501s8.5 10 14.5 13s12.667 4.83301 20 5.5s15 1 23 1h20h12c-1.33301 8 -2.16602 16.333 -2.49902 25s-0.5 17 -0.5 25c0 16 3.16699 28.833 9.5 38.5s18.5 14.5 36.5 14.5c12.667 0 22.167 -2.66699 28.5 -8
s10.666 -12.333 12.999 -21s3.5 -18 3.5 -28v-28v-12c0 -4 -0.333008 -7.66699 -1 -11c0 2 2.66699 3.66699 8 5s11.666 2.16602 18.999 2.49902s15.333 0.666016 24 0.999023s16.667 0.5 24 0.5h22c3.33301 -7.33301 5.66602 -16 6.99902 -26s2 -19 2 -27
c0 -14.667 -3.33301 -25.5 -10 -32.5s-14.834 -11.667 -24.501 -14s-20.334 -3.16602 -32.001 -2.49902s-22.5 1 -32.5 1c0.666992 -11.333 1 -23.333 1 -36v-36c0 -8.66699 -1.66699 -15.334 -5 -20.001s-8 -8 -14 -10s-13 -3.16699 -21 -3.5s-16.667 -0.5 -26 -0.5
c-10.667 0 -17.334 6.33301 -20.001 19s-4 26 -4 40c0 8 0.166992 15.667 0.5 23s0.5 13 0.5 17v6h-41c-9.33301 0 -18.833 -0.166992 -28.5 -0.5s-19.167 -1.16602 -28.5 -2.49902c0 10 -0.5 19.833 -1.5 29.5s-1.5 19.5 -1.5 29.5z" />
    <glyph glyph-name="comma" unicode="," horiz-adv-x="320" 
d="M89 -53c4.66699 0 10.168 1.1709 16.501 3.50391s12.166 5.5 17.499 9.5s10 8.66699 14 14s5.66699 11 5 17c-13.333 -4.66699 -25 -6 -35 -4s-18.5 5.83301 -25.5 11.5s-12.333 13 -16 22s-5.5 18.167 -5.5 27.5c0 13.333 2.16699 24.5 6.5 33.5s10.333 16.167 18 21.5
s16.334 9.33301 26.001 12s19.834 4 30.501 4c8.66699 0 17.5 -1.83301 26.5 -5.5s17.167 -9.33398 24.5 -17.001s13.333 -17.667 18 -30s7 -26.833 7 -43.5c0 -14 -2.66699 -28.5 -8 -43.5s-13 -28.833 -23 -41.5s-21.833 -23.334 -35.5 -32.001
s-28.834 -13.667 -45.501 -15c-0.666992 1.33301 -1.83398 4.83301 -3.50098 10.5l-5.5 18c-2 6.33301 -3.66699 12.166 -5 17.499s-2 8.66602 -2 9.99902z" />
    <glyph glyph-name="hyphen" unicode="-" horiz-adv-x="359" 
d="M295 334l2.00098 -0.00195312c10 0 16.333 -5.83301 19 -17.5s4 -23.167 4 -34.5c0 -6 0.166992 -12 0.5 -18s0.166016 -11.5 -0.500977 -16.5s-2.33398 -9.16699 -5.00098 -12.5s-6.66699 -5 -12 -5h-10c-3.33301 0 -6.66602 0.333008 -9.99902 1
c-0.666992 0.666992 -5.33398 1.33398 -14.001 2.00098s-19.334 1.33398 -32.001 2.00098s-26.667 1.33398 -42 2.00098l-44.5 2c-14.333 0.666992 -27.166 1.16699 -38.499 1.5s-19.333 0.5 -24 0.5c-5.33301 0 -11 -0.5 -17 -1.5s-11 -1.5 -15 -1.5
c-1.33301 0 -4.66602 0.666992 -9.99902 2h3c-6.66699 3.33301 -11.167 6.5 -13.5 9.5s-3.5 8.5 -3.5 16.5v49c0 7.33301 1.5 13.166 4.5 17.499s8.16699 6.5 15.5 6.5c9.33301 0 18.333 -0.333008 27 -1s17.667 -1 27 -1c6.66699 0 21 0.166992 43 0.5s44.667 0.5 68 0.5
c19.333 0 36.5 -0.333008 51.5 -1s24.5 -1.66699 28.5 -3h-2z" />
    <glyph glyph-name="period" unicode="." horiz-adv-x="300" 
d="M154 135c18.667 2.66699 34.002 0.166016 46.002 -7.50098s20.667 -17.667 26 -30s7.66602 -25.666 6.99902 -39.999s-4.5 -27.166 -11.5 -38.499s-17 -19.833 -30 -25.5s-28.833 -5.83398 -47.5 -0.500977c-19.333 6 -33.333 16.333 -42 31s-12.5 30 -11.5 46
s7 30.5 18 43.5s26.5 20.5 46.5 22.5c-0.666992 -0.666992 -3.33398 -1 -8.00098 -1h7v0z" />
    <glyph glyph-name="slash" unicode="/" horiz-adv-x="401" 
d="M357 652c0 -4.66699 -0.500977 -8.66602 -1.50098 -11.999s-2.16699 -7 -3.5 -11h1c-2.66699 -8 -8 -23.167 -16 -45.5l-29 -79.5l-38 -101.5l-42.5 -111.5l-42 -108.5l-37 -93l-27 -65.5c-7 -16.667 -11.167 -25.334 -12.5 -26.001c-18 0.666992 -32 1.16699 -42 1.5
s-17.5 0.833008 -22.5 1.5s-8.66699 1.5 -11 2.5s-4.5 2.16699 -6.5 3.5c0 4 3.33301 16 10 36l25.5 75l35.5 101.5l41.5 115l43 115.5l40 104l32 80c9 22 15.167 36.667 18.5 44c6.66699 3.33301 15.667 5 27 5c4.66699 0 10.334 -0.333008 17.001 -1s13 -2.16699 19 -4.5
s11 -5.5 15 -9.5s6 -9.33301 6 -16z" />
    <glyph glyph-name="zero" unicode="0" horiz-adv-x="430" 
d="M390 226c0 -26 -1.66602 -52.3301 -4.99902 -78.9971s-11 -50.834 -23 -72.501s-29.5 -39.334 -52.5 -53.001s-54.167 -20.5 -93.5 -20.5c-16 0 -32 2 -48 6s-31.167 10.167 -45.5 18.5s-27 18.5 -38 30.5s-18.833 26 -23.5 42c-5.33301 16.667 -8.5 33.667 -9.5 51
s-2.5 34.666 -4.5 51.999c-10 84 -15 168.667 -15 254c0 35.333 2 66.166 6 92.499s12.5 48 25.5 65s31.167 29.667 54.5 38s54.666 12.5 93.999 12.5c8 0 14.833 -0.333008 20.5 -1s11 -1.66699 16 -3s10 -3.33301 15 -6s10.833 -6 17.5 -10c24 -11.333 42.667 -27 56 -47
s23 -42.167 29 -66.5s9.66699 -49.666 11 -75.999s2.33301 -50.833 3 -73.5c1.33301 -25.333 3.33301 -51 6 -77s4 -51.667 4 -77zM133.001 419.003c0 -6.66699 0.165039 -17.999 0.498047 -33.999s1 -34.167 2 -54.5s2 -41.833 3 -64.5s2.16699 -43.667 3.5 -63l3.5 -50
c1 -14 2.16699 -22.667 3.5 -26c13.333 -9.33301 25.333 -16.5 36 -21.5s24.667 -7.5 42 -7.5c12 0 21.833 2.16699 29.5 6.5s13.667 10 18 17s7.33301 15.167 9 24.5s2.5 19 2.5 29c0 22 -0.166992 44 -0.5 66s-1.83301 44 -4.5 66
c-3.33301 32.667 -4.66602 65.167 -3.99902 97.5s-1.66602 64.5 -6.99902 96.5v-1c-2 12 -4 22 -6 30s-7.66699 16 -17 24h-10c-14.667 0 -29 -0.833008 -43 -2.5s-27.667 -4.83398 -41 -9.50098c-5.33301 -6 -9.33301 -14.333 -12 -25s-4.66699 -22 -6 -34
s-2 -23.667 -2 -35v-29z" />
    <glyph glyph-name="one" unicode="1" horiz-adv-x="210" 
d="M171 370c0 -60 0.499023 -119.664 1.49902 -178.997s1.5 -119 1.5 -179c-15.333 -6.66699 -30 -10 -44 -10c-14.667 0 -27.667 2.66699 -39 8c-1.33301 23.333 -2.16602 53 -2.49902 89s-0.5 74.667 -0.5 116c0 32 0.166992 64.333 0.5 97s0.833008 63.5 1.5 92.5
s1.66699 55.167 3 78.5s2.66602 42 3.99902 56c-1.33301 0 -4.16602 -3.33301 -8.49902 -10s-8.83301 -14 -13.5 -22l-13 -22c-4 -6.66699 -6.66699 -9.66699 -8 -9l1 -1c-8.66699 3.33301 -16.5 7.83301 -23.5 13.5s-14.167 11.167 -21.5 16.5v4
c0 7.33301 3.5 17.666 10.5 30.999s15 27.166 24 41.499l26 41.5c8.33301 13.333 14.166 24 17.499 32c4 3.33301 9 5.66602 15 6.99902s11.667 2 17 2s11.333 -0.166992 18 -0.5s12.834 -1.5 18.501 -3.5s10.5 -5.16699 14.5 -9.5s6 -10.5 6 -18.5
c0 -44 -1 -87.667 -3 -131s-3 -87 -3 -131z" />
    <glyph glyph-name="two" unicode="2" horiz-adv-x="387" 
d="M48 64c0 32 4.8252 61.9961 14.4922 89.9961s21.834 54.333 36.501 79s30.334 47.834 47.001 69.501l47 62.5c14.667 20 26.834 39.167 36.501 57.5s14.5 36.833 14.5 55.5c0 8.66699 -1.16699 18.334 -3.5 29.001s-6 20.667 -11 30s-11.333 17.166 -19 23.499
s-16.834 9.5 -27.501 9.5c-6 0 -11.5 -1.66699 -16.5 -5s-9.33301 -7.5 -13 -12.5s-6.83398 -10.5 -9.50098 -16.5s-4.66699 -11.333 -6 -16c-2 -8 -3.16699 -15.5 -3.5 -22.5s-1.83301 -13 -4.5 -18s-7.5 -8.83301 -14.5 -11.5s-18.167 -4 -33.5 -4
c-19.333 0 -32.5 2.33301 -39.5 7s-10.5 17.334 -10.5 38.001c0 22 4 42.333 12 61s19 34.667 33 48s30.333 23.833 49 31.5s38.667 11.5 60 11.5c22.667 0 43.834 -4.5 63.501 -13.5s36.5 -21 50.5 -36s25 -32.667 33 -53s12 -41.5 12 -63.5c0 -23.333 -3 -46 -9 -68
s-14.167 -43.333 -24.5 -64s-22.166 -40.667 -35.499 -60s-27 -37.333 -41 -54v1l-35 -43.5c-11.333 -14.333 -21.666 -30.166 -30.999 -47.499h1c-4.66699 -8 -9.33398 -17 -14.001 -27s-7.66699 -19.667 -9 -29c8 -1.33301 15.833 -2.33301 23.5 -3s15.5 -1 23.5 -1
c15.333 0 30.833 0.833008 46.5 2.5s31.167 2.5 46.5 2.5c18.667 0 33 -2.33301 43 -7s15 -18.667 15 -42v-26c0 -6.66699 -7.16699 -12.167 -21.5 -16.5s-30.833 -7.83301 -49.5 -10.5s-37.167 -4.5 -55.5 -5.5s-31.833 -1.5 -40.5 -1.5
c-5.33301 0 -14.666 0.166992 -27.999 0.5s-27.166 1.33301 -41.499 3s-27.166 4.33398 -38.499 8.00098s-17.666 9.16699 -18.999 16.5c-1.33301 6.66699 -2.16602 13.5 -2.49902 20.5s-0.5 13.833 -0.5 20.5z" />
    <glyph glyph-name="three" unicode="3" horiz-adv-x="413" 
d="M45 185c13.333 6.66699 27.8311 10.3281 43.498 10.9951s30.834 3 45.501 7c0 -10 0.666992 -20.167 2 -30.5s3.5 -20.166 6.5 -29.499s7.33301 -17.666 13 -24.999s12.834 -12.666 21.501 -15.999c14.667 0 27.334 4.5 38.001 13.5s19.5 20.167 26.5 33.5
s12 27.5 15 42.5s4.5 28.5 4.5 40.5c0 13.333 -1 28.5 -3 45.5s-5.66699 31.833 -11 44.5v-1c-6 16 -15 28.167 -27 36.5s-25.5 14.5 -40.5 18.5s-30.5 6.5 -46.5 7.5s-30.667 2.16699 -44 3.5c-0.666992 2.66699 -1 6.66699 -1 12c-0.666992 15.333 4 29.833 14 43.5
s19 26.5 27 38.5c2.66699 4 6.5 10.833 11.5 20.5l15.5 29.5c5.33301 10 10.5 18.833 15.5 26.5s8.5 11.5 10.5 11.5l1 1c-19.333 0 -40.333 -1.83301 -63 -5.5s-43.667 -5.5 -63 -5.5h-10c-3.33301 0 -6.66602 0.333008 -9.99902 1c0 12.667 -1 24.167 -3 34.5
s-3 20.166 -3 29.499c0 19.333 12 29 36 29c12 0 24.167 -0.833008 36.5 -2.5s25.166 -2.5 38.499 -2.5c30.667 0 60.667 1.16699 90 3.5s58.666 3.5 87.999 3.5h14c4 -5.33301 6 -11.666 6 -18.999s-1.5 -14.166 -4.5 -20.499s-7.33301 -13.5 -13 -21.5l-20 -28.5
c-7.66699 -11 -16.5 -24.5 -26.5 -40.5c-6.66699 -10.667 -12.667 -21.5 -18 -32.5s-11.333 -21.5 -18 -31.5c22 -12 41.333 -24 58 -36s30.667 -26 42 -42s19.833 -34.667 25.5 -56s8.5 -47 8.5 -77c0 -21.333 -1.83301 -42.333 -5.5 -63s-9.16699 -40.667 -16.5 -60
l-15.5 -32.5c-7 -14.333 -16.333 -28.5 -28 -42.5s-25.167 -26.167 -40.5 -36.5s-33 -15.5 -53 -15.5c-14 0 -29.167 1.83301 -45.5 5.5s-32.333 11.834 -48 24.501s-30.167 31.167 -43.5 55.5s-24.333 57.5 -33 99.5z" />
    <glyph glyph-name="four" unicode="4" horiz-adv-x="432" 
d="M259 644h38.4961c9.66699 0 17.167 -0.666992 22.5 -2s8.83301 -3.33301 10.5 -6s2.5 -7 2.5 -13c0 -6.66699 -0.5 -15.334 -1.5 -26.001s-1.5 -24.667 -1.5 -42c0 -0.666992 -0.166992 -7.5 -0.5 -20.5s-0.666016 -29 -0.999023 -48s-0.666016 -39.5 -0.999023 -61.5
s-0.666016 -42.5 -0.999023 -61.5s-0.666016 -35 -0.999023 -48s-0.5 -19.833 -0.5 -20.5c10 2 20.333 3 31 3c8.66699 0 15.5 -1.5 20.5 -4.5s8.66699 -7 11 -12s3.83301 -10.667 4.5 -17s1 -12.833 1 -19.5c0 -13.333 -1.83301 -21.333 -5.5 -24s-10.834 -4 -21.501 -4
c-2 0 -5 0.166992 -9 0.5l-12.5 1l-12.5 1c-4 0.333008 -6.66699 0.833008 -8 1.5c-1.33301 -3.33301 -2.5 -11 -3.5 -23s-1.66699 -25.667 -2 -41s-0.5 -31.333 -0.5 -48v-45c0 -15.333 -0.833008 -27.333 -2.5 -36s-4.5 -15 -8.5 -19s-9.66699 -6.5 -17 -7.5
s-16.666 -1.5 -27.999 -1.5c-7.33301 0 -15 0.833008 -23 2.5s-12 7.16699 -12 16.5c0 65.333 2 130 6 194c-18 -0.666992 -36.333 -1 -55 -1h-55c-2.66699 0 -9 0.166992 -19 0.5s-20.333 1 -31 2s-20.167 2.66699 -28.5 5s-12.5 5.5 -12.5 9.5
c0 5.33301 2.5 13.333 7.5 24s11 21.834 18 33.501l20 34l14.5 25.5l62.5 120c22.333 42 40.5 82.667 54.5 122c4.66699 12.667 11.5 25.167 20.5 37.5s18.833 18.5 29.5 18.5zM192.996 291l22.5 -0.000976562c7.66699 0 15.167 0.666992 22.5 2l3 30.5
c1.33301 13.667 2.5 28.167 3.5 43.5s1.83301 31 2.5 47s1 30 1 42v17c0 6 -0.666992 9 -2 9c-2 0 -6.16699 -8 -12.5 -24l-22 -56c-8.33301 -21.333 -17.5 -42.666 -27.5 -63.999s-19.333 -37 -28 -47h37z" />
    <glyph glyph-name="five" unicode="5" horiz-adv-x="389" 
d="M305 560c-15.333 -2 -30.3311 -3.00098 -44.998 -3.00098c-15.333 0 -30.5 0.5 -45.5 1.5s-29.833 1.5 -44.5 1.5h-13c-4 0 -8.33301 -0.333008 -13 -1l1 -5h-1c2.66699 -9.33301 4.66699 -19.5 6 -30.5l4 -31.5c40 0 72.667 -5.83301 98 -17.5
s45.166 -27.834 59.499 -48.501s24.333 -45.667 30 -75s8.5 -61.333 8.5 -96c0 -23.333 -1.83301 -49.666 -5.5 -78.999s-10.667 -57 -21 -83s-25 -48 -44 -66s-43.833 -27 -74.5 -27c-49.333 0 -86.5 12.5 -111.5 37.5s-43.833 60.167 -56.5 105.5v-1
c-1.33301 2 -2.5 4.5 -3.5 7.5s-1.5 5.83301 -1.5 8.5v5c2.66699 3.33301 8.66699 6.16602 18 8.49902s19.333 4.16602 30 5.49902s21 2.33301 31 3s17 1 21 1h15.5c7 0 11.167 -1.33301 12.5 -4v-12c0 -5.33301 0.166992 -11.5 0.5 -18.5s1.33301 -13.5 3 -19.5
s4.5 -11.167 8.5 -15.5s9.66699 -6.5 17 -6.5c13.333 0 23.5 4.33301 30.5 13s12.167 19 15.5 31s5.33301 24.667 6 38s1 24.666 1 33.999c0 18.667 -1 38.5 -3 59.5s-6.5 40 -13.5 57s-17.333 31.167 -31 42.5s-32.167 17 -55.5 17c-6.66699 0 -13 -0.666992 -19 -2
s-12.333 -2.66602 -19 -3.99902h1c-3.33301 -1.33301 -7 -2.66602 -11 -3.99902s-7.66699 -2 -11 -2c-10.667 0 -17.667 6 -21 18c-0.666992 2.66699 -1.5 9 -2.5 19s-2 21.833 -3 35.5s-2 28.5 -3 44.5s-1.83301 31.333 -2.5 46s-1.16699 27.834 -1.5 39.501
s-0.5 19.834 -0.5 24.501c0 12.667 2.5 22.167 7.5 28.5s14.167 9.5 27.5 9.5c39.333 0 78.5 -0.5 117.5 -1.5s78.167 -1.83301 117.5 -2.5c3.33301 -16.667 5 -32 5 -46c0 -5.33301 -0.333008 -10.833 -1 -16.5s-2.33398 -11.167 -5.00098 -16.5z" />
    <glyph glyph-name="six" unicode="6" horiz-adv-x="387" 
d="M183 554c-8 0 -14.6689 -4.16211 -20.002 -12.4951s-9.5 -18.166 -12.5 -29.499s-5 -22.5 -6 -33.5s-1.83301 -19.5 -2.5 -25.5c8 5.33301 16.167 8.83301 24.5 10.5s17.166 2.5 26.499 2.5c30.667 0 56 -6.83301 76 -20.5s35.833 -30.834 47.5 -51.501
s19.834 -43.334 24.501 -68.001s7 -48 7 -70c0 -24 -3.16699 -50.833 -9.5 -80.5s-16 -57.5 -29 -83.5s-29.833 -47.833 -50.5 -65.5s-45.334 -26.5 -74.001 -26.5c-26.667 0 -49.167 5.5 -67.5 16.5s-33.166 25.833 -44.499 44.5s-19.833 40.167 -25.5 64.5
s-9.66699 49.666 -12 75.999s-3.5 52.833 -3.5 79.5v75c0 16 0.333008 34.5 1 55.5s2.33398 42.5 5.00098 64.5s7 43.5 13 64.5s14.167 39.833 24.5 56.5s23.5 30 39.5 40s35.333 15 58 15c20.667 0 40.334 -3.66699 59.001 -11s35.167 -17.333 49.5 -30
s25.666 -28 33.999 -46s12.5 -37.333 12.5 -58c0 -6.66699 -1.5 -11.834 -4.5 -15.501s-6.83301 -6.5 -11.5 -8.5s-10 -3.16699 -16 -3.5s-11.667 -0.5 -17 -0.5c-17.333 0 -29.833 1.33301 -37.5 4s-13 6 -16 10s-4.5 8.66699 -4.5 14s-0.5 10.666 -1.5 15.999
s-3.5 10.666 -7.5 15.999s-11.333 10 -22 14c-1.33301 0.666992 -3.66602 1 -6.99902 1zM137.998 209.005c0 -7.33301 0.330078 -16.833 0.99707 -28.5s2.5 -22.834 5.5 -33.501s7.5 -19.834 13.5 -27.501s14.333 -11.5 25 -11.5c12.667 0 22.834 5.83301 30.501 17.5
s13.834 25.167 18.501 40.5s7.83398 31 9.50098 47s2.5 28.333 2.5 37c0 6.66699 -0.833008 15.834 -2.5 27.501s-4.33398 23 -8.00098 34s-8.66699 20.667 -15 29s-14.166 12.5 -23.499 12.5c-10 0 -18.667 -4.16699 -26 -12.5s-13.333 -18.166 -18 -29.499s-8 -23 -10 -35
s-3 -21.667 -3 -29v-38z" />
    <glyph glyph-name="seven" unicode="7" horiz-adv-x="426" 
d="M280 496c-15.333 -22.667 -28.002 -50.999 -38.002 -84.999s-18 -69.5 -24 -106.5s-10.167 -73.5 -12.5 -109.5s-3.5 -67.333 -3.5 -94c0 -10.667 1 -20.834 3 -30.501s3 -19.834 3 -30.501c0 -15.333 -6.66699 -25.833 -20 -31.5s-27.666 -8.5 -42.999 -8.5
c-10 0 -17.833 2.16699 -23.5 6.5s-9.66699 10 -12 17s-3.83301 14.667 -4.5 23s-1 16.833 -1 25.5c0 41.333 1.83301 81 5.5 119s7.83398 76 12.501 114l2 18c5.33301 48 17.166 94.5 35.499 139.5s40.5 86.5 66.5 124.5c-24 0 -48 0.166992 -72 0.5s-47.667 0.5 -71 0.5
c-17.333 0 -30.166 3.5 -38.499 10.5s-12.5 23.167 -12.5 48.5c0 6 1.66699 10.667 5 14s7.5 6 12.5 8s10.667 3.16699 17 3.5s12.166 0.5 17.499 0.5h15c8 0 16.333 0.5 25 1.5s17.334 1.5 26.001 1.5c16.667 0 32.834 -0.333008 48.501 -1s31.834 -1 48.501 -1
c15.333 0 31.666 0.5 48.999 1.5s32 1.5 44 1.5c4.66699 0 9.66699 -0.666992 15 -2s10.333 -4 15 -8s8.5 -9.66699 11.5 -17s4.5 -16.666 4.5 -27.999c0 -8 -2.83301 -14.5 -8.5 -19.5s-11.834 -9.5 -18.501 -13.5h1c-16.667 -13.333 -31.5 -28 -44.5 -44
s-25.167 -32.333 -36.5 -49h1z" />
    <glyph glyph-name="eight" unicode="8" horiz-adv-x="422" 
d="M314 415c26 -18 43.667 -40.667 53 -68s14 -56 14 -86c0 -17.333 -0.833008 -34.5 -2.5 -51.5s-4.16699 -34.167 -7.5 -51.5c-2.66699 -14.667 -7.66699 -31.167 -15 -49.5s-16.833 -35.5 -28.5 -51.5s-24.834 -29.5 -39.501 -40.5s-30.334 -16.5 -47.001 -16.5
c-30 0 -57.667 4.66699 -83 14s-47.333 22.666 -66 39.999s-33.334 38.5 -44.001 63.5s-16 53.5 -16 85.5c0 12.667 1.5 29.167 4.5 49.5s7.33301 41.166 13 62.499s12.334 41.166 20.001 59.499s16.167 31.833 25.5 40.5c-11.333 12 -19.166 25.667 -23.499 41
s-6.5 31 -6.5 47c0 19.333 3.16699 37.833 9.5 55.5s15.333 33.334 27 47.001s25.667 24.5 42 32.5s34.833 12 55.5 12c16.667 0 33.834 -2.33301 51.501 -7s33.5 -12 47.5 -22s25.5 -23 34.5 -39s13.5 -35 13.5 -57c0 -17.333 -2.5 -36.666 -7.5 -57.999
s-13.167 -38.666 -24.5 -51.999zM155 520c0 -13.333 5.16602 -25.832 15.499 -37.499s22.5 -17.5 36.5 -17.5s24.333 6.33301 31 19s10 25 10 37c0 13.333 -3.66699 24.666 -11 33.999s-17.666 14 -30.999 14c-5.33301 0 -11 -1.33301 -17 -4s-11.5 -6.16699 -16.5 -10.5
s-9.16699 -9.5 -12.5 -15.5s-5 -12.333 -5 -19zM269.999 183.001c0 36 -1.16504 65.333 -3.49805 88s-6 40.5 -11 53.5s-11.333 22 -19 27s-16.5 7.5 -26.5 7.5c-18.667 0 -33.334 -6.33301 -44.001 -19s-18.834 -28 -24.501 -46s-9.33398 -36.833 -11.001 -56.5
s-2.5 -36.5 -2.5 -50.5c0 -11.333 0.833008 -23 2.5 -35s5 -22.667 10 -32s12 -17 21 -23s20.5 -9 34.5 -9c14.667 0 26.334 2.83301 35.001 8.5s15.5 13.167 20.5 22.5s8.83301 19.5 11.5 30.5s5 22.167 7 33.5z" />
    <glyph glyph-name="nine" unicode="9" horiz-adv-x="378" 
d="M51 307c-4 10 -7.16797 21.835 -9.50098 35.502s-4.16602 27.5 -5.49902 41.5s-2.33301 27.833 -3 41.5s-1 26.167 -1 37.5c0 16.667 0.833008 33.167 2.5 49.5s4.5 32.166 8.5 47.499h-1c4.66699 18 12.167 33.5 22.5 46.5s22.5 23.833 36.5 32.5
s29.167 15.167 45.5 19.5s33.166 6.5 50.499 6.5c34.667 0 61.5 -10 80.5 -30s33 -44.833 42 -74.5s14.5 -61.5 16.5 -95.5s3 -65.333 3 -94v-77c0 -27.333 -1.16699 -54.833 -3.5 -82.5s-6.5 -54.334 -12.5 -80.001s-14.833 -48.334 -26.5 -68.001s-26.667 -35.5 -45 -47.5
s-41.166 -18 -68.499 -18c-24.667 0 -46.834 5.83301 -66.501 17.5s-35.5 28.167 -47.5 49.5v-1c-9.33301 14 -16.666 28.167 -21.999 42.5s-8 30.166 -8 47.499c2.66699 2.66699 7.5 5.16699 14.5 7.5s14.667 4.5 23 6.5s16.5 3.66699 24.5 5l18 3
c6.66699 -6 11.667 -13.667 15 -23l10.5 -28c3.66699 -9.33301 8.16699 -17.333 13.5 -24s14 -10 26 -10c4 0 7.5 0.833008 10.5 2.5s6.16699 3.16699 9.5 4.5h-1c6.66699 4.66699 12.167 12.834 16.5 24.501s7.83301 24.5 10.5 38.5s4.5 27.5 5.5 40.5s1.5 23.167 1.5 30.5
c0 1.33301 -0.166992 2.33301 -0.5 3s-0.5 1.33398 -0.5 2.00098c-9.33301 -3.33301 -18.833 -6.5 -28.5 -9.5s-19.5 -4.5 -29.5 -4.5c-12 0 -24.333 2.33301 -37 7s-25 10.667 -37 18s-22.667 16 -32 26s-16.333 20.667 -21 32v1zM189.999 325.002
c12.667 0 22.3311 4.83398 28.998 14.501s11.334 21.5 14.001 35.5s4.16699 29.167 4.5 45.5s0.5 31.5 0.5 45.5c0 8 -0.333008 18.167 -1 30.5s-2.5 24.333 -5.5 36s-7.83301 21.5 -14.5 29.5s-16 12 -28 12c-13.333 0 -24 -4.5 -32 -13.5s-14.5 -19.833 -19.5 -32.5
s-8.33301 -25.834 -10 -39.501s-2.5 -25.167 -2.5 -34.5c0 -10 0.666992 -22.5 2 -37.5s4.33301 -29.167 9 -42.5s11.334 -24.833 20.001 -34.5s20 -14.5 34 -14.5z" />
    <glyph glyph-name="colon" unicode=":" horiz-adv-x="313" 
d="M230 36c0 -1.33301 -1.00098 -4.66797 -3.00098 -10.001s-3.33301 -8.66602 -4 -9.99902c-4 -7.33301 -9.66699 -13.333 -17 -18s-15.666 -8 -24.999 -10s-18.666 -2.66699 -27.999 -2s-18 2.66699 -26 6c-7.33301 4.66699 -13.666 11.167 -18.999 19.5
s-9 17.166 -11 26.499s-2.33301 18.833 -1 28.5s4.66602 18.167 9.99902 25.5c4.66699 7.33301 10.667 13.5 18 18.5s15.166 8.5 23.499 10.5s16.833 2 25.5 0s16.334 -6 23.001 -12c7.33301 -7.33301 14.666 -18.166 21.999 -32.499s10.333 -28.5 9 -42.5l3 3h1z
M150.999 499.998c11.333 1.33301 22.333 -1.33496 33 -8.00195s18.334 -14.667 23.001 -24c6 -12 7.33301 -25.167 4 -39.5s-9.66602 -26.166 -18.999 -35.499c-3.33301 -3.33301 -9 -7.66602 -17 -12.999s-14.667 -8.33301 -20 -9c-11.333 0 -21.833 2 -31.5 6
s-18 9.5 -25 16.5s-12 15.333 -15 25s-2.83301 19.834 0.5 30.501c5.33301 14 13.666 25.167 24.999 33.5s24 14.166 38 17.499c0.666992 0 1.16699 -0.166992 1.5 -0.5s1.16602 -0.5 2.49902 -0.5h-3v1h3zM150.999 499.997h-6h6z" />
    <glyph glyph-name="semicolon" unicode=";" horiz-adv-x="307" 
d="M113 377c-4 0.666992 -8.00391 2.83301 -12.0039 6.5s-7.83301 7.5 -11.5 11.5s-6.5 7.83301 -8.5 11.5s-3 6.16699 -3 7.5l-5 17c-3.33301 11.333 -2.16602 24.166 3.50098 38.499s12.5 25.5 20.5 33.5c8.66699 6.66699 20.334 10.5 35.001 11.5s27 -0.166992 37 -3.5
c8.66699 -2.66699 16.334 -7 23.001 -13s11.834 -13 15.501 -21s5.66699 -16.333 6 -25s-1.16699 -17 -4.5 -25c-2 -8 -6.5 -16 -13.5 -24s-14.5 -14.333 -22.5 -19c-7.33301 -3.33301 -17.333 -6.16602 -30 -8.49902s-22.667 -1.83301 -30 1.5zM88.9961 -53.001
c4.66699 0 10.168 1.1709 16.501 3.50391s12.166 5.5 17.499 9.5s10 8.66699 14 14s5.66699 11 5 17c-13.333 -4.66699 -25 -6 -35 -4s-18.5 5.83301 -25.5 11.5s-12.333 13 -16 22s-5.5 18.167 -5.5 27.5c0 13.333 2.16699 24.5 6.5 33.5s10.333 16.167 18 21.5
s16.334 9.33301 26.001 12s19.834 4 30.501 4c8.66699 0 17.5 -1.83301 26.5 -5.5s17.167 -9.33398 24.5 -17.001s13.333 -17.667 18 -30s7 -26.833 7 -43.5c0 -14 -2.66699 -28.5 -8 -43.5s-13 -28.833 -23 -41.5s-21.833 -23.334 -35.5 -32.001
s-28.834 -13.667 -45.501 -15c-0.666992 1.33301 -1.83398 4.83301 -3.50098 10.5l-5.5 18c-2 6.33301 -3.66699 12.166 -5 17.499s-2 8.66602 -2 9.99902z" />
    <glyph glyph-name="less" unicode="&#x3c;" horiz-adv-x="311" 
d="M274 569v-1.99902c0 -4.66699 -2.83301 -12 -8.5 -22l-19 -32c-7 -11.333 -14.167 -22 -21.5 -32s-12.333 -17 -15 -21v1c-2 -3.33301 -6.83301 -10.5 -14.5 -21.5l-23.5 -35l-22 -34c-6.66699 -10.333 -10 -16.833 -10 -19.5c0 -3.33301 2.66699 -10 8 -20
s12.166 -22 20.499 -36l27.5 -44.5l29 -45l25 -37c7.33301 -10.333 12.666 -17.166 15.999 -20.499c-2 -5.33301 -4.83301 -11.5 -8.5 -18.5s-8.16699 -13.833 -13.5 -20.5s-11 -12.334 -17 -17.001s-12 -7 -18 -7c-9.33301 0 -20.666 7.66699 -33.999 23
s-27.166 34 -41.499 56s-28.166 44.833 -41.499 68.5l-35 60.5h1c-6 8 -11.833 17.667 -17.5 29s-8.5 22 -8.5 32c0 11.333 5 23.333 15 36s19 25 27 37l72 106c-0.666992 0.666992 1.16602 4.66699 5.49902 12s9.83301 15.166 16.5 23.499s14 16 22 23s15.333 10.5 22 10.5
c7.33301 0 14.333 -1.83301 21 -5.5s12.667 -7.16699 18 -10.5l-1 1l13 -8c0.666992 -0.666992 1.5 -1.16699 2.5 -1.5s1.5 -0.833008 1.5 -1.5v-1z" />
    <glyph glyph-name="equal" unicode="=" horiz-adv-x="550" 
d="M56 361c-1.33301 0 -2.33398 1.33105 -3.00098 3.99805s-1.16699 5.66699 -1.5 9s-0.5 6.5 -0.5 9.5v5.5c0 2 0.166992 6.83301 0.5 14.5s1 15.5 2 23.5s2.33301 15.333 4 22s3.83398 10.334 6.50098 11.001c7.33301 0.666992 15.166 1 23.499 1h23.5
c34 0 67.5 -0.833008 100.5 -2.5s66.5 -2.5 100.5 -2.5c30 0 59.833 0.833008 89.5 2.5s59.5 3.83398 89.5 6.50098c4.66699 0 8.33398 -1.66699 11.001 -5s4.5 -7.5 5.5 -12.5s1.66699 -10 2 -15s0.5 -8.83301 0.5 -11.5c0 -4 -0.333008 -9 -1 -15s-1.5 -12.167 -2.5 -18.5
s-2.33301 -12.5 -4 -18.5s-3.5 -10.333 -5.5 -13c-74 0 -147.5 0.833008 -220.5 2.5s-146.5 2.5 -220.5 2.5zM312.999 289.998c5.33301 0 17.835 -0.166016 37.502 -0.499023s40.5 -1 62.5 -2s41.667 -2.66699 59 -5s26.666 -5.83301 27.999 -10.5
c1.33301 -7.33301 2.16602 -14.333 2.49902 -21s0.5 -13.667 0.5 -21v-13c0 -8.66699 -1 -16.667 -3 -24s-8.33301 -11 -19 -11c-93.333 0 -187 1 -281 3l-70.5 2c-23.667 0.666992 -47.167 2.66699 -70.5 6c-4 0.666992 -7.5 3 -10.5 7s-5.33301 8.5 -7 13.5
s-2.83398 10.167 -3.50098 15.5s-1 9.66602 -1 12.999c0 14 2.66699 25.833 8 35.5s16 14.5 32 14.5c4.66699 0 9.16699 -0.5 13.5 -1.5s8.83301 -1.5 13.5 -1.5c34.667 0 69.334 0.166992 104.001 0.5s69.667 0.5 105 0.5z" />
    <glyph glyph-name="greater" unicode="&#x3e;" horiz-adv-x="302" 
d="M92 598c1.33301 0 4.16797 -2.66602 8.50098 -7.99902s7.16602 -8.66602 8.49902 -9.99902c3.33301 -4 9.16602 -12 17.499 -24l29.5 -42l35 -51l33.5 -50c10.333 -15.333 19 -28.833 26 -40.5s11.167 -18.834 12.5 -21.501c1.33301 -4 2 -8 2 -12
c0 -2 -0.166992 -4.16699 -0.5 -6.5s-0.5 -4.83301 -0.5 -7.5l-65.5 -99.5c-21.667 -33.667 -40.5 -67.5 -56.5 -101.5l-3 -4h1c-3.33301 -7.33301 -7.5 -13.666 -12.5 -18.999s-12.5 -8 -22.5 -8c-3.33301 0 -8.16602 1 -14.499 3s-12.833 4.66699 -19.5 8
s-12.334 6.66602 -17.001 9.99902s-7 6.66602 -7 9.99902c0 6.66699 2.66699 16.167 8 28.5s12 25.833 20 40.5l25.5 45.5l25.5 43l20 32.5c5.33301 8.66699 8 13.334 8 14.001c0 8 -4 20.333 -12 37s-17.333 34 -28 52s-21.5 35 -32.5 51s-19.5 27 -25.5 33
c-3.33301 10.667 -7.66602 20.167 -12.999 28.5s-9.33301 18.166 -12 29.499c0.666992 4 3.5 8.16699 8.5 12.5s10.833 8.5 17.5 12.5s13.167 7.33301 19.5 10s11.5 4 15.5 4z" />
    <glyph glyph-name="question" unicode="?" horiz-adv-x="383" 
d="M344 490c0 -26 -1.83398 -49.335 -5.50098 -70.002s-9.66699 -40.167 -18 -58.5s-18.833 -35.833 -31.5 -52.5s-28 -33.334 -46 -50.001l-25 -26c-9.33301 -10 -14 -20 -14 -30c0 -9.33301 0.833008 -20.166 2.5 -32.499s2.5 -22.833 2.5 -31.5
c0 -13.333 -4.33301 -21.666 -13 -24.999s-18.334 -5 -29.001 -5c-12 0 -22.167 0.666992 -30.5 2s-15.166 4 -20.499 8s-9.33301 9.83301 -12 17.5s-4 18.167 -4 31.5c0 19.333 3 38 9 56s13.833 35.167 23.5 51.5s20.834 31.666 33.501 45.999s25.667 27.833 39 40.5
s24.333 25.834 33 39.501s13 30.167 13 49.5c0 9.33301 -1.16699 20.333 -3.5 33s-6 24.5 -11 35.5s-11.5 20.333 -19.5 28s-18 11.5 -30 11.5c-16 0 -28 -4.83301 -36 -14.5s-12 -22.167 -12 -37.5c0 -5.33301 0.166992 -10.166 0.5 -14.499s0.5 -8.83301 0.5 -13.5
c0 -6 -3 -11 -9 -15s-13 -7.33301 -21 -10s-16.167 -4.66699 -24.5 -6s-14.5 -2 -18.5 -2c-13.333 0 -22.5 4.5 -27.5 13.5s-7.5 19.167 -7.5 30.5c0 20 3.83301 40.167 11.5 60.5s18.167 38.5 31.5 54.5s29.166 29 47.499 39s38.5 15 60.5 15s42.833 -4.83301 62.5 -14.5
s36.834 -22.334 51.501 -38.001s26.167 -33.667 34.5 -54s12.5 -41.166 12.5 -62.499zM122.999 21.998c-4 4.66699 -6.00098 11.002 -6.00098 19.002c0 7.33301 2 15.166 6 23.499s9.66699 14.166 17 17.499h-1c8.66699 5.33301 17.334 8 26.001 8
c11.333 0 20.833 -4.5 28.5 -13.5s11.5 -19.167 11.5 -30.5c0 -12 -4.66699 -22.667 -14 -32s-20 -14 -32 -14c-7.33301 0 -14.5 2 -21.5 6s-12.167 9.33301 -15.5 16h1z" />
    <glyph glyph-name="at" unicode="@" horiz-adv-x="588" 
d="M317 638c50.667 0 91.666 -6.50391 122.999 -19.5039s55.666 -32.167 72.999 -57.5s28.833 -57 34.5 -95s8.5 -82.333 8.5 -133c0 -10.667 -0.333008 -24.167 -1 -40.5s-2.5 -33.666 -5.5 -51.999s-7 -36.833 -12 -55.5s-12 -35.334 -21 -50.001s-20 -26.667 -33 -36
s-28.5 -14 -46.5 -14c-11.333 0 -24.833 3.66699 -40.5 11s-27.167 15.333 -34.5 24c-7.33301 -3.33301 -15.5 -6.66602 -24.5 -9.99902s-17.833 -5 -26.5 -5c-21.333 0 -41 7 -59 21h1c-15.333 10 -27.833 22.833 -37.5 38.5s-17.167 32.5 -22.5 50.5
s-9.16602 36.5 -11.499 55.5s-3.5 36.833 -3.5 53.5c0 22.667 2 46.334 6 71.001s10.833 47.167 20.5 67.5s22.834 37.166 39.501 50.499s37.667 20 63 20c6.66699 0 13.667 -1.66699 21 -5s13.666 -7.33301 18.999 -12l2 3l-1 -1c1.33301 7.33301 5.16602 11.5 11.499 12.5
s12.166 1.5 17.499 1.5c25.333 0 43.333 -9 54 -27c0 -20.667 -0.166992 -45 -0.5 -73s-0.5 -52.333 -0.5 -73v-24c0 -14.667 -0.166992 -30.5 -0.5 -47.5s-0.833008 -32.5 -1.5 -46.5s-2 -21.333 -4 -22c2.66699 -3.33301 5.83398 -8.33301 9.50098 -15
s8.16699 -10 13.5 -10s9.83301 6.83301 13.5 20.5s6.5 30.5 8.5 50.5s3.5 41.5 4.5 64.5s1.5 43.5 1.5 61.5c0 26.667 -2.5 50.834 -7.5 72.501s-13 40.167 -24 55.5s-25.5 27.166 -43.5 35.499s-39.667 12.5 -65 12.5c-21.333 0 -43.166 -4.5 -65.499 -13.5
s-41.166 -21.833 -56.499 -38.5c-10.667 -12 -21 -29 -31 -51s-18.833 -45.667 -26.5 -71s-13.834 -50.166 -18.501 -74.499s-7 -44.5 -7 -60.5c0 -19.333 2.66699 -39 8 -59s13.333 -38.333 24 -55s24.167 -30.5 40.5 -41.5s35.5 -17.5 57.5 -19.5l29.5 -3.5
c8.33301 -1 15.5 -3.16699 21.5 -6.5s10.667 -8.66602 14 -15.999s5.66602 -17.333 6.99902 -30v-9c0 -11.333 -2.66699 -18.666 -8 -21.999s-11.666 -5 -18.999 -5c-23.333 0 -45 3 -65 9s-40.667 13.667 -62 23c-24.667 8 -45.5 20 -62.5 36s-30.667 34.333 -41 55
s-17.666 43 -21.999 67s-6.5 47.667 -6.5 71c0 32 2.66699 64.333 8 97s12.666 64.334 21.999 95.001c12.667 41.333 27.5 74.666 44.5 99.999s35.833 45 56.5 59s42.834 23.333 66.501 28s48.167 7 73.5 7zM309.999 217.996c15.333 14 24.667 30.6699 28 50.0029
s5 38.666 5 57.999c0 4.66699 -0.166992 12.5 -0.5 23.5s-1.33301 22 -3 33s-4 20.833 -7 29.5s-7.16699 13 -12.5 13c-7.33301 0 -13.166 -5.66699 -17.499 -17s-7.66602 -24.333 -9.99902 -39s-4 -28.667 -5 -42s-1.5 -22.333 -1.5 -27s0.166992 -11.334 0.5 -20.001
s1.16602 -17.334 2.49902 -26.001s3.66602 -16.5 6.99902 -23.5s8 -11.167 14 -12.5z" />
    <glyph glyph-name="A" unicode="A" horiz-adv-x="420" 
d="M327 216l9.99902 -39.999c4 -16 7.66699 -32.667 11 -50s6.33301 -34 9 -50s4 -29 4 -39c0 -7.33301 -1.33301 -13.833 -4 -19.5s-6 -11.167 -10 -16.5c-12.667 1.33301 -25.334 1.66602 -38.001 0.999023s-24.667 2.33301 -36 9l-9.5 36c-3.66699 14 -7 28.5 -10 43.5
l-8.5 44c-2.66699 14.333 -4.33398 26.5 -5.00098 36.5c-7.33301 0.666992 -14.666 1.16699 -21.999 1.5s-14.666 0.5 -21.999 0.5h-18c-6 0 -12 -0.666992 -18 -2c-6 -14.667 -10.667 -30.5 -14 -47.5l-9.5 -49.5c-3 -16 -6.16699 -30.5 -9.5 -43.5s-8 -22.5 -14 -28.5
c-5.33301 0 -12.166 -0.5 -20.499 -1.5s-16.5 -1 -24.5 0s-15 3.66699 -21 8s-9 11.5 -9 21.5c0 18 2 35.5 6 52.5s9 34.167 15 51.5v-1c3.33301 8.66699 6 17.334 8 26.001l6 27l44 226c2.66699 16 6 33.833 10 53.5s8.33301 39.667 13 60s9.5 40.166 14.5 59.499
s10.167 36.666 15.5 51.999c3.33301 8.66699 7.16602 14.834 11.499 18.501s11.166 5.5 20.499 5.5c5.33301 0 10.333 -0.666992 15 -2s9.66699 -2 15 -2c6 0 10.667 0.333008 14 1c4.66699 -7.33301 8.83398 -19.5 12.501 -36.5s8.33398 -42.333 14.001 -76l21 -131
c8.33301 -53.667 19.5 -120.167 33.5 -199.5v1zM177.999 258.001c8 0 16.002 0.499023 24.002 1.49902s16 1.5 24 1.5c-1.33301 11.333 -2.5 25.333 -3.5 42s-2.33301 32.834 -4 48.501s-3.33398 29 -5.00098 40s-3.83398 16.5 -6.50098 16.5z" />
    <glyph glyph-name="B" unicode="B" horiz-adv-x="346" 
d="M309 208c0 -18.667 -0.833984 -37.665 -2.50098 -56.998s-5.66699 -37.5 -12 -54.5s-15.666 -32.167 -27.999 -45.5s-28.833 -23 -49.5 -29c-14.667 -4 -32.834 -8.66699 -54.501 -14s-41.5 -8 -59.5 -8h-27h-13.5c-4.33301 0 -8.83301 -0.333008 -13.5 -1
c-7.33301 9.33301 -12.166 20.333 -14.499 33s-3.5 25.667 -3.5 39c0 95.333 -1 192 -3 290s1 193 9 285c17.333 3.33301 34.333 6.83301 51 10.5s33.667 5.5 51 5.5c50 0 89.333 -11.333 118 -34s43 -56.334 43 -101.001c0 -22.667 -4.33301 -44.667 -13 -66
s-20 -40.666 -34 -57.999c16 -12 27.833 -24.333 35.5 -37s13 -26.834 16 -42.501s4.5 -32.834 4.5 -51.501v-64zM206.999 518.002c0 17.333 -3.66699 31.165 -11 41.498s-20.333 15.5 -39 15.5c-3.33301 0 -7 -0.166992 -11 -0.5s-8 -0.5 -12 -0.5h-5
c0.666992 -10.667 1.16699 -24 1.5 -40l1 -46.5c0.333008 -15 0.833008 -28 1.5 -39s1.33398 -16.5 2.00098 -16.5c9.33301 0 17.833 2.33301 25.5 7s14.167 9.83398 19.5 15.501s9.5 11 12.5 16s4.83301 7.83301 5.5 8.5c3.33301 6 5.66602 12.333 6.99902 19
s2 13.334 2 20.001zM219.999 247.001c0 12 -0.166992 24.165 -0.5 36.498s-2.16602 23.166 -5.49902 32.499s-9.33301 17 -18 23s-21.334 9 -38.001 9c-4.66699 0 -9.33398 -0.166992 -14.001 -0.5s-9.66699 -1.16602 -15 -2.49902c0 -20 -0.166992 -39.833 -0.5 -59.5
s-0.5 -39.167 -0.5 -58.5s0.333008 -38.666 1 -57.999s2.33398 -38.666 5.00098 -57.999c10 2 21.333 3.5 34 4.5s22.667 5.16699 30 12.5c3.33301 2.66699 6.33301 9.5 9 20.5s5 23 7 36s3.5 25.5 4.5 37.5s1.5 20.333 1.5 25z" />
    <glyph glyph-name="C" unicode="C" horiz-adv-x="379" 
d="M265 154c4.66699 0 11.1719 -0.5 19.5049 -1.5s16.5 -2.66699 24.5 -5s14.833 -5.66602 20.5 -9.99902s8.5 -9.83301 8.5 -16.5c0 -5.33301 -1.16699 -10 -3.5 -14s-5.16602 -8 -8.49902 -12c-8 -11.333 -16.5 -22.5 -25.5 -33.5s-18.667 -21.167 -29 -30.5
s-21.833 -16.833 -34.5 -22.5s-26.334 -8.5 -41.001 -8.5c-30 0 -55.333 6 -76 18s-37.5 27.833 -50.5 47.5s-22.5 41.5 -28.5 65.5s-9 48 -9 72c0 21.333 0.333008 42.666 1 63.999s1 42.666 1 63.999c0 18.667 0.166992 39.667 0.5 63s1.83301 47 4.5 71s7 47.667 13 71
s14.667 44.333 26 63s25.666 34 42.999 46s38.666 19 63.999 21h6c16.667 0 33.667 -3.66699 51 -11s33.166 -17.166 47.499 -29.499s26.166 -26.5 35.499 -42.5s14 -33 14 -51c0 -2 -3.33301 -4.5 -10 -7.5s-14.334 -5.66699 -23.001 -8s-16.834 -4.33301 -24.501 -6
s-12.834 -2.5 -15.501 -2.5c-9.33301 0 -16 3.33301 -20 10s-7.83301 14 -11.5 22s-8.16699 15.333 -13.5 22s-13.666 10 -24.999 10c-13.333 0 -24.166 -5.16699 -32.499 -15.5s-14.833 -22.666 -19.5 -36.999s-8 -29.166 -10 -44.499s-3 -28 -3 -38
c-2 -75.333 -3 -150.333 -3 -225c0 -9.33301 0.666992 -20.666 2 -33.999s4 -26.333 8 -39s9.83301 -23.334 17.5 -32.001s18.167 -13 31.5 -13c10 0 17.5 3.16699 22.5 9.5s9.66699 13.166 14 20.499s9.33301 14.166 15 20.499s14.5 9.5 26.5 9.5z" />
    <glyph glyph-name="D" unicode="D" horiz-adv-x="368" 
d="M34 196c0 17.333 0.332031 34.5049 0.999023 51.5049s1 34.167 1 51.5c0 10.667 -0.333008 21.167 -1 31.5s-1 21.166 -1 32.499c0 22.667 0.5 45.167 1.5 67.5s1.5 45.166 1.5 68.499v14v53c0 17.333 0.5 35 1.5 53s3.16699 33.333 6.5 46
c9.33301 4 18.833 6.66699 28.5 8s19.167 2 28.5 2h15c14 0 29.833 -0.5 47.5 -1.5s35 -3.5 52 -7.5s33 -9.66699 48 -17s26.833 -17 35.5 -29c7.33301 -10.667 13 -23 17 -37s6.83301 -28.333 8.5 -43s2.66699 -29.334 3 -44.001s0.5 -28.334 0.5 -41.001
c0 -20 -0.666992 -39.833 -2 -59.5s-2 -39.5 -2 -59.5c0 -15.333 0.166992 -30.5 0.5 -45.5s0.5 -30.167 0.5 -45.5v-30.5c0 -12.333 -0.333008 -25 -1 -38s-1.5 -25.333 -2.5 -37s-2.5 -20.834 -4.5 -27.501c-8 -26 -20.333 -46.5 -37 -61.5s-35.667 -26.167 -57 -33.5
s-44.166 -12 -68.499 -14s-48.833 -3 -73.5 -3c-13.333 -0 -23.5 1.33301 -30.5 4s-12 6.66699 -15 12s-4.5 11.833 -4.5 19.5v25.5c0 22.667 0.333008 45.167 1 67.5s1 44.833 1 67.5zM124.999 364.005c0 -22 0.50293 -43.999 1.50293 -65.999s1.5 -43.667 1.5 -65
c0 -23.333 -0.666992 -46.833 -2 -70.5s-2 -47.5 -2 -71.5h5c11.333 0 22.666 1.16699 33.999 3.5s22.666 4.83301 33.999 7.5s19.666 10.5 24.999 23.5s9 28.167 11 45.5s3 35.666 3 54.999v51c0.666992 30 1.66699 59.833 3 89.5s2 59.5 2 89.5
c0 16 -0.333008 31.167 -1 45.5s-3.33398 27 -8.00098 38s-12.167 19.667 -22.5 26s-25.5 9.5 -45.5 9.5h-15c-4.66699 0 -9.66699 -0.333008 -15 -1c-1.33301 -35.333 -3.16602 -70.5 -5.49902 -105.5s-3.5 -69.833 -3.5 -104.5z" />
    <glyph glyph-name="E" unicode="E" horiz-adv-x="346" 
d="M249 105c3.33301 0 6.83105 0.166992 10.498 0.5s7.16699 0.5 10.5 0.5c13.333 0 22.666 -3.66699 27.999 -11s8.83301 -16.333 10.5 -27s2.16699 -22 1.5 -34s-0.666992 -22.333 0 -31c-17.333 -1.33301 -34.666 -2.33301 -51.999 -3s-34.666 -1 -51.999 -1
c-4.66699 0 -14.667 0.166992 -30 0.5s-31.666 0.833008 -48.999 1.5s-33.333 1.5 -48 2.5s-23.334 2.16699 -26.001 3.5c-4 9.33301 -7.16699 20.166 -9.5 32.499s-4 25.333 -5 39s-1.66699 27 -2 40s-0.5 24.833 -0.5 35.5c0 84.667 -0.666992 169 -2 253
s-2 168.333 -2 253c8 8 16.833 12.667 26.5 14s19.834 2 30.501 2c24 0 48 0.833008 72 2.5s47.667 2.5 71 2.5c10.667 0 21.167 -0.833008 31.5 -2.5s20.166 -5.16699 29.499 -10.5l4.5 -37.5c1.66699 -13.667 2.5 -25.167 2.5 -34.5c0 -11.333 -4.33301 -17.833 -13 -19.5
s-17.334 -2.5 -26.001 -2.5c-22 0 -44 -0.5 -66 -1.5s-43.667 -2.16699 -65 -3.5c0 -32 -1.66699 -63.833 -5 -95.5s-5 -63.5 -5 -95.5c0 -6.66699 0.333008 -11.667 1 -15c16 1.33301 32 3 48 5s32 3 48 3c6 0 12 -0.333008 18 -1s11.667 -1 17 -1
c0.666992 -3.33301 2 -8.66602 4 -15.999s3.83301 -15 5.5 -23l4.5 -22.5c1.33301 -7 2 -12.167 2 -15.5c0 -8 -5.33301 -13.667 -16 -17s-23.667 -5.5 -39 -6.5s-31.166 -1.33301 -47.499 -1s-30.166 0.166016 -41.499 -0.500977v-9c-0.666992 -12.667 0 -25.167 2 -37.5
s3 -24.833 3 -37.5c0 -12 0.166992 -24 0.5 -36s1.83301 -24 4.5 -36c19.333 -3.33301 38.5 -5.16602 57.5 -5.49902s38.167 -0.5 57.5 -0.5z" />
    <glyph glyph-name="F" unicode="F" horiz-adv-x="305" 
d="M266 653c0 -9.33301 0.330078 -18.502 0.99707 -27.502s1 -18.167 1 -27.5c0 -12 -3 -20.333 -9 -25s-14.667 -7 -26 -7c-13.333 0 -26.166 0.5 -38.499 1.5s-25.166 1.5 -38.499 1.5c-5.33301 0 -10.5 -0.166992 -15.5 -0.5s-10.167 -0.833008 -15.5 -1.5v-170
c0 -9.33301 0.166992 -18.666 0.5 -27.999s0.833008 -18.666 1.5 -27.999c9.33301 0 18.5 0.5 27.5 1.5s18.167 1.5 27.5 1.5c6 0 12.167 -0.833008 18.5 -2.5s12.5 -3.5 18.5 -5.5c-0.666992 -2.66699 -1 -6.66699 -1 -12c0 -6 0.333008 -11.833 1 -17.5s1 -11.167 1 -16.5
c0 -18.667 -3.66699 -29.334 -11 -32.001s-17.333 -4 -30 -4c-6 0 -11.833 0.166992 -17.5 0.5s-11.5 0.5 -17.5 0.5h-7.5c-2.33301 0 -5.16602 -0.333008 -8.49902 -1v-227c0 -8 -2 -13.833 -6 -17.5s-8.83301 -6.16699 -14.5 -7.5s-11.834 -1.83301 -18.501 -1.5
s-12.667 0.5 -18 0.5s-10.666 0.166992 -15.999 0.5s-10.666 0.833008 -15.999 1.5c-6.66699 40 -9.66699 83.333 -9 130s1 92.334 1 137.001c0 32 0.166992 63.667 0.5 95s0.5 63 0.5 95c0 14 -0.166992 28.667 -0.5 44s-0.5 30.666 -0.5 45.999
c0 18.667 0.5 36.834 1.5 54.501s3.5 35.167 7.5 52.5c24 3.33301 48.167 4.83301 72.5 4.5s48.5 0.166992 72.5 1.5c9.33301 0.666992 18.166 1.66699 26.499 3s16.833 2 25.5 2s16.667 -2 24 -6z" />
    <glyph glyph-name="G" unicode="G" horiz-adv-x="388" 
d="M242 182c2 7.33301 3.66797 14.3418 5.00098 21.0088s2 13.667 2 21c0 3.33301 -0.166992 6 -0.5 8s-3.16602 3 -8.49902 3c-7.33301 0 -14.333 -0.5 -21 -1.5s-13.667 -1.5 -21 -1.5c-9.33301 0 -16.666 1.5 -21.999 4.5s-9.33301 7.16699 -12 12.5
s-4.33398 11.5 -5.00098 18.5s-1 14.167 -1 21.5c0 16 6 25.833 18 29.5s27 5.5 45 5.5h25c9.33301 0 18.5 0.5 27.5 1.5s18.167 1.5 27.5 1.5c12 0 24.333 -2.66699 37 -8c4.66699 -15.333 7.5 -31.333 8.5 -48s1.5 -33 1.5 -49c0 -28 -1.5 -55.333 -4.5 -82
s-9.5 -50.334 -19.5 -71.001s-24.5 -37.334 -43.5 -50.001s-44.833 -19 -77.5 -19c-30 0 -55 5.16699 -75 15.5s-36 24.166 -48 41.499s-21 37.166 -27 59.499s-10.167 45.666 -12.5 69.999s-3.5 48.5 -3.5 72.5v67c-0.666992 18 -1.66699 36 -3 54s-2 36 -2 54
c0 18.667 0.833008 37 2.5 55s5.33398 34.833 11.001 50.5s14 30.167 25 43.5s25.833 24.666 44.5 33.999v-1c12 5.33301 24.667 10 38 14s26.666 6 39.999 6c14 0 29.5 -2.66699 46.5 -8s33 -12.5 48 -21.5s27.5 -19.333 37.5 -31s15 -23.5 15 -35.5
c0 -5.33301 -2.16699 -10.833 -6.5 -16.5s-9.33301 -11 -15 -16s-11.667 -9 -18 -12s-11.5 -4.5 -15.5 -4.5c-3.33301 0 -8.66602 2.16699 -15.999 6.5s-15 9.33301 -23 15s-16.167 11.167 -24.5 16.5s-15.166 8.66602 -20.499 9.99902h1c-2 0 -4.16699 0.166992 -6.5 0.5
s-4.83301 0.5 -7.5 0.5c-14.667 0 -25.834 -2.5 -33.501 -7.5s-13.334 -11.667 -17.001 -20s-5.83398 -17.833 -6.50098 -28.5s-1 -21.334 -1 -32.001c0 -24.667 -0.333008 -49.167 -1 -73.5s-1 -48.833 -1 -73.5c0 -27.333 0.666992 -55.333 2 -84
s3.66602 -56.667 6.99902 -84c1.33301 -12.667 5.5 -24.334 12.5 -35.001s19.833 -16 38.5 -16c12 0 21.333 3.5 28 10.5s11.5 15.5 14.5 25.5s5.33301 20.667 7 32s3.5 21 5.5 29z" />
    <glyph glyph-name="H" unicode="H" horiz-adv-x="386" 
d="M239 335c1.33301 44 4.33203 87.1738 8.99902 129.507s7 85.166 7 128.499c0 13.333 1.5 24.666 4.5 33.999s12.5 14 28.5 14s29.667 -3.83301 41 -11.5s17 -20.167 17 -37.5c0 -51.333 -1.5 -102.333 -4.5 -153s-5.83301 -101.667 -8.5 -153
c-2 -46.667 -3.83301 -93.334 -5.5 -140.001s-4.16699 -93.334 -7.5 -140.001c-9.33301 0 -18.333 -1 -27 -3s-17.667 -3 -27 -3c-8.66699 0 -15.334 2.5 -20.001 7.5s-8 11.167 -10 18.5s-3.16699 15.333 -3.5 24s-0.5 16.667 -0.5 24c0 28.667 0.5 57.5 1.5 86.5
s2.16699 57.833 3.5 86.5c-17.333 0 -34.166 0.666992 -50.499 2s-32.833 2 -49.5 2h-7c0 -19.333 -0.166992 -42.5 -0.5 -69.5s-1.16602 -53.167 -2.49902 -78.5s-3.66602 -47.333 -6.99902 -66s-8.33301 -29 -15 -31c-4 -1.33301 -10 -2.33301 -18 -3s-14 -1 -18 -1
c-2.66699 0 -6 0.166992 -10 0.5s-8 1.16602 -12 2.49902s-7.5 3 -10.5 5s-4.5 5 -4.5 9c0 18.667 1 38.667 3 60s3 43 3 65v72c0 59.333 1.33301 118.166 4 176.499s4 116.833 4 175.5c0 5.33301 -0.333008 10.333 -1 15s-1 9.66699 -1 15c0 22 5.16699 35 15.5 39
s24.166 6 41.499 6s27.833 -2.5 31.5 -7.5s5.5 -15.167 5.5 -30.5c0 -28 -0.666992 -55.833 -2 -83.5s-2 -55.834 -2 -84.501v-80v-18c16.667 0 33.167 -0.666992 49.5 -2s32.833 -2 49.5 -2h6z" />
    <glyph glyph-name="I" unicode="I" horiz-adv-x="173" 
d="M132 632c0 -15.333 -0.833008 -30.6709 -2.5 -46.0039s-2.5 -30.666 -2.5 -45.999v-59c0 -26.667 -1.16699 -53 -3.5 -79s-3.5 -52.333 -3.5 -79c0 -22.667 0.666992 -45 2 -67s2 -44.333 2 -67c0 -10.667 -0.333008 -21.334 -1 -32.001s-1 -21.667 -1 -33
s0.333008 -22.666 1 -33.999s1 -22.666 1 -33.999c0 -6 -0.166992 -12 -0.5 -18s-1.5 -12.333 -3.5 -19c-10 -7.33301 -22.5 -11.833 -37.5 -13.5s-28.5 -2.83398 -40.5 -3.50098c-7.33301 6.66699 -12.5 14.334 -15.5 23.001s-4.5 17.667 -4.5 27
c0 44 1.66699 87.333 5 130s5 86 5 130c0 50.667 -1.5 101.334 -4.5 152.001s-4.5 101 -4.5 151c0 20.667 4.66699 33.334 14 38.001s21.333 7 36 7h21.5c7 0 13.333 -0.666992 19 -2s10.167 -4 13.5 -8s5 -10 5 -18z" />
    <glyph glyph-name="J" unicode="J" horiz-adv-x="393" 
d="M349 650c2 -4 3.16113 -7.66309 3.49414 -10.9961s0.5 -7.33301 0.5 -12c0 -22 -0.833008 -44.333 -2.5 -67s-3.16699 -45.334 -4.5 -68.001c-1.33301 -24.667 -1.66602 -49.334 -0.999023 -74.001s-0.666016 -49.334 -3.99902 -74.001
c-1.33301 -13.333 -2.33301 -26.333 -3 -39l-2 -39c-0.666992 -15.333 -1 -31.833 -1 -49.5s-0.833008 -35.5 -2.5 -53.5s-4.33398 -35.5 -8.00098 -52.5s-9.5 -32.5 -17.5 -46.5c-11.333 -18.667 -27.333 -34 -48 -46s-41.667 -18 -63 -18c-11.333 0 -23 1.5 -35 4.5
s-23.5 7.16699 -34.5 12.5s-21.333 11.833 -31 19.5s-17.5 16.167 -23.5 25.5c-13.333 20.667 -21.5 43.334 -24.5 68.001s-5.16699 48.667 -6.5 72c-1.33301 19.333 -2.33301 38.333 -3 57s-1 37.334 -1 56.001c0 6 1.33301 10.333 4 13s6 4.33398 10 5.00098
s8.5 0.833984 13.5 0.500977s9.83301 -0.5 14.5 -0.5h17.5c6.33301 0 12.5 -0.666992 18.5 -2l7 -7c2.66699 -17.333 3.83398 -35.5 3.50098 -54.5s-0.166016 -38 0.500977 -57s3 -37.333 7 -55s11.333 -33.5 22 -47.5h-1c6.66699 -8 14.667 -12 24 -12
c10.667 0 19.334 2.33301 26.001 7s12.334 10.5 17.001 17.5s8.33398 14.833 11.001 23.5l8 25l-1 -1c3.33301 15.333 6 29.666 8 42.999s3 27.666 3 42.999c0 53.333 -1.5 107.666 -4.5 162.999s-4.5 110.666 -4.5 165.999c0 11.333 0.166992 22 0.5 32s2 18.667 5 26
s8.33301 13.166 16 17.499s18.5 6.5 32.5 6.5c10.667 0 20.5 -1 29.5 -3s17.167 -6.66699 24.5 -14z" />
    <glyph glyph-name="K" unicode="K" horiz-adv-x="383" 
d="M124 462l62.9932 77.9971l60 81c6.66699 6.66699 12 12.334 16 17.001s7.83301 8.16699 11.5 10.5s7.83398 4 12.501 5s11.334 1.5 20.001 1.5c9.33301 0 17.833 -1.83301 25.5 -5.5s11.5 -11.167 11.5 -22.5c0 -7.33301 -5.16699 -19 -15.5 -35s-22.333 -33 -36 -51
l-40 -51.5l-27.5 -34.5c-4.66699 -6.66699 -10.5 -14 -17.5 -22s-12.167 -15.667 -15.5 -23l56.5 -132l52.5 -134v1c2 -5.33301 5.5 -13.833 10.5 -25.5s9.83301 -23.834 14.5 -36.501s8.83398 -24.5 12.501 -35.5s5.5 -18.833 5.5 -23.5v-4c-2 -3.33301 -5.33301 -6 -10 -8
s-9.66699 -3.66699 -15 -5s-10.666 -2.33301 -15.999 -3s-9.66602 -1 -12.999 -1c-4.66699 0 -11.667 0.5 -21 1.5s-15.666 3.16699 -18.999 6.5c-2.66699 2 -7 10.5 -13 25.5l-21.5 54.5l-26 69l-25 71l-20.5 60c-6 17.333 -10 29.333 -12 36l-4 -4
c0 -52.667 -1.33301 -105 -4 -157s-4 -104.667 -4 -158c-14 -4.66699 -27.167 -7.16699 -39.5 -7.5s-25.5 -0.5 -39.5 -0.5c-4 11.333 -6.66699 29 -8 53s-2 48.333 -2 73c0 82 0.5 160.667 1.5 236s1.5 153 1.5 233c0 10 0.833008 20 2.5 30s4.83398 19.667 9.50098 29
c7.33301 0 14.833 0.5 22.5 1.5s15.167 1.5 22.5 1.5c11.333 0 19.666 -2.16699 24.999 -6.5s8.83301 -9.66602 10.5 -15.999s2.33398 -13.5 2.00098 -21.5s-0.5 -15.667 -0.5 -23c0 -21.333 -0.666992 -42.666 -2 -63.999s-2 -42.666 -2 -63.999z" />
    <glyph glyph-name="L" unicode="L" horiz-adv-x="315" 
d="M272 79c2.66699 -7.33301 4.83398 -14.833 6.50098 -22.5s2.5 -15.167 2.5 -22.5v-4c-0.666992 -8 -5.16699 -13.833 -13.5 -17.5s-19 -6.16699 -32 -7.5s-28 -2 -45 -2h-53.5c-11.333 0 -22 -0.333008 -32 -1s-19 -0.333984 -27 0.999023s-14.667 4 -20 8
s-9 10.667 -11 20h1c-3.33301 10 -5.83301 29.5 -7.5 58.5s-3 62 -4 99s-1.66699 74.833 -2 113.5s-0.5 72.667 -0.5 102c0 22 0.333008 40 1 54s1.5 26.167 2.5 36.5l3 30c1 9.66699 1.5 21.167 1.5 34.5c0 6 -0.166992 12 -0.5 18s-0.5 12.667 -0.5 20
c0 11.333 2 21.166 6 29.499s12.667 12.5 26 12.5c8 0 15.833 -0.5 23.5 -1.5s14.167 -3.5 19.5 -7.5s9.66602 -9.66699 12.999 -17s5 -17.333 5 -30c0 -11.333 -0.833008 -23 -2.5 -35s-2.5 -23.667 -2.5 -35c0 -17.333 0.5 -34.166 1.5 -50.499s1.5 -33.166 1.5 -50.499
v-25.5c0 -8.33301 -0.333008 -16.833 -1 -25.5v1c-0.666992 -23.333 -1.16699 -46.666 -1.5 -69.999s-0.5 -46.666 -0.5 -69.999v-65.5c0 -23.667 1.66699 -44.167 5 -61.5c8.66699 -2.66699 18.5 -4.33398 29.5 -5.00098s22.667 -1.33398 35 -2.00098
s24.833 -1.66699 37.5 -3s24.667 -3.33301 36 -6z" />
    <glyph glyph-name="M" unicode="M" horiz-adv-x="429" 
d="M355 650c4.66699 0 9.16895 -0.828125 13.502 -2.49512s8.16602 -3.83398 11.499 -6.50098c0 -95.333 1.5 -190.5 4.5 -285.5s4.5 -190.833 4.5 -287.5c0 -10 -0.333008 -20.167 -1 -30.5s-2 -20.166 -4 -29.499c-7.33301 -3.33301 -15.166 -5.5 -23.499 -6.5
s-16.5 -1.5 -24.5 -1.5c-20.667 0 -33.834 3.83301 -39.501 11.5s-8.5 17.834 -8.5 30.501c0 6 0.333008 12.5 1 19.5s1 14.167 1 21.5c0 36.667 -0.333008 73 -1 109l-2 109c-4.66699 -13.333 -8.83398 -27.5 -12.501 -42.5s-8 -28.667 -13 -41
s-10.833 -22.666 -17.5 -30.999s-15 -12.5 -25 -12.5c-5.33301 0 -10.333 0.333008 -15 1s-9.66699 1 -15 1h-7c-11.333 19.333 -20.666 40.666 -27.999 63.999s-15.333 45.666 -24 66.999c1.33301 -28 2.33301 -55.667 3 -83s1 -55 1 -83v-31.5
c0 -11.667 -0.333008 -23.834 -1 -36.501s-1.66699 -24.834 -3 -36.501s-3.33301 -21.5 -6 -29.5c-10 -4 -21 -6 -33 -6c-20.667 0 -40 5 -58 15c-0.666992 13.333 -1 23.166 -1 29.499v23.5v40.5v82.5v88.5c0 32.333 0.333008 65 1 98s1.5 65.167 2.5 96.5
s2.16699 59.5 3.5 84.5s3 45.667 5 62s4.66699 25.833 8 28.5c7.33301 1.33301 14 3.16602 20 5.49902s12.667 3.5 20 3.5c10 0 20.167 -10.5 30.5 -31.5s20.333 -46.167 30 -75.5s19.167 -60 28.5 -92s18 -59 26 -81l68 199c3.33301 9.33301 6.5 19.5 9.5 30.5
s7.16699 20.833 12.5 29.5l6 4c9.33301 1.33301 17.666 2.66602 24.999 3.99902c6.66699 1.33301 12.5 2.33301 17.5 3s8.16699 1 9.5 1z" />
    <glyph glyph-name="N" unicode="N" horiz-adv-x="406" 
d="M149 351c0 -12 -0.500977 -24 -1.50098 -36s-2.16699 -24 -3.5 -36c-3.33301 -36.667 -6 -73.834 -8 -111.501s-3 -73.5 -3 -107.5c0 -6.66699 0.166992 -13.167 0.5 -19.5s0.833008 -12.5 1.5 -18.5c-2 -5.33301 -5 -9.5 -9 -12.5s-8.66699 -5.16699 -14 -6.5
s-11 -2.16602 -17 -2.49902s-11.667 -0.5 -17 -0.5c-12.667 0 -22.5 1.5 -29.5 4.5s-12.833 10.167 -17.5 21.5c2 4 3.66699 14.667 5 32s2.33301 36.333 3 57s1.16699 40.334 1.5 59.001s0.5 31.334 0.5 38.001c0 67.333 1.66699 134.333 5 201s5 133.334 5 200.001
c0 11.333 1.83301 20.166 5.5 26.499s8.5 11 14.5 14s12.5 4.83301 19.5 5.5s13.833 1 20.5 1h25c6 -6.66699 12 -19.167 18 -37.5s12 -38.333 18 -60l18 -65c6 -21.667 12 -39.167 18 -52.5c10 -23.333 19.167 -46.5 27.5 -69.5s18.166 -45.833 29.499 -68.5
c0 10 -0.333008 19.833 -1 29.5s-1 19.5 -1 29.5c0 40.667 2.16699 81 6.5 121s6.5 80.333 6.5 121c0 5.33301 -0.666992 10.833 -2 16.5s-2 11.5 -2 17.5c0 10 2.66699 21 8 33c7.33301 -2 16.833 -3 28.5 -3s23 -0.833008 34 -2.5s20.5 -4.66699 28.5 -9
s12 -11.833 12 -22.5c0 -10 -0.666992 -20.333 -2 -31s-2.33301 -21.334 -3 -32.001c-3.33301 -77.333 -7.16602 -154.5 -11.499 -231.5s-7.16602 -156.833 -8.49902 -239.5v-39c0 -28 -4 -46.5 -12 -55.5s-21.667 -13.5 -41 -13.5c-7.33301 0 -15 0.666992 -23 2
s-14.667 4.66602 -20 9.99902c-1.33301 1.33301 -4.5 9 -9.5 23l-18.5 51.5l-23.5 66.5l-23 68l-18.5 56c-5.33301 16 -8.33301 26.333 -9 31z" />
    <glyph glyph-name="O" unicode="O" horiz-adv-x="383" 
d="M344 461c0 -52 -0.334961 -104.166 -1.00195 -156.499s-1 -104.5 -1 -156.5c0 -16.667 -1.5 -34.334 -4.5 -53.001s-11.167 -34 -24.5 -46h1l-4 -3c-11.333 -8 -20.333 -14.833 -27 -20.5s-13.5 -10.334 -20.5 -14.001s-15.167 -6.5 -24.5 -8.5s-22 -3 -38 -3
c-19.333 0 -37.166 3 -53.499 9s-32.166 15 -47.499 27l1 -1c-9.33301 7.33301 -16.666 15.5 -21.999 24.5s-10 18.833 -14 29.5l1 -1l-3 7c-6 15.333 -11 33 -15 53s-7 40.833 -9 62.5s-3.66699 43.667 -5 66s-2 43.333 -2 63v53.5v38c0 73.333 14.833 129.833 44.5 169.5
s73.167 59.5 130.5 59.5c18 0 36 -5.66699 54 -17s32.667 -23.666 44 -36.999h-1c9.33301 -8 16.666 -18 21.999 -30s9.5 -24.5 12.5 -37.5s4.83301 -26.167 5.5 -39.5s1 -26 1 -38zM170.998 108.001c5.33301 -4 11.501 -6.83105 18.501 -8.49805s13.5 -2.5 19.5 -2.5
c5.33301 0 10.666 0.666992 15.999 2s9.33301 4.66602 12 9.99902c2.66699 6 5.33398 18.333 8.00098 37s5 38.667 7 60s3.66699 41.833 5 61.5s2 33.834 2 42.501c0 15.333 -0.5 30.666 -1.5 45.999s-1.5 30.666 -1.5 45.999c0 10 0.333008 19.833 1 29.5s1 19.5 1 29.5
c0 9.33301 -0.666992 19.5 -2 30.5s-4 21.167 -8 30.5s-9.66699 17 -17 23s-17 9 -29 9c-18.667 0 -32.667 -8.16699 -42 -24.5s-16 -36 -20 -59s-6 -46.667 -6 -71v-61.5c0 -19.333 0.833008 -38 2.5 -56s2.5 -36.333 2.5 -55c0 -9.33301 0.333008 -19.5 1 -30.5
s2 -22 4 -33s5.16699 -21.5 9.5 -31.5s10.166 -18.333 17.499 -25v1z" />
    <glyph glyph-name="P" unicode="P" horiz-adv-x="367" 
d="M124 236c-0.666992 -4 -1.00098 -8.00293 -1.00098 -12.0029v-11c0 -12 0.333008 -23.667 1 -35s1 -22.666 1 -33.999c0 -39.333 -1 -78.333 -3 -117c-0.666992 -12 -4 -19.167 -10 -21.5s-17.667 -3.5 -35 -3.5c-11.333 0 -21.666 1.5 -30.999 4.5s-14 11.167 -14 24.5
c0 77.333 2.16699 154.333 6.5 231s6.5 153.667 6.5 231c0 18.667 -0.333008 37.334 -1 56.001s-1 37.334 -1 56.001c0 15.333 3.33301 27 10 35s15.5 13.667 26.5 17s23.667 5 38 5h45.5c40 0 71.167 -7 93.5 -21s38.666 -32.667 48.999 -56s16.666 -50.333 18.999 -81
s3.5 -63 3.5 -97c0 -22 -1.16699 -43.5 -3.5 -64.5s-8.16602 -39.667 -17.499 -56s-23 -29.5 -41 -39.5s-42.333 -15 -73 -15c-11.333 0 -22.666 0.666992 -33.999 2s-23 2 -35 2zM241.999 433.997c0 9.33301 -0.332031 20.333 -0.999023 33
s-1.83398 24.834 -3.50098 36.501s-3.66699 22.167 -6 31.5s-4.83301 15.333 -7.5 18h1c-9.33301 7.33301 -20 12.166 -32 14.499s-23.333 3.5 -34 3.5c-5.33301 0 -11 -0.333008 -17 -1s-11.667 -1.33398 -17 -2.00098c0.666992 -18.667 1.16699 -37 1.5 -55
s0.5 -36 0.5 -54c0 -24.667 -0.166992 -49 -0.5 -73s-0.5 -47.667 -0.5 -71h9h17c6.66699 0 13.5 0.166992 20.5 0.5s13.667 1 20 2s11.5 2.5 15.5 4.5c6.66699 3.33301 12.167 9.83301 16.5 19.5s7.83301 20.334 10.5 32.001s4.5 23 5.5 34s1.5 19.833 1.5 26.5z" />
    <glyph glyph-name="Q" unicode="Q" horiz-adv-x="407" 
d="M344 71l3.99219 -2.99902l-2 1c5.33301 -4.66699 10.166 -9.5 14.499 -14.5s6.5 -11.167 6.5 -18.5c0 -1.33301 -2.16699 -5 -6.5 -11s-9.66602 -12.167 -15.999 -18.5s-13.166 -12 -20.499 -17s-13.666 -7.5 -18.999 -7.5c-9.33301 0 -16.833 3.16699 -22.5 9.5
s-11.167 12.833 -16.5 19.5v-2l-3 7l-2 -1c-8 -4.66699 -19.333 -8.16699 -34 -10.5s-26.667 -3.5 -36 -3.5c-30 0 -55.167 6.66699 -75.5 20s-36.666 30.833 -48.999 52.5s-21.166 46.5 -26.499 74.5s-8 56.667 -8 86v16c0 5.33301 0.333008 10.666 1 15.999
c2 22.667 3.33301 46.167 4 70.5s1.5 48.333 2.5 72s2.66699 47 5 70s6.16602 45.167 11.499 66.5c4 18 11.333 34.667 22 50s23.334 28.5 38.001 39.5s30.834 19.667 48.501 26s35.167 9.5 52.5 9.5c24.667 0 45.334 -5.83301 62.001 -17.5s30.334 -27.334 41.001 -47.001
s18.334 -42.667 23.001 -69s7 -54.166 7 -83.499v-128c0 -10.667 -0.833008 -27 -2.5 -49s-4 -44.833 -7 -68.5s-6.33301 -46 -10 -67s-7.16699 -35.833 -10.5 -44.5zM192.992 100.001c-2.66699 5.33301 -7.33008 11.001 -13.9971 17.001s-10 12.333 -10 19
c8 12.667 17.5 25 28.5 37s20.167 18 27.5 18c4.66699 0 8.66699 -1.33301 12 -4s6.66602 -5.66699 9.99902 -9c7.33301 42 11.666 83.5 12.999 124.5s2 83.5 2 127.5c0 14.667 -0.666992 30.167 -2 46.5s-4.33301 31.333 -9 45s-11.334 24.834 -20.001 33.501
s-20 13 -34 13c-13.333 0 -24 -6 -32 -18s-14.167 -26.167 -18.5 -42.5s-7.5 -32.833 -9.5 -49.5s-3 -29.334 -3 -38.001l-4 -93c-1.33301 -30.667 -2 -61.667 -2 -93c0 -8 0.166992 -17 0.5 -27s1.33301 -20.333 3 -31s3.66699 -20.834 6 -30.501s5.5 -17.834 9.5 -24.501
v1c6 -9.33301 12.833 -14.666 20.5 -15.999s16.167 -3.33301 25.5 -6h3h-1h-2z" />
    <glyph glyph-name="R" unicode="R" horiz-adv-x="372" 
d="M106 13c-2 -0.666992 -5.00098 -1.00781 -9.00098 -1.00781c-5.33301 0 -9.33301 0.666992 -12 2l4 -2h-5c-9.33301 0 -19.333 0.833008 -30 2.5s-17.334 8.16699 -20.001 19.5v-1c-1.33301 6 -2.16602 14.333 -2.49902 25s-0.5 22 -0.5 34c0 14.667 0.166992 29 0.5 43
s0.5 25 0.5 33v54c0 27.333 0.333008 58.833 1 94.5s1.5 73.167 2.5 112.5s2.16699 75.833 3.5 109.5s3.33301 62.167 6 85.5s5.66699 36.666 9 39.999c2.66699 2.66699 8 4.83398 16 6.50098s16.5 3 25.5 4s17.5 1.66699 25.5 2s14 0.5 18 0.5c10 0 22 -0.5 36 -1.5
s28 -3 42 -6s27.333 -7 40 -12s22.667 -11.5 30 -19.5c8.66699 -9.33301 16.167 -24.166 22.5 -44.499s11.166 -42.166 14.499 -65.499s5.83301 -46.166 7.5 -68.499s2.5 -40.166 2.5 -53.499c0 -24.667 -2.66699 -49.334 -8 -74.001s-17.333 -45.667 -36 -63
c4 -6.66699 8.16699 -13.167 12.5 -19.5s8.16602 -12.833 11.499 -19.5c4 -9.33301 7 -23 9 -41s3.5 -37.167 4.5 -57.5s1.66699 -40.166 2 -59.499s0.5 -34.333 0.5 -45v-15c-11.333 -8 -24.666 -12 -39.999 -12c-11.333 0 -21.166 0.166992 -29.499 0.5
s-15.166 2 -20.499 5s-9.33301 8.16699 -12 15.5s-4 18.333 -4 33c0 12.667 0.5 25.334 1.5 38.001s1.5 25.334 1.5 38.001c0 10.667 0.166992 22 0.5 34s-1 23.167 -4 33.5s-8.33301 19 -16 26s-19.167 10.5 -34.5 10.5c-13.333 0 -27.666 -1.66699 -42.999 -5
c0 -9.33301 -0.333008 -24.666 -1 -45.999s-1.83398 -43.666 -3.50098 -66.999s-4.16699 -45 -7.5 -65s-7.33301 -32.667 -12 -38zM152.999 582.992l-12.001 0.000976562c-4 0 -8 -0.666992 -12 -2c0 -25.333 -0.333008 -50.333 -1 -75s-1 -49.334 -1 -74.001v-54
c0 -8.66699 0.166992 -17.167 0.5 -25.5s0.833008 -17.166 1.5 -26.499h35c8.66699 0 17.667 0.5 27 1.5s18 3.16699 26 6.5s14.667 8.16602 20 14.499s8.33301 15.166 9 26.499l-1 -1c0 26 -0.333008 52.333 -1 79s-2.66699 52.667 -6 78
c-2 10.667 -5.66699 19.334 -11 26.001s-12 12 -20 16s-16.667 6.66699 -26 8s-18.666 2 -27.999 2z" />
    <glyph glyph-name="S" unicode="S" horiz-adv-x="398" 
d="M364 204c2 -11.333 3.00391 -22.3281 3.00391 -32.9951c0 -29.333 -4.5 -54.833 -13.5 -76.5s-21.167 -39.667 -36.5 -54s-33.333 -25 -54 -32s-42.334 -10.5 -65.001 -10.5c-18.667 0 -37.167 3.66699 -55.5 11s-34.666 17.5 -48.999 30.5s-25.833 28.167 -34.5 45.5
s-13 36 -13 56c0 10 1.66699 17.667 5 23s7.66602 9.33301 12.999 12s11.5 4.33398 18.5 5.00098s14.5 1 22.5 1c15.333 0 30 -4 44 -12c0 -8 1.16699 -16.333 3.5 -25s5.83301 -16.834 10.5 -24.501s10.5 -13.834 17.5 -18.501s15.167 -7 24.5 -7
c17.333 0 31.666 5.83301 42.999 17.5s17 26.167 17 43.5c0 16 -5 32.833 -15 50.5s-22.167 35 -36.5 52s-29.5 32.833 -45.5 47.5s-29.667 26.667 -41 36l1 -1c-15.333 12 -28.5 23.667 -39.5 35s-20 23.333 -27 36s-12.333 26.5 -16 41.5s-5.5 32.5 -5.5 52.5
c0 23.333 4 45 12 65s19 37.167 33 51.5s31 25.666 51 33.999s42 12.5 66 12.5c11.333 0 23.166 -1.5 35.499 -4.5s24.166 -7.16699 35.499 -12.5s21.5 -12.166 30.5 -20.499s16.167 -17.833 21.5 -28.5l18.5 -39c7 -14.667 10.5 -28.334 10.5 -41.001
c0 -7.33301 -2.5 -13.333 -7.5 -18s-11 -8.33398 -18 -11.001s-14.333 -4.33398 -22 -5.00098s-14.5 -1 -20.5 -1c-10.667 0 -18.667 2.16699 -24 6.5s-9.33301 9.5 -12 15.5s-4.83398 12.833 -6.50098 20.5s-4.5 14.5 -8.5 20.5s-9.83301 11.167 -17.5 15.5
s-18.5 6.5 -32.5 6.5c-5.33301 0 -11 -2.16699 -17 -6.5s-10.667 -8.5 -14 -12.5h1c-7.33301 -8 -13 -17 -17 -27s-6 -20.333 -6 -31c0 -3.33301 0.666992 -8.33301 2 -15c2 -10.667 8.5 -22.334 19.5 -35.001s24.167 -26 39.5 -40l50 -44
c18 -15.333 35.167 -31.5 51.5 -48.5s30.833 -34.833 43.5 -53.5s21.334 -37.667 26.001 -57v1z" />
    <glyph glyph-name="T" unicode="T" horiz-adv-x="346" 
d="M90 594c-3.33301 0 -7.00293 -0.337891 -11.0029 -1.00488s-8.33301 -1 -13 -1c-13.333 0 -24.666 5.33301 -33.999 16c0.666992 2.66699 1 6.66699 1 12c0 3.33301 -0.166992 7 -0.5 11s-0.5 8 -0.5 12c0 7.33301 1.16699 14.833 3.5 22.5s7.5 12.834 15.5 15.501h-1
c3.33301 1.33301 7 2.33301 11 3s7.66699 1 11 1c11.333 0 22.166 -0.666992 32.499 -2s20.833 -2 31.5 -2c16.667 0 33.334 0.166992 50.001 0.5s33.334 0.5 50.001 0.5c9.33301 0 18.166 1 26.499 3s16.833 3 25.5 3c9.33301 0 14.833 -4.33301 16.5 -13
s2.5 -16.334 2.5 -23.001c0 -17.333 -1.16699 -30 -3.5 -38s-6.5 -13.5 -12.5 -16.5s-14 -4.83301 -24 -5.5s-22.333 -2 -37 -4c-3.33301 -64.667 -6 -129 -8 -193s-3 -128.333 -3 -193c0 -10 0.333008 -20 1 -30s1 -20 1 -30c0 -23.333 -0.5 -46.666 -1.5 -69.999
s-2.16699 -46.666 -3.5 -69.999c-5.33301 -0.666992 -10.666 -1.16699 -15.999 -1.5s-10.666 -0.5 -15.999 -0.5c-10 0 -20 0.666992 -30 2s-20 2 -30 2c-2 12 -3 24 -3 36c0 13.333 0.666992 27 2 41s2 27.667 2 41c0 6.66699 -0.166992 13.334 -0.5 20.001
s-0.5 13.334 -0.5 20.001c2 34 3.33301 61.833 4 83.5s1 39.834 1 54.501c0 23.333 -0.333008 45 -1 65l-2 58l-2 55.5c-0.666992 18.333 -1 37.833 -1 58.5v28.5c0 9.66699 0.666992 19.167 2 28.5h-35z" />
    <glyph glyph-name="U" unicode="U" horiz-adv-x="410" 
d="M350 655c3.33301 -9.33301 5.17188 -21.167 5.50488 -35.5s1.16602 -27.166 2.49902 -38.499c4 -47.333 6.83301 -94.333 8.5 -141s2.5 -93.667 2.5 -141c0 -22 -0.666992 -46.167 -2 -72.5s-4.83301 -52 -10.5 -77s-14.334 -48.333 -26.001 -70
s-27.834 -39.167 -48.501 -52.5v1c-15.333 -10 -32.166 -17.167 -50.499 -21.5s-36.5 -6.5 -54.5 -6.5c-14 0 -28.5 3.83301 -43.5 11.5s-29 17.5 -42 29.5s-23.667 25.333 -32 40s-12.5 29.334 -12.5 44.001v6c-5.33301 32 -9.33301 64.333 -12 97s-4 65.334 -4 98.001
c0 40 1.16699 79.5 3.5 118.5s3.5 78.5 3.5 118.5v40c0 4 -0.666992 8.16699 -2 12.5s-2 8.5 -2 12.5c0 15.333 4.5 24.833 13.5 28.5s19.833 5.5 32.5 5.5c8.66699 0 17.334 -1 26.001 -3s17 -4.33301 25 -7c0.666992 -5.33301 1.16699 -11 1.5 -17s0.5 -11.667 0.5 -17
c0 -38.667 -2 -77 -6 -115s-6 -77 -6 -117c0 -8 0.166992 -19 0.5 -33s1 -29.833 2 -47.5s2.16699 -35.834 3.5 -54.501s2.83301 -36.5 4.5 -53.5s3.66699 -32 6 -45s5.16602 -22.167 8.49902 -27.5c5.33301 -10 12.666 -17.333 21.999 -22s19.666 -7 30.999 -7
c14 0 25.667 2.83301 35 8.5s16.833 13.167 22.5 22.5s9.66699 19.666 12 30.999s3.5 23 3.5 35c0 56.667 -1.16699 113.167 -3.5 169.5s-4.5 112.833 -6.5 169.5c-0.666992 16 -2 32.167 -4 48.5s-3 32.166 -3 47.499c0 10.667 2.66699 19.5 8 26.5
s16.666 10.5 33.999 10.5c13.333 0 31 -3.33301 53 -10z" />
    <glyph glyph-name="V" unicode="V" horiz-adv-x="398" 
d="M135 183c-5.33301 26.667 -12.168 52.6641 -20.501 77.9971s-15.833 51 -22.5 77c-10.667 40 -19.5 80.167 -26.5 120.5s-13.5 80.5 -19.5 120.5l-9 88c12.667 0 25 1.33301 37 4s24 4 36 4l10 -1c3.33301 -3.33301 5.83301 -8.16602 7.5 -14.499s3 -13.166 4 -20.499
s1.66699 -14.333 2 -21s0.833008 -12.334 1.5 -17.001c2.66699 -33.333 7.33398 -67.333 14.001 -102l20 -101l11.5 -63.5c3.66699 -21 8.16699 -42.167 13.5 -63.5c7.33301 62.667 16.833 122.5 28.5 179.5s22.5 114.833 32.5 173.5c1.33301 9.33301 3 17.833 5 25.5
s6 15.834 12 24.501c2 -0.666992 4.16699 -1 6.5 -1h6.5c6.66699 0 13.167 0.333008 19.5 1s13.166 1 20.499 1c9.33301 0 17 -1.16699 23 -3.5s9 -10.5 9 -24.5c0 -9.33301 -1.66699 -18.666 -5 -27.999s-6.33301 -18.333 -9 -27v1
c-12.667 -60.667 -23.834 -121 -33.501 -181l-30.5 -181l-18.5 -124.5l-10 -67c-2.33301 -15 -4.16602 -24.667 -5.49902 -29s-2.33301 -7.5 -3 -9.5h-6c-9.33301 0 -19 0.333008 -29 1s-19.667 1.66699 -29 3c-11.333 28.667 -19.166 58 -23.499 88s-10.5 60 -18.5 90h-1z
" />
    <glyph glyph-name="W" unicode="W" horiz-adv-x="628" 
d="M414 0c-6 0 -12.168 0.49707 -18.501 1.49707s-12.166 2.83301 -17.499 5.5c-2 2.66699 -4.66699 11.5 -8 26.5l-12 55c-4.66699 21.667 -9.33398 45 -14.001 70l-13.5 71.5l-11 59.5c-3 17 -4.83301 28.167 -5.5 33.5l-28.5 -145.5
c-9.66699 -48.333 -18.167 -96.833 -25.5 -145.5c-1.33301 -8.66699 -3.66602 -14.834 -6.99902 -18.501s-9 -6.5 -17 -8.5l1 1c-4.66699 -1.33301 -9.16699 -2.16602 -13.5 -2.49902s-8.83301 -0.5 -13.5 -0.5c-3.33301 0 -7.5 0.166992 -12.5 0.5
s-9.5 1.16602 -13.5 2.49902c-3.33301 0.666992 -7.83301 8.66699 -13.5 24s-12.167 34.333 -19.5 57s-14.666 47.5 -21.999 74.5l-21 77.5c-6.66699 24.667 -12.334 46.5 -17.001 65.5s-7.66699 31.833 -9 38.5c-6.66699 32.667 -12.5 65.667 -17.5 99l-15.5 100l-4.5 23
c-1.66699 8.66699 -3.16699 17.667 -4.5 27l-4 27c-1.33301 8.66699 -2 16.334 -2 23.001c0 2 2.66699 3.5 8 4.5s11.5 1.83301 18.5 2.5s13.833 1 20.5 1h13h27.5c9 0 18.167 -0.666992 27.5 -2c2 -16 3 -32 3 -48s0.666992 -31.667 2 -47c1.33301 -12 3.33301 -24 6 -36
l8 -36l28 -145c2.66699 -13.333 4.83398 -26.666 6.50098 -39.999s3.16699 -26.666 4.5 -39.999c2 6.66699 4.33301 18.834 7 36.501l9.5 60.5l11.5 71c4 24.667 8 47.5 12 68.5s7.66699 38.667 11 53s6 22.5 8 24.5c4 3.33301 9 5.5 15 6.5s11.333 1.5 16 1.5
c7.33301 0 15.833 -0.833008 25.5 -2.5s17.167 -4.83398 22.5 -9.50098c2.66699 -2 6.33398 -11.167 11.001 -27.5s9.5 -36.5 14.5 -60.5l15.5 -78l15 -80c4.66699 -25.333 8.33398 -47.666 11.001 -66.999s4.33398 -32 5.00098 -38c6.66699 37.333 11 76.166 13 116.499
s5.66699 80.166 11 119.499c0.666992 4 1.66699 12.167 3 24.5s3.16602 26.5 5.49902 42.5l7.5 50.5c2.66699 17.667 5.5 34 8.5 49s6.16699 27.833 9.5 38.5s6.33301 16.667 9 18c3.33301 -0.666992 6.16602 -1.16699 8.49902 -1.5s5.16602 -0.5 8.49902 -0.5
c1.33301 0 2.5 0.166992 3.5 0.5s2.16699 0.5 3.5 0.5c7.33301 0 18.166 -2.33301 32.499 -7s25.166 -8.33398 32.499 -11.001c-4.66699 -43.333 -10 -86.666 -16 -129.999s-12.667 -86.333 -20 -129c-1.33301 -5.33301 -3.66602 -18.166 -6.99902 -38.499
s-7.5 -44.166 -12.5 -71.499l-15.5 -87.5l-15 -85.5l-12 -65.5c-3.33301 -17.667 -5.33301 -27.167 -6 -28.5c-5.33301 -8 -13.5 -13.167 -24.5 -15.5s-21.167 -3.5 -30.5 -3.5z" />
    <glyph glyph-name="X" unicode="X" horiz-adv-x="401" 
d="M360 648c1.33301 -5.33301 2.00195 -9.00098 2.00195 -11.001c0 -8 -2.66699 -15.333 -8 -22l1 1l-12.5 -36l-22.5 -63l-27 -75.5l-26 -73l-19.5 -56c-5 -15 -7.5 -22.833 -7.5 -23.5c0 -1.33301 1.16699 -5 3.5 -11l7.5 -19.5l7.5 -19.5c2.33301 -6 3.83301 -10 4.5 -12
c2 -4.66699 5.16699 -12.834 9.5 -24.501l14.5 -39c5.33301 -14.333 10.666 -29.666 15.999 -45.999l15 -46c4.66699 -14.333 8.5 -26.833 11.5 -37.5s4.5 -18 4.5 -22v-1c-9.33301 -6 -19.333 -9.5 -30 -10.5s-21.334 -1.5 -32.001 -1.5c-8 0 -16 1 -24 3
c-10.667 25.333 -20.834 51.333 -30.501 78l-28.5 80l-25.5 -78.5c-9 -27 -20.167 -52.167 -33.5 -75.5c-7.33301 -2.66699 -14.833 -4.16699 -22.5 -4.5s-15.167 -0.5 -22.5 -0.5c-10.667 0 -19.834 0.666992 -27.501 2s-11.5 7.66602 -11.5 18.999
c0 4 0.833008 10.333 2.5 19s4.16699 14 7.5 16c14 38.667 29.333 77 46 115s30.667 77 42 117l-54 173c-2.66699 8.66699 -7.16699 22.334 -13.5 41.001l-19 58c-6.33301 20 -12 39 -17 57s-7.5 31 -7.5 39v1c7.33301 3.33301 14.833 6.33301 22.5 9s15.5 4 23.5 4
c9.33301 0 17 -3.16699 23 -9.5s10.833 -14 14.5 -23s6.83398 -18.5 9.50098 -28.5l7 -26v1c9.33301 -27.333 19 -54.166 29 -80.499s19 -53.5 27 -81.5c15.333 38 28.5 76.5 39.5 115.5s25.167 77.167 42.5 114.5c12 6 24.667 9 38 9c7.33301 0 14.333 -0.166992 21 -0.5
s13.334 -1.5 20.001 -3.5z" />
    <glyph glyph-name="Y" unicode="Y" horiz-adv-x="388" 
d="M247 168c0 -20 0.172852 -39.6699 0.505859 -59.0029s0 -36.666 -1 -51.999s-3.16699 -27.666 -6.5 -36.999s-8.33301 -14 -15 -14c-2.66699 0 -5.33398 0.166992 -8.00098 0.5s-5.33398 0.5 -8.00098 0.5c-0.666992 0 -1.66699 -0.166992 -3 -0.5s-2.33301 -0.5 -3 -0.5
v1c-5.33301 -2 -11 -3 -17 -3c-9.33301 0 -14.833 7.83301 -16.5 23.5s-2.5 34.834 -2.5 57.501c0 12.667 0.166992 24.167 0.5 34.5s0.5 18.166 0.5 23.499v48.5c0 17 -0.666992 33.667 -2 50s-3.5 32.166 -6.5 47.499s-7.5 29 -13.5 41c-18.667 39.333 -34.5 80 -47.5 122
s-27.167 83.333 -42.5 124v-1c-2 4 -4.33301 9 -7 15l-8 18c-2.66699 6 -4.83398 11.5 -6.50098 16.5s-2.5 8.83301 -2.5 11.5c0 4.66699 3.33301 8.83398 10 12.501s14.334 6.66699 23.001 9s17.167 4.16602 25.5 5.49902s14.166 2 17.499 2c2 0 5.66699 -0.333008 11 -1
s8.66602 -2.66699 9.99902 -6c0.666992 -3.33301 2.66699 -10.666 6 -21.999l12 -40.5l15 -49.5l14.5 -48c4.33301 -14.667 8.16602 -27 11.499 -37s5.33301 -15.333 6 -16l9 25l13 38l14.5 44.5l14 44.5c4.33301 14 7.83301 26.333 10.5 37s4 18 4 22c6 10 14.333 15 25 15
h21.5c7.66699 0 14.667 -0.666992 21 -2s11.5 -3.5 15.5 -6.5s6 -7.83301 6 -14.5c0 -9.33301 -2 -20 -6 -32l-11 -32l1 2c-2 -7.33301 -5.5 -19 -10.5 -35l-17 -55l-19.5 -64.5l-18.5 -63c-5.66699 -19.667 -10.334 -37.167 -14.001 -52.5s-5.5 -25.666 -5.5 -30.999
c0 -6.66699 -0.166992 -13.167 -0.5 -19.5s-0.5 -12.833 -0.5 -19.5c0 -13.333 0.166992 -26.333 0.5 -39s0.5 -25.667 0.5 -39z" />
    <glyph glyph-name="Z" unicode="Z" horiz-adv-x="387" 
d="M350 646c-2.66699 -12 -6.16992 -25.3301 -10.5029 -39.9971s-9 -29.5 -14 -44.5l-15.5 -44.5c-5.33301 -14.667 -10.333 -27.667 -15 -39c-11.333 -28 -21.166 -56.333 -29.499 -85s-17.833 -57 -28.5 -85l-46 -112c-16 -37.333 -29.333 -75 -40 -113
c4.66699 -1.33301 9.33398 -2 14.001 -2h14c24 0 47.333 0.833008 70 2.5s45.667 2.5 69 2.5c8.66699 0 15.834 -1.66699 21.501 -5s8.5 -10 8.5 -20c0 -18 -2.66699 -31.5 -8 -40.5s-12.666 -15.333 -21.999 -19s-20.333 -5.66699 -33 -6s-26.334 -0.5 -41.001 -0.5
c-32 0 -62.833 0.333008 -92.5 1s-59.834 1 -90.501 1c-10 0 -17.333 1.83301 -22 5.5s-7 10.834 -7 21.501c0 13.333 2.83301 26.666 8.5 39.999s11.5 25.666 17.5 36.999l-1 -1c13.333 36.667 26 74.167 38 112.5l36.5 116c12.333 39 25.333 77.667 39 116
s29.167 75.5 46.5 111.5h-16c-18 0 -35.833 -1 -53.5 -3s-35.167 -3 -52.5 -3c-16.667 0 -28.167 3.16699 -34.5 9.5s-9.5 18.166 -9.5 35.499c0 6.66699 1 14 3 22s5.66699 14 11 18h-1c9.33301 5.33301 25.5 8.66602 48.5 9.99902s48.167 2 75.5 2
c28 0 54.833 -0.333008 80.5 -1s45.834 -1 60.501 -1c12.667 0 19.667 0.333008 21 1z" />
    <glyph glyph-name="bracketleft" unicode="[" horiz-adv-x="302" 
d="M256 646c1.33301 -5.33301 2.00293 -9.33594 2.00293 -12.0029c0 -11.333 -3.66699 -18.333 -11 -21s-15.666 -4 -24.999 -4c-7.33301 0 -14.333 0.333008 -21 1s-13.334 1 -20.001 1c-7.33301 0 -14.833 -0.333008 -22.5 -1s-15.167 -1 -22.5 -1
c7.33301 -80 10.833 -161.5 10.5 -244.5s-0.5 -164.833 -0.5 -245.5v-16c0 -5.33301 -0.333008 -10.666 -1 -15.999c7.33301 -1.33301 14.166 -2 20.499 -2h19.5c6 0 11.667 0.5 17 1.5s11 1.5 17 1.5c15.333 0 27 -4.83301 35 -14.5s12 -21.834 12 -36.501
c0 -16 -7 -27.667 -21 -35c-8 1.33301 -16 2.16602 -24 2.49902s-16 0.5 -24 0.5h-39h-37c-18 0 -32.5 0.5 -43.5 1.5s-19.333 3 -25 6s-9.33398 7.33301 -11.001 13s-2.5 13.5 -2.5 23.5c0 6.66699 0.166992 14.167 0.5 22.5s0.5 17.833 0.5 28.5
c0.666992 54 0.166992 107.333 -1.5 160s-2.5 106 -2.5 160c0 22.667 0.166992 45.334 0.5 68.001s0.5 45.334 0.5 68.001c0 15.333 -0.166992 30.5 -0.5 45.5s-0.833008 30.167 -1.5 45.5c-0.666992 5.33301 -1.66699 10.5 -3 15.5s-2 10.167 -2 15.5c0 14 4 22.5 12 25.5
s17.333 4.5 28 4.5c30 0 59.667 -0.833008 89 -2.5s59 -3.16699 89 -4.5c3.33301 -9.33301 5.16602 -18.666 5.49902 -27.999s1.5 -18.666 3.5 -27.999z" />
    <glyph glyph-name="backslash" unicode="\" horiz-adv-x="415" 
d="M378 -87c-5.33301 -0.666992 -10.833 -0.999023 -16.5 -0.999023h-17.5c-9.33301 0 -18.833 0.333008 -28.5 1s-19.167 1.66699 -28.5 3c-4 7.33301 -10.667 21.5 -20 42.5l-32.5 75.5l-41 97l-45 107l-43.5 105.5l-37.5 93c-11 27.667 -19.667 50.667 -26 69
s-9.5 29.5 -9.5 33.5c0 6.66699 1.83301 12 5.5 16s8.83398 7.16699 15.501 9.5s14.167 4.16602 22.5 5.49902s17.166 3 26.499 5c6 -1.33301 12.333 -7.33301 19 -18s13.167 -22.667 19.5 -36s12 -26.5 17 -39.5s8.5 -22.5 10.5 -28.5l21 -51l63.5 -158l62.5 -159l34 -85
c11.333 -28.667 21 -57.667 29 -87z" />
    <glyph glyph-name="bracketright" unicode="]" horiz-adv-x="306" 
d="M230 3c-3.33301 -0.666992 -6.49902 -1.00195 -9.49902 -1.00195h-9.5c-6 0 -12 0.166992 -18 0.5s-12.333 0.5 -19 0.5s-13.167 -0.333008 -19.5 -1s-13.166 -1 -20.499 -1c-13.333 0 -26.5 1 -39.5 3s-26.167 3.66699 -39.5 5
c-3.33301 6 -5.66602 12.833 -6.99902 20.5s-2 14.834 -2 21.501c0 15.333 4.16699 25.666 12.5 30.999s19.5 8 33.5 8c13.333 0 26.666 -0.833008 39.999 -2.5s26.666 -2.5 39.999 -2.5c0 45.333 1.5 90.333 4.5 135s4.5 89.334 4.5 134.001c0 44 -1.16699 87.333 -3.5 130
s-3.5 85.667 -3.5 129c-2.66699 -0.666992 -8.16699 -1.16699 -16.5 -1.5s-17.333 -0.5 -27 -0.5h-28.5h-20h-21c-6 0 -11.333 1 -16 3s-8.16699 5.33301 -10.5 10s-3.5 11.667 -3.5 21c0 20 2.16699 34.667 6.5 44s17.166 14 38.499 14c19.333 0 38.833 -0.5 58.5 -1.5
s39.167 -1.5 58.5 -1.5c4.66699 0 9.16699 0.166992 13.5 0.5s8.83301 0.5 13.5 0.5c16 0 28.167 -3 36.5 -9s12.5 -21.333 12.5 -46v-29c0 -28 0.166992 -55.667 0.5 -83s0.5 -54.666 0.5 -81.999c0 -24.667 -0.5 -49.334 -1.5 -74.001s-1.5 -49.334 -1.5 -74.001
c0 -4.66699 0.166992 -14.667 0.5 -30s0.5 -33.666 0.5 -54.999c0 -22 -0.5 -45.5 -1.5 -70.5s-2.83301 -48.167 -5.5 -69.5s-6.5 -39.166 -11.5 -53.499s-11.833 -21.833 -20.5 -22.5h1z" />
    <glyph glyph-name="asciicircum" unicode="^" horiz-adv-x="345" 
d="M268 540c-6 0 -13.665 2.66992 -22.998 8.00293s-19 11.5 -29 18.5s-19.667 14.167 -29 21.5s-17 12.666 -23 15.999c-2 -1.33301 -6.5 -5.5 -13.5 -12.5s-15 -14.333 -24 -22s-18.167 -14.667 -27.5 -21s-17 -9.5 -23 -9.5c-5.33301 0 -10.666 3 -15.999 9
s-10.5 12.667 -15.5 20s-9.33301 14.166 -13 20.499s-5.83398 10.166 -6.50098 11.499l68 51.5c22.667 17.667 46 34.167 70 49.5h2c10 0 21 -4 33 -12s24.667 -17.5 38 -28.5l40 -34.5c13.333 -12 26 -22 38 -30l-8 -12l-13 -19
c-4.66699 -6.66699 -9.33398 -12.5 -14.001 -17.5s-8.33398 -7.5 -11.001 -7.5z" />
    <glyph glyph-name="underscore" unicode="_" horiz-adv-x="496" 
d="M447 -31c-3.33301 -1.33301 -11.999 -2.50098 -25.999 -3.50098s-30.833 -1.83301 -50.5 -2.5s-40.834 -1 -63.501 -1s-44.334 -0.166992 -65.001 -0.5s-38.834 -0.5 -54.501 -0.5h-32.5c-4.66699 0 -10.667 -0.166992 -18 -0.5s-15.333 -0.5 -24 -0.5
c-17.333 0 -31.166 0.5 -41.499 1.5s-18.5 3.5 -24.5 7.5s-10 10 -12 18s-3 18.667 -3 32c0 16.667 4.5 27 13.5 31s17.833 6 26.5 6h7c38 1.33301 76 3.16602 114 5.49902s76 3.5 114 3.5c6.66699 0 13.5 -0.166992 20.5 -0.5s14.167 -0.833008 21.5 -1.5h2l24 -2
c4 0 9.5 -0.166992 16.5 -0.5s14.167 -0.833008 21.5 -1.5s14.333 -1.66699 21 -3s11.667 -3.33301 15 -6c0.666992 -9.33301 1.83398 -18.666 3.50098 -27.999s2.5 -18.666 2.5 -27.999c0 -4 -0.666992 -9.33301 -2 -16z" />
    <glyph glyph-name="grave" unicode="`" horiz-adv-x="155" 
d="M88 675c8.66699 0 15.333 -3.99902 20 -11.999s8.16699 -17 10.5 -27s3.66602 -19.833 3.99902 -29.5s0.5 -16.167 0.5 -19.5c0 -4.66699 -0.333008 -8 -1 -10v1c-1.33301 -6.66699 -4.16602 -12.167 -8.49902 -16.5s-9.83301 -6.5 -16.5 -6.5
c-7.33301 0 -13.5 2 -18.5 6s-9.33301 9 -13 15s-7 12.333 -10 19s-5.83301 12.667 -8.5 18h1l-5 6v-1c-3.33301 4 -6.5 8.16699 -9.5 12.5s-4.5 9.16602 -4.5 14.499c0 6 2.33301 11 7 15s10.167 7 16.5 9s12.833 3.5 19.5 4.5s12 1.5 16 1.5z" />
    <glyph glyph-name="a" unicode="a" horiz-adv-x="341" 
d="M289 87c0 -3.33301 0.167969 -7.33496 0.500977 -12.002s0.5 -9.66699 0.5 -15c0 -11.333 -1.66699 -22.333 -5 -33s-11.333 -16 -24 -16c-5.33301 0 -10.833 -1.33301 -16.5 -4s-11.5 -4 -17.5 -4c-5.33301 0 -10.333 1.33301 -15 4s-7.66699 6.66699 -9 12
c-7.33301 -3.33301 -15.166 -6.66602 -23.499 -9.99902s-16.833 -5 -25.5 -5c-22 0 -40.833 6.16699 -56.5 18.5s-28.667 27.666 -39 45.999s-17.833 38.333 -22.5 60s-7 42.167 -7 61.5c0 14.667 2 31.167 6 49.5s10.167 35.166 18.5 50.499s19.166 28.333 32.499 39
s29.333 16 48 16c19.333 0 40.666 -6.33301 63.999 -19c4.66699 8.66699 7 18.334 7 29.001c0 8 -1.66699 16 -5 24s-9 13.667 -17 17h1c-1.33301 1.33301 -3.33301 2 -6 2c-6 0 -10.333 -2.83301 -13 -8.5s-4.66699 -10.834 -6 -15.501c0 -3.33301 -1.66699 -6 -5 -8
s-7.16602 -3.5 -11.499 -4.5s-9 -1.83301 -14 -2.5s-9.16699 -1 -12.5 -1h-12c-4.66699 0 -9.33398 0.5 -14.001 1.5s-8.66699 2.66699 -12 5s-5 5.5 -5 9.5c0 14.667 3.33301 29.334 10 44.001s15.667 27.5 27 38.5s24 20 38 27s28.667 10.5 44 10.5c22 0 39.667 -6 53 -18
s23.833 -26.667 31.5 -44s12.667 -36.166 15 -56.499s3.5 -38.833 3.5 -55.5c0 -21.333 -1 -42.666 -3 -63.999s-3 -44.333 -3 -69v-100zM155.001 95.998c9.33301 0 16.999 3.16602 22.999 9.49902s10.833 14 14.5 23s6.33398 18.333 8.00098 28s2.5 17.834 2.5 24.501
c0 6 -0.166992 13 -0.5 21s-1.33301 16 -3 24s-4.16699 15.167 -7.5 21.5s-8.33301 10.833 -15 13.5c-3.33301 0 -8 -0.666992 -14 -2s-11.833 -4.5 -17.5 -9.5s-10.667 -12.667 -15 -23s-6.5 -24.5 -6.5 -42.5v-11c0 -4.66699 0.333008 -11.334 1 -20.001
s2 -17.167 4 -25.5s5 -15.666 9 -21.999s9.66699 -9.5 17 -9.5z" />
    <glyph glyph-name="b" unicode="b" horiz-adv-x="332" 
d="M131 21c0 -5.33301 -1.83105 -9.33008 -5.49805 -11.9971s-8.16699 -4.66699 -13.5 -6s-10.833 -2 -16.5 -2h-14.5c-15.333 0 -25.833 2 -31.5 6s-8.5 13.333 -8.5 28c0 50 -1.5 99.833 -4.5 149.5s-4.5 99.5 -4.5 149.5c0 34.667 1.66699 69.5 5 104.5s5 69.5 5 103.5
c0 7.33301 -0.333008 14.166 -1 20.499s-1 13.166 -1 20.499c0 19.333 3.5 32.5 10.5 39.5s19.833 10.5 38.5 10.5c16 0 27 -4.33301 33 -13s9 -20.667 9 -36c0 -12.667 -1 -24.334 -3 -35.001v1c-1.33301 -5.33301 -2 -10.166 -2 -14.499v-14.5v-28v-10.5
c0 -3.66699 -0.333008 -7.16699 -1 -10.5c10 2.66699 21 4 33 4c24.667 0 45.5 -4.83301 62.5 -14.5s30.667 -22.334 41 -38.001s17.666 -33.667 21.999 -54s6.5 -41.5 6.5 -63.5c0 -18.667 -0.833008 -37.5 -2.5 -56.5s-3.83398 -37.833 -6.50098 -56.5
c-2.66699 -18 -5.16699 -37.333 -7.5 -58s-7.33301 -39.5 -15 -56.5s-19.5 -31.167 -35.5 -42.5s-39.333 -17 -70 -17c-4 0 -7.83301 0.166992 -11.5 0.5s-7.16699 0.833008 -10.5 1.5zM117.002 347.003l-0.000976562 -22.9961c0 -11.333 0.166992 -24.833 0.5 -40.5
s0.833008 -32 1.5 -49s1.33398 -33 2.00098 -48s1.66699 -28 3 -39s3 -17.833 5 -20.5v1c3.33301 -6 7.83301 -10.167 13.5 -12.5s11.5 -3.5 17.5 -3.5c12 0 20.833 8.66699 26.5 26s9.5 38.166 11.5 62.499s2.83301 49.666 2.5 75.999s-0.5 48.166 -0.5 65.499
c0 13.333 -2.83301 25 -8.5 35s-16.167 15 -31.5 15c-13.333 0 -23.833 -4.33301 -31.5 -13s-11.5 -19.334 -11.5 -32.001z" />
    <glyph glyph-name="c" unicode="c" horiz-adv-x="315" 
d="M217 354c-5.33301 0 -9.99609 1.49805 -13.9961 4.49805s-8 6.33301 -12 10s-7.83301 7 -11.5 10s-7.83398 4.5 -12.501 4.5c-10.667 0 -19.667 -8.5 -27 -25.5s-13.333 -36.667 -18 -59s-8 -44.333 -10 -66s-3 -36.834 -3 -45.501c0 -8 0.666992 -17.667 2 -29
s4 -22.166 8 -32.499s9.33301 -19.333 16 -27s15.334 -11.5 26.001 -11.5c6.66699 0 12 1.83301 16 5.5s7.83301 7.66699 11.5 12s7.33398 8.33301 11.001 12s8.5 5.5 14.5 5.5c6.66699 0 13 -2.33301 19 -7s11.333 -9.33398 16 -14.001v1
c4.66699 -5.33301 8.5 -10.666 11.5 -15.999s4.5 -11.666 4.5 -18.999c0 -10.667 -3.66699 -20.167 -11 -28.5s-16.333 -15.333 -27 -21s-21.834 -10 -33.501 -13s-21.834 -4.5 -30.501 -4.5c-30.667 0 -54.834 6.83301 -72.501 20.5s-30.834 31 -39.501 52
s-14 43.833 -16 68.5s-3 48 -3 70c0 20 0.833008 44.167 2.5 72.5s6.5 55.833 14.5 82.5s20.167 50.334 36.5 71.001s39.166 33.667 68.499 39c5.33301 0 14.5 -1.16699 27.5 -3.5s26.333 -6 40 -11s25.667 -11.5 36 -19.5s15.5 -18 15.5 -30c0 -11.333 -5 -21 -15 -29
s-18.667 -15.667 -26 -23v1c-4.66699 -4.66699 -9.66699 -7 -15 -7z" />
    <glyph glyph-name="d" unicode="d" horiz-adv-x="320" 
d="M276 643c2.66699 -3.33301 5.00293 -7.16797 7.00293 -11.501s3 -8.5 3 -12.5c-0.666992 -6.66699 -1 -13.167 -1 -19.5v-19.5c0 -13.333 0.166992 -26.333 0.5 -39s0.5 -25.667 0.5 -39c0 -51.333 -1.16699 -102.166 -3.5 -152.499s-3.5 -101.166 -3.5 -152.499
c0 -22.667 0.333008 -45 1 -67s1 -44.333 1 -67v-28c0 -9.33301 -0.333008 -18.666 -1 -27.999c-10.667 -1.33301 -21.334 -2.83301 -32.001 -4.5s-21.667 -2.5 -33 -2.5c-10.667 0 -19.667 2.66699 -27 8v4c-6 -3.33301 -14 -5 -24 -5c-30 0 -54.167 7.16699 -72.5 21.5
s-32.833 32.5 -43.5 54.5s-17.834 45.833 -21.501 71.5s-5.5 49.834 -5.5 72.501c0 20 0.333008 42.167 1 66.5s3.66699 47.833 9 70.5s14.5 42.834 27.5 60.501s31.5 30.167 55.5 37.5h-1c7.33301 2.66699 16 4 26 4c8 0 16.167 -1 24.5 -3l24.5 -6
c0 19.333 0.333008 38.166 1 56.499s1 37.166 1 56.499c0 9.33301 -0.166992 18.666 -0.5 27.999s-0.833008 18.666 -1.5 27.999c7.33301 7.33301 16 12.5 26 15.5s20.333 4.5 31 4.5c11.333 0 21.666 -1 30.999 -3zM147.003 368.998
c-10 0 -17.8301 -6.66602 -23.4971 -19.999s-9.83398 -28.833 -12.501 -46.5s-4.33398 -35.5 -5.00098 -53.5s-1 -31.667 -1 -41s0.333008 -20.333 1 -33s2.66699 -24.667 6 -36s8.5 -21 15.5 -29s16.5 -12 28.5 -12c7.33301 0 13.166 2.16699 17.499 6.5
s8.83301 9.16602 13.5 14.499c-3.33301 16.667 -5 34 -5 52c0 25.333 1.33301 51.5 4 78.5s4 50.5 4 70.5c0 4.66699 0.166992 10 0.5 16s-0.666992 11.333 -3 16s-6.5 8.66699 -12.5 12s-15.333 5 -28 5z" />
    <glyph glyph-name="e" unicode="e" horiz-adv-x="349" 
d="M214 173c6 0 14.167 -0.837891 24.5 -2.50488s20.5 -4.16699 30.5 -7.5s18.5 -7.83301 25.5 -13.5s10.5 -12.834 10.5 -21.501c0 -18.667 -4 -35.834 -12 -51.501s-18.5 -29.167 -31.5 -40.5s-27.833 -20.166 -44.5 -26.499s-34 -9.5 -52 -9.5
c-30.667 0 -54.834 9.33301 -72.501 28s-31 41.334 -40 68.001s-14.667 54.834 -17 84.501s-3.5 55.834 -3.5 78.501c0 23.333 2.33301 47.833 7 73.5s12.667 49.334 24 71.001s26.5 39.667 45.5 54s42.833 21.5 71.5 21.5c30 0 52.833 -8 68.5 -24s27 -35.833 34 -59.5
s10.833 -49 11.5 -76s1 -51.833 1 -74.5c0 -7.33301 -5.5 -13.166 -16.5 -17.499s-24.667 -7.66602 -41 -9.99902s-34.5 -3.83301 -54.5 -4.5s-39 -1 -57 -1v-19c0 -7.33301 0.333008 -16.5 1 -27.5s2.33398 -21.667 5.00098 -32s6.83398 -19.333 12.501 -27
s13.5 -11.5 23.5 -11.5c9.33301 0 16.666 2.83301 21.999 8.5s9.5 12.5 12.5 20.5s5.33301 16.5 7 25.5zM178 387.995c-9.33301 0 -16.9971 -2.83398 -22.9971 -8.50098s-10.833 -12.834 -14.5 -21.501s-6.33398 -17.667 -8.00098 -27s-2.83398 -17.333 -3.50098 -24
c5.33301 -1.33301 10.333 -2 15 -2h15c9.33301 0 18.333 0.5 27 1.5s17.667 2.16699 27 3.5c0 4.66699 -0.666992 11.334 -2 20.001s-3.33301 17.334 -6 26.001s-6.33398 16.167 -11.001 22.5s-10 9.5 -16 9.5z" />
    <glyph glyph-name="f" unicode="f" horiz-adv-x="355" 
d="M249 427c0 -19.333 -3.66504 -31.8291 -10.998 -37.4961s-17.333 -8.5 -30 -8.5c-5.33301 0 -10.5 0.166992 -15.5 0.5s-10.167 0.833008 -15.5 1.5v-8c0 -11.333 0.666992 -27 2 -47s3 -41.667 5 -65s4.16699 -47.166 6.5 -71.499l6.5 -68l5 -54
c1.33301 -15 2 -24.833 2 -29.5c0 -6 -0.166992 -11.667 -0.5 -17s-0.833008 -10.666 -1.5 -15.999c-11.333 -0.666992 -22 -1.83398 -32 -3.50098s-20.333 -2.5 -31 -2.5c-4.66699 0 -10.167 0.333008 -16.5 1s-10.5 3.66699 -12.5 9v-1
c-2.66699 4.66699 -4.33398 9.66699 -5.00098 15s-1 10.666 -1 15.999s0.166992 10.666 0.5 15.999s0.5 10.666 0.5 15.999c0 36 -1.66699 72.5 -5 109.5s-5 73.5 -5 109.5c0 11.333 0.166992 22.666 0.5 33.999s0.5 22.666 0.5 33.999v13c0 4 -0.333008 8 -1 12h-20.5
c-7 0 -13.5 1 -19.5 3s-10.833 5.66699 -14.5 11s-5.5 13 -5.5 23c0 16 2 32 6 48h27.5c9 0 17.833 0.333008 26.5 1c0.666992 20 4 40.333 10 61s14.833 39.5 26.5 56.5s26.5 31 44.5 42s39 16.5 63 16.5c5.33301 0 12.166 -1 20.499 -3s16.5 -4.83301 24.5 -8.5
s14.833 -8.16699 20.5 -13.5s8.5 -11.666 8.5 -18.999c0 -4 -2 -9.33301 -6 -16s-8.83301 -13.167 -14.5 -19.5s-11.667 -11.833 -18 -16.5s-11.833 -7 -16.5 -7c-6.66699 0 -11.5 2.66699 -14.5 8s-7.5 8 -13.5 8c-3.33301 0 -6.33301 -0.166992 -9 -0.5
s-5.66699 -0.833008 -9 -1.5h1c-7.33301 -3.33301 -13 -8.5 -17 -15.5s-7 -14.5 -9 -22.5s-3.66699 -16.333 -5 -25s-2.33301 -16.334 -3 -23.001c16 -1.33301 28.667 -2.16602 38 -2.49902s16.333 -1.83301 21 -4.5s7.66699 -6.83398 9 -12.501s2 -14.167 2 -25.5z" />
    <glyph glyph-name="g" unicode="g" 
d="M284 266c0 -8.66699 -0.167969 -17.335 -0.500977 -26.002s-0.5 -17.334 -0.5 -26.001c0 -25.333 1.33301 -50.666 4 -75.999s4 -50.666 4 -75.999c0 -20 -2 -40.667 -6 -62s-11 -40.833 -21 -58.5s-23.167 -32.5 -39.5 -44.5s-36.5 -18.333 -60.5 -19h-3
c-6 0 -14 0.5 -24 1.5s-19.833 3 -29.5 6s-18.167 7 -25.5 12s-11 11.5 -11 19.5c0 9.33301 4.66699 19.166 14 29.499l23 25.5v-1c5.33301 6.66699 11.333 10 18 10c9.33301 0 17.333 -3.33301 24 -10s12.667 -10 18 -10s10.166 2.16699 14.499 6.5s8 9.5 11 15.5
s5.16699 12.167 6.5 18.5s2 11.5 2 15.5c-5.33301 -0.666992 -11 -1.5 -17 -2.5s-11.667 -1.5 -17 -1.5c-32 0 -57.167 8 -75.5 24s-31.833 36.167 -40.5 60.5s-14 51 -16 80s-3 56.167 -3 81.5c0 16.667 1 37.334 3 62.001s6.83301 48.5 14.5 71.5s19.5 42.833 35.5 59.5
s38 25 66 25c10 0 20.5 -1.5 31.5 -4.5s20.5 -7.16699 28.5 -12.5c0 8 2.33301 14 7 18s10.334 6.66699 17.001 8s13.834 1.83301 21.501 1.5s14.5 -0.166016 20.5 0.500977c8 -7.33301 12 -16.333 12 -27c0 -32.667 -1 -65.167 -3 -97.5s-3 -64.833 -3 -97.5z
M124.999 337.999c-6.66699 -31.333 -9.99902 -64.001 -9.99902 -98.001c0 -9.33301 0.333008 -21.833 1 -37.5s2.66699 -31.167 6 -46.5s8.66602 -28.5 15.999 -39.5s17.666 -16.5 30.999 -16.5c10.667 0 18.5 6.83301 23.5 20.5s8.33301 30.834 10 51.501
s2.33398 43.5 2.00098 68.5s-0.5 48.833 -0.5 71.5v22.5c0 9 -1 17.5 -3 25.5s-5.33301 14.833 -10 20.5s-11.667 8.5 -21 8.5c-14.667 0 -25.167 -5.83301 -31.5 -17.5s-10.833 -23.167 -13.5 -34.5v1z" />
    <glyph glyph-name="h" unicode="h" horiz-adv-x="328" 
d="M128 628c2 -10 3.00098 -23.6699 3.00098 -41.0029c0 -14 -0.333008 -28.167 -1 -42.5s-1 -26.166 -1 -35.499v-25c0 -8 0.333008 -16.333 1 -25h12c38 0 67 -9.33301 87 -28s34.167 -41.834 42.5 -69.501s12.833 -57.667 13.5 -90s1 -62.5 1 -90.5v-36
c0 -16 -0.5 -32.5 -1.5 -49.5s-2.5 -33 -4.5 -48s-4.66699 -25.167 -8 -30.5h1c-3.33301 -6.66699 -9 -11.167 -17 -13.5s-15.333 -3.5 -22 -3.5c-15.333 0 -25.833 3.66699 -31.5 11s-8.5 18.333 -8.5 33c0 7.33301 0.333008 14.333 1 21s1 13.667 1 21v168
c0 8.66699 -0.5 19.834 -1.5 33.501s-3.33301 27 -7 40s-9 24.167 -16 33.5s-16.833 14 -29.5 14h-6.5c-2.33301 0 -4.5 -0.666992 -6.5 -2v-43.5c0 -20.333 -0.166992 -43.166 -0.5 -68.499s-0.833008 -51.833 -1.5 -79.5s-1.33398 -53.167 -2.00098 -76.5
s-1.5 -43 -2.5 -59s-2.16699 -25 -3.5 -27c-7.33301 -11.333 -17.333 -17 -30 -17c-8.66699 0 -17 1 -25 3s-16.333 3 -25 3l-4 117.5c-1.33301 39 -2 78.167 -2 117.5v82c0 19.333 0.333008 39 1 59s1.66699 39.667 3 59c1.33301 32 1.83301 64 1.5 96
s0.833984 64 3.50098 96c9.33301 0.666992 18.166 1.83398 26.499 3.50098s16.833 2.5 25.5 2.5c7.33301 0 16 -1.66699 26 -5z" />
    <glyph glyph-name="i" unicode="i" horiz-adv-x="172" 
d="M98 479c16.667 0 27.5 -2.33496 32.5 -7.00195s7.5 -15 7.5 -31c0 -52 -2.16699 -103.5 -6.5 -154.5s-6.5 -102.5 -6.5 -154.5c0 -17.333 0.833008 -34.333 2.5 -51s2.5 -33.334 2.5 -50.001c0 -12 -3.16699 -19.667 -9.5 -23s-14.833 -5 -25.5 -5
c-6 0 -12.167 0.166992 -18.5 0.5s-12.5 1.5 -18.5 3.5h1c-1.33301 0 -2.5 0.166992 -3.5 0.5s-2.16699 0.5 -3.5 0.5s-2.83301 -0.166992 -4.5 -0.5s-3.16699 -0.5 -4.5 -0.5c-4 14.667 -6 29.334 -6 44.001c0 46.667 0.5 93.167 1.5 139.5s1.5 92.833 1.5 139.5
c0 19.333 -0.5 38.333 -1.5 57s-1.5 37.334 -1.5 56.001c0 8.66699 1.66699 15.334 5 20.001s7.16602 8 11.499 10s8.33301 3.16699 12 3.5s5.83398 0.5 6.50098 0.5zM54 587.998c10.667 6 21.332 9.00098 31.999 9.00098c12.667 0 23 -3.83301 31 -11.5
s12 -16.834 12 -27.501c0 -4 -0.833008 -8.83301 -2.5 -14.5s-4.5 -11 -8.5 -16s-9.16699 -9.33301 -15.5 -13s-14.166 -5.5 -23.499 -5.5c-20 0 -32.667 3.5 -38 10.5s-8 16.5 -8 28.5c0 14.667 7 28 21 40z" />
    <glyph glyph-name="j" unicode="j" horiz-adv-x="154" 
d="M-87 -76c-2.66699 3.33301 -4.00098 7.66895 -4.00098 13.002c0 2 1.66699 5.83301 5 11.5s7.33301 11.5 12 17.5s9.16699 11.167 13.5 15.5s7.5 6.5 9.5 6.5c4.66699 0 8.5 -0.5 11.5 -1.5s6.5 -2.5 10.5 -4.5l-1 1c1.33301 -0.666992 2.83301 -1.5 4.5 -2.5
s3.16699 -1.5 4.5 -1.5c12.667 0 22.5 6.16699 29.5 18.5s12.333 26.666 16 42.999s5.83398 32.666 6.50098 48.999s1 28.833 1 37.5v128c0 39.333 0.166992 78.5 0.5 117.5s1.5 78.167 3.5 117.5c9.33301 1.33301 18.333 2.5 27 3.5s17.667 1.5 27 1.5
c14 0 23.833 -4.16699 29.5 -12.5s9.16699 -19.833 10.5 -34.5s1.33301 -31.667 0 -51s-2 -40.333 -2 -63c0 -33.333 -0.333008 -68.5 -1 -105.5s-1.83398 -72.333 -3.50098 -106s-4.33398 -64.167 -8.00098 -91.5s-8.5 -48.333 -14.5 -63c-4 -10 -10.5 -19.833 -19.5 -29.5
s-19 -18.5 -30 -26.5s-22.5 -14.333 -34.5 -19s-23.333 -7 -34 -7c-13.333 0 -26.666 3.5 -39.999 10.5s-23.666 16.167 -30.999 27.5h1zM121.999 565.003c-1.33301 -11.333 -6.33301 -21.333 -15 -30s-19 -13 -31 -13c-13.333 0 -23.833 5 -31.5 15s-11.5 21.333 -11.5 34
s3.5 23 10.5 31s17.167 12 30.5 12c11.333 0 22.333 -3.5 33 -10.5s16 -16.833 16 -29.5c0 -3.33301 -0.666992 -7 -2 -11z" />
    <glyph glyph-name="k" unicode="k" horiz-adv-x="362" 
d="M124 320c17.333 20 33.834 41.833 49.501 65.5s32.167 46.167 49.5 67.5h-1c3.33301 4.66699 9.5 7.5 18.5 8.5s17.833 1.5 26.5 1.5c4.66699 0 10 0.333008 16 1s11.5 0.5 16.5 -0.5s9.16699 -3.16699 12.5 -6.5s5 -9 5 -17c0 -13.333 -3.33301 -23.5 -10 -30.5
s-13.334 -15.5 -20.001 -25.5v1l-41.5 -53c-10.333 -12.667 -18.333 -22 -24 -28l-11 -11.5c-1.66699 -1.66699 -2.5 -3.16699 -2.5 -4.5l1 -2l56.5 -143l31 -76c7 -16.667 11.333 -27.334 13 -32.001s2.5 -8.33398 2.5 -11.001c0 -7.33301 -2.33301 -12.666 -7 -15.999
s-10.5 -5.66602 -17.5 -6.99902s-14.333 -1.83301 -22 -1.5s-14.5 0.5 -20.5 0.5c-8 0 -14 4 -18 12v-1c-6.66699 10 -11.834 20.167 -15.501 30.5l-11.5 32.5c-8.66699 22.667 -17.667 44.834 -27 66.501s-19.666 43.167 -30.999 64.5c-7.33301 -6 -13.333 -13 -18 -21
c1.33301 -24.667 2.5 -47.334 3.5 -68.001s1.5 -38.667 1.5 -54c0 -19.333 -1.33301 -34.166 -4 -44.499s-7.66699 -15.5 -15 -15.5s-18.333 0.5 -33 1.5s-27 1.5 -37 1.5h-7c-2.66699 3.33301 -4 7 -4 11c0 53.333 1.33301 106.166 4 158.499s4 105.166 4 158.499v192
c-0.666992 18.667 -1.16699 33.667 -1.5 45s-0.5 20 -0.5 26v13v7c0 8.66699 4 14.334 12 17.001s15.333 4 22 4c13.333 0 24.333 -0.833008 33 -2.5s17.667 -2.5 27 -2.5c-2.66699 -52.667 -4.16699 -104.667 -4.5 -156s-0.5 -103.333 -0.5 -156z" />
    <glyph glyph-name="l" unicode="l" horiz-adv-x="168" 
d="M118 452c0 -20.667 -0.499023 -47.8311 -1.49902 -81.498s-2 -70.334 -3 -110.001s-1.83301 -80.834 -2.5 -123.501s-1 -83.667 -1 -123c-10.667 -0.666992 -21.5 -1.66699 -32.5 -3l-32.5 -4c-7.33301 5.33301 -12.166 11.833 -14.499 19.5s-3.5 15.5 -3.5 23.5
c0 17.333 0.833008 34.833 2.5 52.5s2.5 35.5 2.5 53.5c0 13.333 0.166992 33.333 0.5 60s0.666016 56.334 0.999023 89.001l1 102c0.333008 35.333 0.833008 68.5 1.5 99.5s1.16699 58.167 1.5 81.5s0.833008 39.333 1.5 48l8 11c10.667 3.33301 21.5 5.16602 32.5 5.49902
s22.167 1.83301 33.5 4.5c3.33301 -4.66699 5.66602 -11 6.99902 -19s2 -16.333 2 -25c0 -24 -0.666992 -50.333 -2 -79s-2 -56 -2 -82z" />
    <glyph glyph-name="m" unicode="m" horiz-adv-x="536" 
d="M208 7c2 38 3.00195 75.6748 3.00195 113.008c0 22.667 -0.666992 45 -2 67s-2 44.333 -2 67c0 4.66699 0.166992 10.167 0.5 16.5s0.5 13.166 0.5 20.499c0 10 -0.5 20.5 -1.5 31.5s-3 21 -6 30s-7.5 16.333 -13.5 22s-13.667 8.5 -23 8.5s-16.666 -2 -21.999 -6
s-9.33301 -9.16699 -12 -15.5s-4.33398 -13.333 -5.00098 -21s-1 -15.167 -1 -22.5c0 -46.667 2.16699 -93 6.5 -139s6.5 -92 6.5 -138c0 -12 -1.5 -20.833 -4.5 -26.5s-7 -9.5 -12 -11.5s-10.833 -3 -17.5 -3h-21c-17.333 0 -27.666 3.5 -30.999 10.5s-5 15.167 -5 24.5
c0 4 0.166992 8.16699 0.5 12.5s0.5 8.5 0.5 12.5c0 62.667 -1.83301 124.667 -5.5 186s-5.5 123.333 -5.5 186c0 3.33301 0.166992 7.33301 0.5 12s1.33301 9.16699 3 13.5s3.83398 8 6.50098 11s6.33398 4.5 11.001 4.5c4 0 9.16699 0.166992 15.5 0.5
s12.666 0.166016 18.999 -0.500977s12.166 -2.33398 17.499 -5.00098s8.66602 -7 9.99902 -13c22 12.667 45 19 69 19c12.667 0 26.167 -4 40.5 -12s25.833 -16.667 34.5 -26h1c6 7.33301 13.167 13.666 21.5 18.999s17.166 9.66602 26.499 12.999h-1
c10.667 5.33301 23.334 8 38.001 8c15.333 0 29.666 -3.33301 42.999 -10h-1c20 -8 35.333 -19.667 46 -35s18.5 -32 23.5 -50s8.33301 -36.833 10 -56.5s3.83398 -38.167 6.50098 -55.5c4.66699 -32 7.33398 -64.333 8.00098 -97s1 -64.334 1 -95.001
c0 -12.667 -0.5 -25.167 -1.5 -37.5s-4.16699 -23.166 -9.5 -32.499c-2 0 -4 0.166992 -6 0.5s-3.66699 0.5 -5 0.5c-8.66699 0 -17 -1 -25 -3s-16.667 -3 -26 -3s-16.333 3.5 -21 10.5s-8 15.667 -10 26s-3.16699 21.333 -3.5 33s-0.5 22.167 -0.5 31.5
c0 16.667 0.5 33 1.5 49s1.5 32.667 1.5 50c0 6 -0.166992 15 -0.5 27s-1 24.167 -2 36.5l-3 35.5c-1 11.333 -2.5 19.666 -4.5 24.999v-1c-1.33301 4 -2.66602 8.66699 -3.99902 14h1l-4.5 13.5c-1.66699 5 -3.66699 9.66699 -6 14s-5.16602 8.16602 -8.49902 11.499
s-7.33301 5 -12 5c-2.66699 0 -6.33398 -2.66699 -11.001 -8s-9.33398 -11.5 -14.001 -18.5s-8.83398 -13.833 -12.501 -20.5s-5.83398 -11.334 -6.50098 -14.001c-1.33301 -5.33301 -2 -10.5 -2 -15.5v-15.5c0 -46.667 1.66699 -93.167 5 -139.5
s5.66602 -92.833 6.99902 -139.5z" />
    <glyph glyph-name="n" unicode="n" 
d="M110 476c7.33301 0 13.3398 -2.16797 18.0068 -6.50098s8 -10.166 10 -17.499c7.33301 3.33301 14.833 5.83301 22.5 7.5s15.5 2.5 23.5 2.5c23.333 0 43.166 -6.83301 59.499 -20.5s26.166 -31.5 29.499 -53.5c9.33301 -42 14.833 -85 16.5 -129s2.5 -86.667 2.5 -128
v-21.5c0 -7 -0.666992 -14.167 -2 -21.5v1c-0.666992 -13.333 -0.833984 -26.333 -0.500977 -39s-0.833984 -25.667 -3.50098 -39c-5.33301 -2 -10.666 -3.16699 -15.999 -3.5s-11 -0.5 -17 -0.5c-12 0 -22.833 1.66699 -32.5 5s-14.5 12.666 -14.5 27.999
c0 28.667 1.33301 57.5 4 86.5s4 58.167 4 87.5c0 18.667 -0.666992 36.834 -2 54.501s-3 35.5 -5 53.5v-1c-0.666992 4.66699 -1.33398 10 -2.00098 16s-1.83398 11.667 -3.50098 17s-4.33398 9.83301 -8.00098 13.5s-8.5 5.5 -14.5 5.5
c-9.33301 0 -17.666 -4.33301 -24.999 -13l-19 -22v1c-2.66699 -4 -5 -14 -7 -30s-3.66699 -35 -5 -57s-2.33301 -46 -3 -72l-2 -75c-0.666992 -24 -1.33398 -45.667 -2.00098 -65s-1.33398 -33.333 -2.00098 -42c-12.667 1.33301 -26 2 -40 2s-26.667 3 -38 9
c-1.33301 8 -2.33301 16 -3 24s-1 16 -1 24c0 66.667 2.16699 132.667 6.5 198s7.5 131.333 9.5 198c6.66699 8 16.167 13.833 28.5 17.5s23.5 5.5 33.5 5.5z" />
    <glyph glyph-name="o" unicode="o" horiz-adv-x="357" 
d="M233 10c-3.33301 -1.33301 -7.17188 -3.16895 -11.5049 -5.50195s-8.5 -3.5 -12.5 -3.5c-1.33301 0 -2.33301 0.333008 -3 1c-3.33301 -0.666992 -6.5 -1.16699 -9.5 -1.5s-6.16699 -0.5 -9.5 -0.5c-4.66699 0 -9 0.166992 -13 0.5s-7.66699 1.16602 -11 2.49902l-24 4h1
c-4 0.666992 -7.5 1.83398 -10.5 3.50098l-9.5 5.5c-19.333 9.33301 -34.666 20.833 -45.999 34.5s-20 29.334 -26 47.001s-10 37.5 -12 59.5s-3 45.667 -3 71c0 20.667 1.66699 44 5 70s9.83301 50.5 19.5 73.5s22.834 42.333 39.501 58s38.334 23.5 65.001 23.5
c6.66699 0 13.334 -0.333008 20.001 -1s13.334 -2.33398 20.001 -5.00098h-1c24.667 -10 44.5 -24.667 59.5 -44s26.5 -41 34.5 -65s13.333 -49.167 16 -75.5s4 -51.166 4 -74.499c0 -6 -1.16699 -17.167 -3.5 -33.5s-6.66602 -34 -12.999 -53s-14.833 -37.167 -25.5 -54.5
s-24.334 -29.666 -41.001 -36.999h1zM114.994 229.997l0.000976562 -6.50195c0 -2.33301 0.333008 -4.5 1 -6.5c2 -12 3.16699 -25.833 3.5 -41.5s1.83301 -30.5 4.5 -44.5s8 -25.833 16 -35.5s21 -14.5 39 -14.5c10.667 0 18.5 5.66699 23.5 17s8.16699 24.666 9.5 39.999
s1.66602 30.833 0.999023 46.5s-1 28.167 -1 37.5c0 12 -0.333008 26.333 -1 43s-2.33398 32.834 -5.00098 48.501s-6.66699 28.834 -12 39.501s-12.666 16 -21.999 16c-10 0 -18.5 -5.83301 -25.5 -17.5s-12.833 -25.167 -17.5 -40.5s-8.16699 -30.666 -10.5 -45.999
s-3.5 -27 -3.5 -35z" />
    <glyph glyph-name="p" unicode="p" horiz-adv-x="351" 
d="M124 -134c-7.33301 0 -14.8311 -0.333984 -22.498 -1.00098s-15.167 -1 -22.5 -1c-6.66699 0 -13.167 0.166992 -19.5 0.5s-12.833 0.833008 -19.5 1.5c-3.33301 30 -5.5 59.5 -6.5 88.5s-1.5 58.5 -1.5 88.5v43.5c0 25 0.166992 54.833 0.5 89.5
s1.16602 71.667 2.49902 111s3.66602 75.666 6.99902 108.999s7.66602 61 12.999 83s12.333 33 21 33h32c5.33301 0 9.83301 -0.833008 13.5 -2.5s7.83398 -3.16699 12.501 -4.5l2 -14c8 1.33301 15.833 2.5 23.5 3.5s15.5 1.5 23.5 1.5c24.667 0 45.167 -6.66699 61.5 -20
s29.166 -30 38.499 -50s15.833 -41.667 19.5 -65s5.5 -44.666 5.5 -63.999s0.166992 -39.166 0.5 -59.499s-0.5 -40.666 -2.5 -60.999s-6 -39.833 -12 -58.5s-15.333 -36 -28 -52c-12 -15.333 -26.5 -28 -43.5 -38s-35.5 -15 -55.5 -15c-6 0 -12.167 0.833008 -18.5 2.5
s-12.166 3.5 -17.499 5.5l-2 1c-0.666992 -26 -1.5 -51.833 -2.5 -77.5s-1.83301 -51.834 -2.5 -78.501zM222.002 286.999c0 8 -0.5 18.8369 -1.5 32.5039s-3 27 -6 40s-7.5 24.333 -13.5 34s-14 14.5 -24 14.5c-16 0 -27.5 -8.33301 -34.5 -25
s-11.833 -37.334 -14.5 -62.001s-3.66699 -51.334 -3 -80.001s1 -55.334 1 -80.001c0 -14 4 -26.667 12 -38s19.667 -17 35 -17c12 0 21.333 6.83301 28 20.5s11.5 29.5 14.5 47.5s4.83301 36.167 5.5 54.5s1 32.166 1 41.499v17z" />
    <glyph glyph-name="q" unicode="q" horiz-adv-x="374" 
d="M202 2c-6 -1.33301 -11.9951 -2.33105 -17.9951 -2.99805s-11.667 -1 -17 -1c-8 0 -15 1 -21 3h2c-22.667 2.66699 -41.334 11.167 -56.001 25.5s-26.5 31.5 -35.5 51.5s-15.333 41.5 -19 64.5s-5.5 44.167 -5.5 63.5c0 13.333 0.333008 29.166 1 47.499
s2.33398 37 5.00098 56s6.66699 37.833 12 56.5s12.666 35.5 21.999 50.5s20.833 27 34.5 36s30.167 13.5 49.5 13.5c18.667 0 36.667 -4.66699 54 -14l-1 14c7.33301 4.66699 15 7.66699 23 9s16 2 24 2c16.667 0 32 -2.33301 46 -7
c1.33301 -8 2.16602 -15.833 2.49902 -23.5s0.5 -15.5 0.5 -23.5c0 -14.667 -0.5 -29 -1.5 -43s-1.5 -28.333 -1.5 -43v-93c0 -31.333 -0.833008 -62.5 -2.5 -93.5s-2.5 -62.5 -2.5 -94.5c0 -17.333 0.333008 -34.833 1 -52.5s2.66699 -34.834 6 -51.501h4
c4.66699 0 8.66699 -1.5 12 -4.5s5.66602 -6.66699 6.99902 -11s2.33301 -8.83301 3 -13.5s1 -9 1 -13c0 -3.33301 -0.166992 -7.5 -0.5 -12.5s-1.33301 -9.83301 -3 -14.5s-3.83398 -8.66699 -6.50098 -12s-6.33398 -5 -11.001 -5c-20 0 -36.833 4 -50.5 12
s-24.667 18.5 -33 31.5s-14.5 27.667 -18.5 44s-6 32.5 -6 48.5zM202.005 304.002c0 6.66699 -0.165039 14.168 -0.498047 22.501s-1.5 16.166 -3.5 23.499s-5.33301 13.5 -10 18.5s-11.334 7.5 -20.001 7.5c-7.33301 0 -13.833 -6.33301 -19.5 -19s-10.334 -28 -14.001 -46
s-6.33398 -36.667 -8.00098 -56s-2.5 -35.666 -2.5 -48.999c0 -7.33301 0.166992 -17.5 0.5 -30.5s1.83301 -25.833 4.5 -38.5s6.83398 -23.667 12.501 -33s13.834 -14 24.501 -14c12.667 0 21.667 8.16699 27 24.5s8.66602 36 9.99902 59s1.5 46.667 0.5 71
s-1.5 44.166 -1.5 59.499z" />
    <glyph glyph-name="r" unicode="r" horiz-adv-x="295" 
d="M123 495v-2.00195c0 -5.33301 0.333008 -9.33301 1 -12c6 2.66699 10.667 4.83398 14 6.50098s6.66602 3.16699 9.99902 4.5s7 2.33301 11 3s9.66699 1 17 1c25.333 0 44.833 -5.83301 58.5 -17.5s27.167 -27.167 40.5 -46.5c4 -6 6 -12.333 6 -19
c0 -10 -4.66699 -18.333 -14 -25h1c-4.66699 -5.33301 -10.667 -10.666 -18 -15.999s-14.666 -8 -21.999 -8c-4 0 -7 0.333008 -9 1h1c-8.66699 2.66699 -14.834 7 -18.501 13s-7.83398 9.66699 -12.501 11l1 -1c-6.66699 4 -15.334 6 -26.001 6s-18.667 -4 -24 -12
s-9.16602 -17.833 -11.499 -29.5s-3.5 -23.834 -3.5 -36.501v-32c0 -30 0.5 -59.667 1.5 -89s1.5 -59.333 1.5 -90c0 -16.667 -0.666992 -33 -2 -49s-2 -32.333 -2 -49c-7.33301 -3.33301 -14.166 -5.16602 -20.499 -5.49902s-13.166 -0.5 -20.499 -0.5
c-17.333 0 -29.5 1.5 -36.5 4.5s-10.5 12.167 -10.5 27.5c0 22.667 0.666992 45.167 2 67.5s2 44.833 2 67.5v181c0 21.333 -1.33301 43 -4 65s-4 43.333 -4 64c0 8.66699 2.5 15 7.5 19s11 6.83301 18 8.5s14.5 2.5 22.5 2.5h20c4.66699 0 9.66699 -1 15 -3z" />
    <glyph glyph-name="s" unicode="s" horiz-adv-x="341" 
d="M194 284c12 -8.66699 24.1699 -18.3369 36.5029 -29.0039s23.5 -22.334 33.5 -35.001s18.167 -26.167 24.5 -40.5s9.5 -29.5 9.5 -45.5c0 -13.333 -2 -27.666 -6 -42.999s-10 -28.666 -18 -39.999v1c-11.333 -17.333 -26.666 -30.5 -45.999 -39.5
s-39.333 -13.5 -60 -13.5c-38 0 -72 12 -102 36v-1c-2.66699 2 -6 4.83301 -10 8.5s-7.66699 7.83398 -11 12.501s-6.33301 9.33398 -9 14.001s-4 8.66699 -4 12c2 4 5.66699 8.66699 11 14s11.333 10.333 18 15s13.334 8.66699 20.001 12s12.334 5 17.001 5
c3.33301 0 7.66602 -2 12.999 -6l18 -13.5c6.66699 -5 13.667 -9.5 21 -13.5s15 -6 23 -6c7.33301 0 13.166 5 17.499 15s6.5 18 6.5 24c0 10 -2.83301 20 -8.5 30s-12.5 19.667 -20.5 29s-16.5 17.833 -25.5 25.5l-24.5 20.5l-33 26c-10 8 -18.333 16.667 -25 26
s-11.834 19.833 -15.501 31.5s-5.5 26.167 -5.5 43.5s3.5 33.666 10.5 48.999s16.5 28.833 28.5 40.5s25.667 20.834 41 27.501s31.666 10 48.999 10c11.333 0 21.333 -1.66699 30 -5v1c7.33301 -2 16 -5 26 -9s19.333 -8.83301 28 -14.5s16 -12 22 -19s9 -13.833 9 -20.5
c-2.66699 -4 -6.83398 -8.66699 -12.501 -14s-11.834 -10.666 -18.501 -15.999s-13.334 -9.83301 -20.001 -13.5s-12 -5.5 -16 -5.5c-2 0 -4.33301 1.16699 -7 3.5s-6 5 -10 8s-8.66699 5.66699 -14 8s-11 3.5 -17 3.5c-10 0 -17.333 -3.33301 -22 -10s-7 -14.667 -7 -24
c0 -8 1.83301 -15.667 5.5 -23s8.33398 -14 14.001 -20s11.667 -11.667 18 -17l18.5 -15h-1v0z" />
    <glyph glyph-name="t" unicode="t" horiz-adv-x="310" 
d="M169 559c1.33301 -16 2.5 -32.166 3.5 -48.499s2.16699 -32.833 3.5 -49.5c12.667 -1.33301 25 -1.83301 37 -1.5s24 -1.16699 36 -4.5l-1 -10c3.33301 -11.333 5 -21.666 5 -30.999c0 -15.333 -4 -24.5 -12 -27.5s-18 -4.5 -30 -4.5h-37
c-0.666992 -9.33301 -1 -18.5 -1 -27.5v-27.5v-43.5v-51c0 -17.667 0.333008 -35 1 -52s1.66699 -32.167 3 -45.5s3.16602 -24.333 5.49902 -33s5.5 -13.334 9.5 -14.001c4.66699 1.33301 7.83398 3.33301 9.50098 6s5.83398 4 12.501 4c2 0 6 -2 12 -6
s12.167 -8.5 18.5 -13.5s12 -9.83301 17 -14.5s7.5 -8 7.5 -10c0 -8.66699 -2.5 -16.334 -7.5 -23.001s-11.333 -12.334 -19 -17.001s-15.834 -8.16699 -24.501 -10.5s-16.667 -3.5 -24 -3.5c-8 0 -16.667 1.83301 -26 5.5s-17.666 7.16699 -24.999 10.5l-4 1
c-11.333 6.66699 -20.333 15.5 -27 26.5s-11.5 23 -14.5 36s-4.83301 26.333 -5.5 40s-1 26.5 -1 38.5c0 35.333 -0.333008 71.5 -1 108.5s-3.33398 74.167 -8.00098 111.5c-2 0.666992 -4.16699 1 -6.5 1h-6.5c-3.33301 0 -6.33301 -0.166992 -9 -0.5
s-5.66699 -0.5 -9 -0.5c-6 0 -10.5 5.66699 -13.5 17s-4.5 23 -4.5 35c0 10.667 1.33301 18.5 4 23.5s6.16699 8 10.5 9s9 1.16699 14 0.5s10.167 -1 15.5 -1c0 12 -0.166992 23.667 -0.5 35s-0.5 22.666 -0.5 33.999c0 10.667 1.66699 18.834 5 24.501s7.5 9.66699 12.5 12
s10.833 3.5 17.5 3.5h20c4.66699 0 9.66699 -0.666992 15 -2s13 -4.66602 23 -9.99902z" />
    <glyph glyph-name="u" unicode="u" horiz-adv-x="385" 
d="M332 449c0 -36 -0.331055 -72.1719 -0.998047 -108.505s-1 -72.833 -1 -109.5c0 -28 2 -59 6 -93s6 -66 6 -96c0 -10 -0.833008 -17.667 -2.5 -23s-4.33398 -9.16602 -8.00098 -11.499s-8.16699 -3.5 -13.5 -3.5h-19c-11.333 0 -20.666 0.5 -27.999 1.5
s-13.333 6.83301 -18 17.5c-5.33301 -4 -10 -7.16699 -14 -9.5s-8 -4.16602 -12 -5.49902s-8.16699 -2.33301 -12.5 -3s-9.83301 -1.66699 -16.5 -3h1c-8 -2 -16.333 -3 -25 -3c-22.667 0 -43.334 5.16699 -62.001 15.5s-34.334 24.5 -47.001 42.5v-1
c-6.66699 8.66699 -11 17.167 -13 25.5s-5 17.166 -9 26.499l1 -1c-2.66699 7.33301 -4.83398 19 -6.50098 35s-2.83398 33.5 -3.50098 52.5s-1.16699 38.333 -1.5 58s-0.5 36.5 -0.5 50.5v81c0 15.333 0.166992 30.5 0.5 45.5s1.5 30.167 3.5 45.5c14 6 29 9 45 9
c6.66699 0 13.334 -0.166992 20.001 -0.5s12.334 -1.66602 17.001 -3.99902s8.5 -6.16602 11.5 -11.499s4.5 -12.666 4.5 -21.999c0 -46 -2 -92 -6 -138s-6 -92 -6 -138c0 -18.667 4 -34 12 -46s22.333 -18 43 -18c5.33301 0 11 0.833008 17 2.5s11.667 3.83398 17 6.50098
l-1 -1c6 3.33301 10.667 9.5 14 18.5s5.83301 18.667 7.5 29s2.66699 21 3 32s0.5 20.167 0.5 27.5c0 39.333 -1.83301 78.5 -5.5 117.5s-5.5 78.167 -5.5 117.5c0 6.66699 1.83301 12 5.5 16s8.5 7 14.5 9s12.5 3.33301 19.5 4s13.833 1 20.5 1
c12.667 0 22.167 -0.666992 28.5 -2s11 -3.33301 14 -6s4.66699 -6.5 5 -11.5s0.5 -10.833 0.5 -17.5z" />
    <glyph glyph-name="v" unicode="v" horiz-adv-x="307" 
d="M43 481c6.66699 0.666992 13.5 1.1709 20.5 1.50391s13.833 0.5 20.5 0.5c7.33301 0 14.833 -0.666992 22.5 -2s14.834 -4.33301 21.501 -9v-5c0 -11.333 1 -28 3 -50s4.33301 -45.333 7 -70s5.5 -48 8.5 -70s5.5 -38.333 7.5 -49c2 10 4.16699 26.667 6.5 50
s4.5 47.666 6.5 72.999s3.66699 49.666 5 72.999s2 40 2 50c6.66699 7.33301 14 11.833 22 13.5s16.667 2.5 26 2.5h21c6.66699 -2.66699 12.167 -6.33398 16.5 -11.001s6.5 -10.667 6.5 -18c0 -16.667 -2 -35.834 -6 -57.501s-7.33301 -41.5 -10 -59.5l-44 -319
c-1.33301 -7.33301 -4 -13.333 -8 -18s-10 -7 -18 -7c-3.33301 0 -7.5 0.166992 -12.5 0.5s-10.333 0.666016 -16 0.999023s-11 1 -16 2s-8.83301 2.16699 -11.5 3.5c-3.33301 7.33301 -7.83301 22.833 -13.5 46.5s-11.834 51.167 -18.501 82.5l-20.5 100.5l-19.5 101
c-6 31.667 -10.833 59.334 -14.5 83.001s-5.5 39.5 -5.5 47.5v3z" />
    <glyph glyph-name="w" unicode="w" horiz-adv-x="508" 
d="M286 7c-8 40 -15.3379 80.667 -22.0049 122s-15.667 82 -27 122c-2 -7.33301 -4 -18 -6 -32l-7 -47.5l-8 -54.5l-7.5 -52c-2.33301 -16 -4.66602 -29.667 -6.99902 -41s-4.16602 -18.333 -5.49902 -21c-9.33301 -1.33301 -18.333 -2 -27 -2s-17.667 -0.666992 -27 -2
c-2 1.33301 -6.16699 12.166 -12.5 32.499s-13.333 45.833 -21 76.5l-24.5 100l-24 102.5c-7.33301 32.333 -13.333 60.166 -18 83.499s-7 38 -7 44s2.66699 10.833 8 14.5s11.5 6.33398 18.5 8.00098s14.167 2.83398 21.5 3.50098s13 1 17 1c9.33301 0 16.333 -1.5 21 -4.5
s9 -8.83301 13 -17.5c1.33301 -2.66699 2.83301 -8.83398 4.5 -18.501s3.33398 -21.167 5.00098 -34.5s3.16699 -27.5 4.5 -42.5l4 -43l3.5 -36c1 -10.333 1.83301 -17.5 2.5 -21.5l3.5 25c1.66699 12 3.83398 26 6.50098 42s5.83398 32.5 9.50098 49.5s7.5 32.5 11.5 46.5
s8.33301 25.667 13 35s9.33398 14 14.001 14c2.66699 0 5 -0.166992 7 -0.5s4.33301 -0.5 7 -0.5l24 -2h10.5c6.33301 0 9.83301 0.666992 10.5 2c8 -21.333 14.5 -43.166 19.5 -65.499s9.5 -43.833 13.5 -64.5s8 -39.667 12 -57s9 -31.333 15 -42
c4.66699 26 8.5 52 11.5 78s6.16699 51.667 9.5 77c1.33301 11.333 3 23.333 5 36s3 25 3 37c0 2.66699 1.5 4.5 4.5 5.5s6.66699 1.66699 11 2s8.66602 0.5 12.999 0.5h10.5h16.5c6.33301 0 12 -0.5 17 -1.5s9.33301 -3.16699 13 -6.5s5.5 -8.33301 5.5 -15
c0 -24.667 -2.33301 -50 -7 -76s-9 -51.333 -13 -76l-25 -132l-27 -132c0 -10.667 -4.16699 -16.5 -12.5 -17.5s-16.5 -1.5 -24.5 -1.5s-15.833 0.333008 -23.5 1s-15.5 1 -23.5 1z" />
    <glyph glyph-name="x" unicode="x" horiz-adv-x="377" 
d="M233 205l28.0029 -61.0049c9.33301 -20 20.666 -39.333 33.999 -58c5.33301 -8 11.166 -17.333 17.499 -28s9.5 -21 9.5 -31c0 -6 -3.5 -10.667 -10.5 -14s-15.333 -5.66602 -25 -6.99902s-19.167 -2 -28.5 -2h-21h-5l-31.5 47.5
c-10.333 15.667 -20.166 31.834 -29.499 48.501c-4.66699 -9.33301 -8.83398 -19.833 -12.501 -31.5s-8 -22.5 -13 -32.5s-11.5 -18.5 -19.5 -25.5s-18.333 -10.5 -31 -10.5c-3.33301 0 -7.83301 0.333008 -13.5 1s-11.167 1.66699 -16.5 3s-10 3 -14 5s-6 4.66699 -6 8
c0 9.33301 3.33301 23 10 41s14.5 36.667 23.5 56s18.167 38 27.5 56l22 42l-39.5 108c-13 34.667 -30.167 68.667 -51.5 102c-3.33301 5.33301 -5 11 -5 17c0 5.33301 3.16699 9.66602 9.5 12.999s13.666 5.83301 21.999 7.5s16.5 2.83398 24.5 3.50098s14 1 18 1
c8 0 15 -5.16699 21 -15.5s11.5 -22.666 16.5 -36.999s10 -29.5 15 -45.5s10.167 -29.667 15.5 -41c2.66699 6.66699 6.16699 16.834 10.5 30.501s9.16602 27.667 14.499 42s10.833 27.333 16.5 39s11.167 18.834 16.5 21.501h-1c3.33301 2 8.83301 4 16.5 6
s15.834 3.66699 24.501 5s17.167 2.33301 25.5 3s14.5 1 18.5 1c12 0 18 -5.33301 18 -16c0 -8 -4.16699 -22.833 -12.5 -44.5s-17.833 -45 -28.5 -70l-31.5 -71.5c-10.333 -22.667 -17.5 -39 -21.5 -49v1z" />
    <glyph glyph-name="y" unicode="y" horiz-adv-x="343" 
d="M102 -89c-6 4 -10.499 7.66992 -13.499 11.0029s-5.5 8.66602 -7.5 15.999c2 4 3.83301 7.83301 5.5 11.5s3.5 7.16699 5.5 10.5h-1l2 2l2 3c3.33301 6.66699 8.33301 14.167 15 22.5s14 13.5 22 15.5l16 -10h-1c3.33301 -2.66699 6.83301 -5.16699 10.5 -7.5
s7.83398 -3.5 12.501 -3.5c9.33301 0 16 4 20 12s6.66699 15.667 8 23c-8 -2.66699 -17.333 -4 -28 -4c-31.333 0 -55.833 9.16699 -73.5 27.5s-31 41.166 -40 68.499s-14.5 57.166 -16.5 89.499s-3 62.166 -3 89.499v49c0 18 -0.666992 36.333 -2 55s-2 37 -2 55
c0 6 0.666992 13 2 21s3.66602 14.333 6.99902 19c5.33301 -0.666992 10.833 -1.16699 16.5 -1.5s11.5 -0.5 17.5 -0.5c5.33301 0 11 0.166992 17 0.5s11.667 0.833008 17 1.5c7.33301 -18.667 11 -38.667 11 -60c0 -9.33301 -0.166992 -18.333 -0.5 -27
s-0.5 -17.667 -0.5 -27c0 -19.333 0.5 -42.666 1.5 -69.999s3 -53.833 6 -79.5s7.66699 -47.5 14 -65.5s14.833 -27 25.5 -27c10 0 17.833 4 23.5 12s9.66699 18 12 30s3.83301 24.667 4.5 38s1 25.333 1 36c0 29.333 -0.5 58.5 -1.5 87.5s-2.16699 58.167 -3.5 87.5v4
c0 2 -0.166992 4.16699 -0.5 6.5s-0.5 4.5 -0.5 6.5c0 1.33301 0.166992 3.16602 0.5 5.49902s0.5 4.16602 0.5 5.49902c-0.666992 2 -1 4.16699 -1 6.5v6.5c0 6 1.66699 10.667 5 14s7.5 5.83301 12.5 7.5s10.333 2.83398 16 3.50098s10.834 1 15.501 1
c6.66699 0 13 -0.333008 19 -1s12.667 -1.33398 20 -2.00098c3.33301 -15.333 5.83301 -31.166 7.5 -47.499s2.5 -32.5 2.5 -48.5c0 -14.667 -0.166992 -29 -0.5 -43s-0.5 -28.333 -0.5 -43c0 -15.333 0.166992 -30.5 0.5 -45.5s0.5 -30.167 0.5 -45.5
c0 -10.667 0.333008 -26 1 -46s0.166992 -42 -1.5 -66s-4.83398 -48.5 -9.50098 -73.5s-12.334 -47.833 -23.001 -68.5s-25 -37.5 -43 -50.5s-40.667 -19.5 -68 -19.5c-3.33301 0 -7.5 0.833008 -12.5 2.5s-10.333 3.83398 -16 6.50098l-16 7.5
c-5 2.33301 -8.83301 4.5 -11.5 6.5z" />
    <glyph glyph-name="z" unicode="z" horiz-adv-x="327" 
d="M154 81c11.333 0 22.667 0.331055 34 0.998047s22.666 1 33.999 1c4.66699 0 10.5 -0.166992 17.5 -0.5s13.833 -1.33301 20.5 -3s12.5 -4.16699 17.5 -7.5s7.5 -8.33301 7.5 -15c0 -2.66699 -0.333008 -4.66699 -1 -6c0 -2.66699 0.166992 -5 0.5 -7
s0.5 -4.33301 0.5 -7c0 -14 -2.66699 -27.333 -8 -40c-36 0 -71.667 -0.166992 -107 -0.5s-71 -0.5 -107 -0.5c-20.667 0 -31 9.66699 -31 29c0 4.66699 2.83301 15.834 8.5 33.501s13 39 22 64l29.5 80.5l30.5 81.5l25.5 68c7.33301 19.667 12.333 32.834 15 39.501
c-3.33301 0.666992 -6.33301 1 -9 1h-9c-12 0 -24 -1 -36 -3s-24 -3 -36 -3c-18 0 -28.5 4.33301 -31.5 13s-4.5 20.334 -4.5 35.001c0 11.333 2.33301 23.333 7 36c16 3.33301 32.167 5.33301 48.5 6s33.166 1 50.499 1l20 0.5c13.333 0.333008 28.333 0.333008 45 0
s31.834 -1.5 45.501 -3.5s20.5 -5.33301 20.5 -10c0 -10 -2.66699 -24.5 -8 -43.5s-12.166 -40.333 -20.499 -64l-27.5 -75l-29.5 -77l-26.5 -70c-8 -21.667 -14 -39.834 -18 -54.501h10z" />
    <glyph glyph-name="braceleft" unicode="{" horiz-adv-x="296" 
d="M242 670c2.66699 -5.33301 4.33496 -12.3311 5.00195 -20.998s1 -16 1 -22c0 -7.33301 -0.166992 -14.166 -0.5 -20.499s-0.5 -13.166 -0.5 -20.499c-5.33301 1.33301 -10.5 2.5 -15.5 3.5s-10.167 1.5 -15.5 1.5c-11.333 0 -18.5 -4.33301 -21.5 -13s-4.5 -17 -4.5 -25
c0 -10 0.666992 -20 2 -30s2 -20 2 -30c0 -20.667 -2.83301 -41.334 -8.5 -62.001s-15.167 -39 -28.5 -55v1l-8 -10c-0.666992 -1.33301 -2.83398 -3.5 -6.50098 -6.5s-6.5 -4.5 -8.5 -4.5l-1 1c0.666992 -2.66699 2.33398 -5.33398 5.00098 -8.00098s4.66699 -5 6 -7
c22.667 -25.333 38.834 -51.5 48.501 -78.5s14.5 -56.5 14.5 -88.5c0 -6 -0.166992 -12 -0.5 -18s-0.833008 -12 -1.5 -18c4.66699 -15.333 10.167 -24.5 16.5 -27.5s12.166 -4.5 17.499 -4.5s10 -0.833008 14 -2.5s6 -8.16699 6 -19.5v-24
c0 -7.33301 -1.5 -13.5 -4.5 -18.5s-8.33301 -9 -16 -12s-19.167 -4.5 -34.5 -4.5c-21.333 0 -38.333 4.83301 -51 14.5s-22.334 22 -29.001 37s-11 31.667 -13 50s-3.33301 36.166 -4 53.499s-1.33398 33.166 -2.00098 47.499s-3 24.833 -7 31.5v-1
c-5.33301 7.33301 -11.666 13.833 -18.999 19.5s-14.5 11.834 -21.5 18.501s-13 14.667 -18 24s-7.5 21 -7.5 35c0 16 3.66699 28.833 11 38.5s15.5 19 24.5 28s17.333 18.833 25 29.5s11.5 25.334 11.5 44.001c0 11.333 -0.5 22.5 -1.5 33.5s-1.5 22.167 -1.5 33.5
c0 24 4.83301 45.667 14.5 65s26.5 33.666 50.5 42.999h-1c7.33301 3.33301 15.166 5.16602 23.499 5.49902s16.166 0.5 23.499 0.5c4 0 9.33301 -0.333008 16 -1s11.334 -3 14.001 -7v1z" />
    <glyph glyph-name="bar" unicode="|" horiz-adv-x="173" 
d="M51 -21c-8.66699 6 -14.333 13.4961 -17 22.4961s-4 18.167 -4 27.5c0 6 0.333008 12 1 18s1 12 1 18c3.33301 38 5.33301 75.833 6 113.5s1 75.5 1 113.5c0 64 -1.16699 127.5 -3.5 190.5s-3.5 126.167 -3.5 189.5c0 20.667 4.5 33.167 13.5 37.5s20.833 6.5 35.5 6.5
c7.33301 0 14.5 0.166992 21.5 0.5s13.333 -0.166992 19 -1.5s10.167 -4 13.5 -8s5 -10.333 5 -19c0 -12 -0.833008 -24.167 -2.5 -36.5s-2.5 -24.5 -2.5 -36.5v-157c0 -26 -1 -52.167 -3 -78.5s-3 -52.833 -3 -79.5c0 -22 0.666992 -44.167 2 -66.5s2 -44.833 2 -67.5
c0 -11.333 -0.5 -22.166 -1.5 -32.499s-1.5 -21.166 -1.5 -32.499s0.5 -22.666 1.5 -33.999s1.5 -22.666 1.5 -33.999c0 -14 -2.5 -24.833 -7.5 -32.5s-11.5 -13 -19.5 -16s-16.833 -4.66699 -26.5 -5s-19.167 -0.5 -28.5 -0.5z" />
    <glyph glyph-name="braceright" unicode="}" horiz-adv-x="292" 
d="M50 111c10 0.666992 18.333 1.83398 25 3.50098s12.334 4.66699 17.001 9s8 11 10 20s3 21.5 3 37.5v39c0 23.333 2.16699 46.833 6.5 70.5s15.166 44.167 32.499 61.5v-1c1.33301 2 3 4.16699 5 6.5s3 5.16602 3 8.49902c0 1.33301 -0.333008 2.33301 -1 3
s-1.33398 1.66699 -2.00098 3c-7.33301 8 -13.666 15.333 -18.999 22s-9.83301 13.334 -13.5 20.001s-6.5 14.167 -8.5 22.5s-3.66699 18.166 -5 29.499c-1.33301 15.333 -1.83301 31.5 -1.5 48.5s-1.83398 33.167 -6.50098 48.5c-2.66699 8 -7.33398 13.333 -14.001 16
s-13.667 5 -21 7s-13.833 5 -19.5 9s-8.5 11.667 -8.5 23c0 9.33301 1.33301 17.666 4 24.999h-1c2 9.33301 5 15.5 9 18.5s10.667 4.5 20 4.5c19.333 0 38.333 -2.5 57 -7.5s33 -16.833 43 -35.5v1c8.66699 -14.667 14.167 -29.667 16.5 -45s4.33301 -30.666 6 -45.999
s3.83398 -30.333 6.50098 -45s9 -28.334 19 -41.001v1l29.5 -37.5c9.66699 -12.333 14.5 -27.166 14.5 -44.499c0 -15.333 -3.33301 -27.666 -10 -36.999s-14.167 -18.833 -22.5 -28.5s-15.833 -20.5 -22.5 -32.5s-10 -28.333 -10 -49c0 -13.333 0.666992 -26.5 2 -39.5
s2 -26.167 2 -39.5c0 -15.333 -2.66699 -30.333 -8 -45s-13.166 -27.834 -23.499 -39.501s-23.5 -21 -39.5 -28s-34.667 -10.5 -56 -10.5c-3.33301 0 -7 0.166992 -11 0.5s-8 0.833008 -12 1.5z" />
    <glyph glyph-name="asciitilde" unicode="~" horiz-adv-x="436" 
d="M358 274c-10.667 -11.333 -22.8301 -19.3359 -36.4971 -24.0029s-28.167 -7 -43.5 -7c-17.333 0 -33.333 2.5 -48 7.5s-27.834 10.333 -39.501 16s-22 11 -31 16s-15.833 7.5 -20.5 7.5c-7.33301 0 -14.166 -1.66699 -20.499 -5s-12.166 -7.16602 -17.499 -11.499
l-14.5 -11.5c-4.33301 -3.33301 -8.5 -5 -12.5 -5c-3.33301 0 -7.33301 2.33301 -12 7s-9.33398 10.167 -14.001 16.5s-8.5 12.666 -11.5 18.999s-4.5 11.5 -4.5 15.5c0 4.66699 1.83301 9.33398 5.5 14.001s8 9 13 13s10.333 7.66699 16 11s10.5 6 14.5 8h-1
c10.667 6.66699 21.834 12.334 33.501 17.001s24.167 7 37.5 7c21.333 0 40.666 -6.66699 57.999 -20l-1 1l33.5 -20c13 -8 24.833 -12 35.5 -12c5.33301 0 10 1.83301 14 5.5l12 11.5c4 4 8.66699 7.83301 14 11.5s12 5.5 20 5.5c7.33301 0 15.666 -1.5 24.999 -4.5
s16.666 -7.16699 21.999 -12.5h-1c3.33301 -3.33301 6.33301 -6.66602 9 -9.99902s4 -7.33301 4 -12c0 -9.33301 -3.83301 -18.5 -11.5 -27.5s-14.834 -16.167 -21.501 -21.5h1l-6 -7v1z" />
    <glyph glyph-name="exclamdown" unicode="&#xa1;" horiz-adv-x="172" 
d="M71 361c-13.333 0 -23.5 4.99902 -30.5 14.999s-10.5 20.667 -10.5 32c0 12 5.5 22.5 16.5 31.5s22.167 13.5 33.5 13.5c10 0 19.333 -5.16699 28 -15.5s13 -20.166 13 -29.499c0 -12.667 -5.33301 -23.667 -16 -33s-22 -14 -34 -14zM33 267.999
c0 6.66699 0.667969 13.499 2.00098 20.499s3.66602 13.5 6.99902 19.5h-1c5.33301 8 12.833 13 22.5 15s18.5 3 26.5 3h17.5c5 0 9.16699 -0.833008 12.5 -2.5s5.83301 -4.66699 7.5 -9s2.5 -10.833 2.5 -19.5c0 -9.33301 -0.833008 -18.5 -2.5 -27.5
s-2.5 -18.167 -2.5 -27.5c0 -63.333 2.33301 -126.333 7 -189s7 -126 7 -190c0 -7.33301 -0.333008 -15 -1 -23s-2.5 -15.5 -5.5 -22.5s-7.16699 -12.667 -12.5 -17s-13 -6.5 -23 -6.5c-16 0 -30.667 2.33301 -44 7c-4 32 -6.5 64.333 -7.5 97s-2.16699 65.334 -3.5 98.001
l-6 137c-2 45.333 -3 91 -3 137z" />
    <glyph glyph-name="cent" unicode="&#xa2;" horiz-adv-x="345" 
d="M264 513c10.667 -7.33301 20.0039 -17.8252 28.0039 -31.4922s12 -25.167 12 -34.5c0 -11.333 -4.83301 -20.666 -14.5 -27.999s-20.834 -11 -33.501 -11c-7.33301 0 -12.833 3.66699 -16.5 11l-13.5 26c-1.33301 -24 -2.33301 -44.167 -3 -60.5
s-1.33398 -30.166 -2.00098 -41.499s-1.16699 -20.833 -1.5 -28.5s-0.5 -14.834 -0.5 -21.501c0 -15.333 0.166992 -34.5 0.5 -57.5s0.5 -45.167 0.5 -66.5v-30c0.666992 0.666992 2 2.83398 4 6.50098l6.5 12c2.33301 4.33301 4.5 8.16602 6.5 11.499s3.66699 5 5 5
c5.33301 -0.666992 12.666 -3.83398 21.999 -9.50098s18.666 -9.16699 27.999 -10.5c5.33301 -7.33301 8 -16 8 -26c0 -8 -1.5 -16 -4.5 -24s-7 -15.5 -12 -22.5s-10.667 -13.333 -17 -19s-12.166 -9.83398 -17.499 -12.501l-14 -8c-4 -1.33301 -6.33301 -2.33301 -7 -3
s-3.33398 -1.66699 -8.00098 -3v-5c0 -4 -0.333008 -8.66699 -1 -14s-1.66699 -10.333 -3 -15s-3.33301 -8.66699 -6 -12s-6.33398 -5 -11.001 -5h-14c-9.33301 0 -18.166 -0.333008 -26.499 -1s-17.166 -1 -26.499 -1c-8.66699 0 -13.167 5.16699 -13.5 15.5
s-0.5 21.166 -0.5 32.499v15c-20 18 -35.667 33 -47 45s-20 25.167 -26 39.5s-9.66699 31.666 -11 51.999s-2 47.5 -2 81.5c0 19.333 0.166992 38.833 0.5 58.5s1.66602 39 3.99902 58s6.33301 37.5 12 55.5s13.834 34.667 24.501 50v-1
c8.66699 9.33301 15.667 16.166 21 20.499s10 7.66602 14 9.99902s8.33301 4.16602 13 5.49902s10.667 4 18 8c0 5.33301 -0.166992 11.5 -0.5 18.5s-0.5 13.5 -0.5 19.5c0 7.33301 0.333008 14.166 1 20.499s3 11.666 7 15.999s10.333 7.83301 19 10.5s21.334 4 38.001 4
c11.333 0 18.166 -3.16699 20.499 -9.5s4.16602 -13.833 5.49902 -22.5v-24c0 -5.33301 -0.333008 -10.5 -1 -15.5s-1 -9.83301 -1 -14.5v-3zM133.004 425.008c-3.33301 -5.33301 -6.66504 -10.999 -9.99805 -16.999s-6.33301 -13.667 -9 -23
s-4.83398 -21.666 -6.50098 -36.999s-2.83398 -35 -3.50098 -59c0.666992 -20 2.5 -38.833 5.5 -56.5s6 -33 9 -46s5.66699 -23 8 -30s3.5 -10.167 3.5 -9.5c0.666992 16 1.16699 35 1.5 57l1 67l1 65.5c0.333008 21 0.5 38.833 0.5 53.5
c0 5.33301 -0.166992 10.166 -0.5 14.499s-0.5 8.16602 -0.5 11.499v9z" />
    <glyph glyph-name="sterling" unicode="&#xa3;" horiz-adv-x="447" 
d="M58 26c-1.33301 9.33301 -2.16602 19.1719 -2.49902 29.5049s-0.5 20.166 -0.5 29.499c8.66699 10.667 15.834 19 21.501 25s10.167 11.5 13.5 16.5s5.5 10.5 6.5 16.5s1.5 14.333 1.5 25v13c0 6.66699 -0.166992 13.667 -0.5 21s-0.666016 14 -0.999023 20
s-0.833008 9.33301 -1.5 10c-6 0 -12.167 -0.333008 -18.5 -1s-12.833 -1 -19.5 -1c-11.333 0 -18.333 4.66699 -21 14s-4 19.333 -4 30c0 15.333 1.5 26.5 4.5 33.5s7 11.667 12 14s11.167 3.16602 18.5 2.49902s15.666 -0.333984 24.999 0.999023
c-1.33301 30.667 -2.5 61.167 -3.5 91.5s-1.5 60.5 -1.5 90.5c0 48.667 17.667 88.667 53 120h-1c13.333 14.667 29.333 26 48 34s37.667 12 57 12c6.66699 0 16 -1.16699 28 -3.5s23.667 -5.83301 35 -10.5s21.166 -10.5 29.499 -17.5s12.5 -15.167 12.5 -24.5
c0 -4 -1 -7.5 -3 -10.5s-4.33301 -6.16699 -7 -9.5v1c-4.66699 -5.33301 -9.83398 -10.666 -15.501 -15.999l-16.5 -16h1c-6.66699 -6.66699 -14 -10 -22 -10c-9.33301 0 -18.333 3 -27 9s-18.334 9 -29.001 9c-6 0 -11.167 -2.83301 -15.5 -8.5s-8 -12.5 -11 -20.5
s-5.33301 -16 -7 -24s-2.83398 -14 -3.50098 -18v2c-2 -14.667 -3.66699 -29.334 -5 -44.001s-2 -29.334 -2 -44.001c0 -13.333 0.5 -26.833 1.5 -40.5s1.5 -27.167 1.5 -40.5v-10h7l43.5 2c14.333 0.666992 28.833 1 43.5 1c12 0 19.5 -4.33301 22.5 -13
s4.5 -17.667 4.5 -27c0 -12.667 -1.5 -24.667 -4.5 -36s-12.5 -17 -28.5 -17l-1 1c-4 -1.33301 -8 -2 -12 -2h-12c-8 0 -15.833 0.333008 -23.5 1s-15.167 1 -22.5 1c-1.33301 0 -3.66602 -0.166992 -6.99902 -0.5s-5 -1.5 -5 -3.5v-48c0 -12.667 -0.833008 -26 -2.5 -40
s-4.5 -27 -8.5 -39h8c10 0 20 -0.5 30 -1.5s20 -1.5 30 -1.5s21.333 1.83301 34 5.5s20.667 10.5 24 20.5c1.33301 20.667 11.333 31 30 31s35 -2.33301 49 -7v1c12.667 -3.33301 19 -11 19 -23c0 -4.66699 -1 -8.33398 -3 -11.001c-10.667 -32 -26.667 -59.167 -48 -81.5
s-50 -33.5 -86 -33.5h-69c-22.667 0 -45 1.66699 -67 5c-2 0 -6.16699 0.166992 -12.5 0.5s-13.166 0.833008 -20.499 1.5s-14 1.16699 -20 1.5s-9.33301 0.833008 -10 1.5z" />
    <glyph glyph-name="currency" unicode="&#xa4;" horiz-adv-x="378" 
d="M32 8c0 7.33301 2.00586 15.001 6.00586 23.001s8.66699 15.667 14 23l15 21c4.66699 6.66699 7.66699 12.334 9 17.001c-4 11.333 -7.33301 22.166 -10 32.499s-4 23.5 -4 39.5v49.5c0 14.333 1 28.5 3 42.5c1.33301 13.333 5 28 11 44s9 30.667 9 44
c0 2 -2.16699 6 -6.5 12l-14 19.5c-5 7 -9.66699 14 -14 21s-6.5 12.5 -6.5 16.5c0 2.66699 2.16699 6.33398 6.5 11.001s9.16602 9.33398 14.499 14.001s10.833 9.16699 16.5 13.5s9.5 7.5 11.5 9.5c8 -5.33301 14.167 -10.166 18.5 -14.499s8 -8.83301 11 -13.5l9 -14
c3 -4.66699 7.16699 -10 12.5 -16c7.33301 6 13.666 10.5 18.999 13.5s12.666 4.5 21.999 4.5c2 0 5.83301 -0.166992 11.5 -0.5s11.334 -1 17.001 -2s10.667 -2.16699 15 -3.5s6.83301 -3.33301 7.5 -6l23.5 36.5c5 7.66699 7.83301 12.834 8.5 15.501
c16 -3.33301 28.667 -6.33301 38 -9s16.166 -5.5 20.499 -8.5s7.16602 -5.66699 8.49902 -8s2 -4.5 2 -6.5c0 -10 -1.5 -19.167 -4.5 -27.5s-6.16699 -15.833 -9.5 -22.5s-6.5 -12 -9.5 -16s-4.5 -6.66699 -4.5 -8c8 -22.667 13.5 -44.834 16.5 -66.501s4.5 -42.5 4.5 -62.5
c0 -32.667 -3 -61.5 -9 -86.5s-12 -43.833 -18 -56.5c-0.666992 -0.666992 -1 -2 -1 -4c0 -4 1.83301 -8.66699 5.5 -14s7.66699 -10.666 12 -15.999s8.33301 -10.833 12 -16.5s5.5 -10.834 5.5 -15.501c0 -9.33301 -3 -17 -9 -23s-12.667 -10.5 -20 -13.5
s-14.5 -5 -21.5 -6s-11.833 -1.5 -14.5 -1.5c-6.66699 0 -10.334 1 -11.001 3h-1c-3.33301 5.33301 -6 11.166 -8 17.499s-4.66699 11.166 -8 14.499c-14 -6.66699 -30.667 -10 -50 -10c-7.33301 0 -17.333 2 -30 6s-22.334 7.66699 -29.001 11
c-3.33301 -9.33301 -8.33301 -19.5 -15 -30.5s-15.334 -16.5 -26.001 -16.5c-8.66699 0 -14.167 1.66699 -16.5 5s-6.16602 5.66602 -11.499 6.99902l1 -1c-0.666992 0 -2.83398 1 -6.50098 3s-7.66699 4.33301 -12 7s-8.16602 5.66699 -11.499 9s-5 6.66602 -5 9.99902z
M153.006 262.001c0 -6 0.499023 -17.5 1.49902 -34.5s3 -34.5 6 -52.5s7 -33.833 12 -47.5s11.833 -20.5 20.5 -20.5c5.33301 0 10 3.66699 14 11s7.5 16 10.5 26s5.16699 19.833 6.5 29.5s2 16.5 2 20.5c0 7.33301 -0.166992 18 -0.5 32s-1.66602 28 -3.99902 42
s-6.5 26.167 -12.5 36.5s-14.333 15.5 -25 15.5c-4 0 -8.33301 -1.66699 -13 -5l1 1c-9.33301 -7.33301 -14.833 -15.333 -16.5 -24s-2.5 -18.667 -2.5 -30z" />
    <glyph glyph-name="yen" unicode="&#xa5;" horiz-adv-x="391" 
d="M259 145c-4.66699 -0.666992 -9.83594 -1.00684 -15.5029 -1.00684h-16.5c0 -18 1 -36 3 -54s3 -41.333 3 -70c0 -6.66699 -1.33301 -12.5 -4 -17.5s-8.33398 -8.16699 -17.001 -9.5h1h-11l-13 -2c-3.33301 -0.666992 -8.33301 -1 -15 -1c-14 0 -22.5 4 -25.5 12
s-4.5 16 -4.5 24c0 3.33301 0.333008 6.83301 1 10.5s1 7.16699 1 10.5s-0.166992 6.66602 -0.5 9.99902s-0.5 6.66602 -0.5 9.99902c0 10 0.5 20.5 1.5 31.5s1.5 19.167 1.5 24.5v9.5c0 3 -0.333008 6.16699 -1 9.5c-2.66699 0 -7 -1 -13 -3h-5c-7.33301 0 -14 -1 -20 -3v1
c-5.33301 -1.33301 -10.166 -2.66602 -14.499 -3.99902s-9.16602 -2 -14.499 -2c-8 0 -14 2.33301 -18 7s-6.83301 10.834 -8.5 18.501s-2.66699 15.834 -3 24.501s-0.5 17 -0.5 25v8c0 3.33301 1.16699 6.33301 3.5 9s5.16602 4 8.49902 4l86 -1
c-0.666992 1.33301 -1 3.16602 -1 5.49902v8.5c0 6.66699 0.666992 10 2 10l-37 1c-9.33301 0 -18 -0.666992 -26 -2s-13 -1.66602 -15 -0.999023c-6 0 -10.667 1.83301 -14 5.5s-5.66602 8.33398 -6.99902 14.001s-2.16602 11.5 -2.49902 17.5s-0.5 11 -0.5 15v18v1
c0 7.33301 3.83301 11.666 11.5 12.999s13.5 2 17.5 2c0.666992 -0.666992 2.33398 -1.16699 5.00098 -1.5s5.33398 -0.5 8.00098 -0.5c4.66699 0 7.83398 0.166992 9.50098 0.5s3.66699 0.833008 6 1.5s6 1.16699 11 1.5s13.167 0.5 24.5 0.5l-7.5 15l-16 33.5l-16 35
c-5 11 -7.83301 17.5 -8.5 19.5l-5 13l-31 84c-10 28 -18 56.667 -24 86v8c0 2.66699 0.333008 4.66699 1 6v2c-0.666992 0.666992 -1 2 -1 4c0 2.66699 0.833008 5.16699 2.5 7.5s3.16699 4.16602 4.5 5.49902v-3c1.33301 5.33301 4 8.66602 8 9.99902l48 16h1
c4 0 8.66699 -4.66699 14 -14s10.833 -21 16.5 -35s11.167 -29.5 16.5 -46.5s10.166 -33.167 14.499 -48.5l11 -40c3 -11.333 4.83301 -18.666 5.5 -21.999h-1l8 -27c2 -9.33301 4.66699 -18 8 -26l7 32c1.33301 6.66699 2.5 13 3.5 19s2.5 12.333 4.5 19v-1
c4 15.333 10 32.333 18 51s13.667 35.667 17 51h-1l3 9v-1c0.666992 4 2.16699 10.5 4.5 19.5s5.33301 18 9 27s8.16699 16.833 13.5 23.5s11.666 10 18.999 10c2 0 4 -0.5 6 -1.5l7 -3.5h2h8.5c5 0 10.5 -0.666992 16.5 -2s11.5 -3.66602 16.5 -6.99902
s7.5 -8.66602 7.5 -15.999c0 -17.333 -2.66699 -34.5 -8 -51.5s-11.333 -33.5 -18 -49.5v1l-10 -27c-8.66699 -23.333 -16.5 -48.166 -23.5 -74.499l-21.5 -77.5l-7 -26h4c13.333 0 23.833 -0.5 31.5 -1.5s13.5 -2.66699 17.5 -5s6.5 -5.16602 7.5 -8.49902
s1.5 -7.33301 1.5 -12v-3c0 -3.33301 0.166992 -8 0.5 -14s0.5 -12.667 0.5 -20c0 -8 -1 -14.667 -3 -20s-6.66699 -8.66602 -14 -9.99902l-86 -5v-18h82c5.33301 -1.33301 10 -3.66602 14 -6.99902s6 -8.66602 6 -15.999c0 -6 -0.166992 -12.333 -0.5 -19
s-1.33301 -13 -3 -19s-4 -11 -7 -15s-7.16699 -6 -12.5 -6c-3.33301 0 -6.83301 0.333008 -10.5 1s-7.16699 1 -10.5 1c-4 0 -7.83301 -0.166992 -11.5 -0.5s-7.16699 -0.5 -10.5 -0.5z" />
    <glyph glyph-name="brokenbar" unicode="&#xa6;" horiz-adv-x="171" 
d="M38 364c-1.33301 16.667 -2.33496 31.668 -3.00195 45.001s-1.33398 26 -2.00098 38s-1 24.167 -1 36.5v39.5c0 6 1.66699 12.333 5 19v-1c1.33301 4 4.5 7.16699 9.5 9.5s10.5 4 16.5 5s12.333 1.66699 19 2s12.334 0.5 17.001 0.5c9.33301 0 16.333 -1 21 -3
s7.33398 -7.66699 8.00098 -17c3.33301 -42 5.33301 -84 6 -126s1 -84 1 -126c0 -7.33301 -4 -11.833 -12 -13.5s-15 -2.5 -21 -2.5h-1h-8.5c-2.33301 0 -5.16602 -0.333008 -8.49902 -1c-9.33301 1.33301 -17 3.66602 -23 6.99902l-16 9c0 6.66699 -0.333008 11.667 -1 15z
M136.998 206.001c0 -6.66699 0.333984 -13.5029 1.00098 -20.5029s1 -14.167 1 -21.5c0 -14.667 0.5 -33.334 1.5 -56.001s1.16699 -44.667 0.5 -66s-2.5 -39.833 -5.5 -55.5s-8.5 -23.834 -16.5 -24.501l-43 -5h-4c-13.333 0 -21.333 4.83301 -24 14.5s-4 20.167 -4 31.5
c0 37.333 -0.5 74.333 -1.5 111s-1.5 73.334 -1.5 110.001v3c5.33301 4 10 7.33301 14 10l12 5c3.33301 0 7.16602 0.333008 11.499 1s8.5 1 12.5 1s8.66699 -0.333008 14 -1s10.5 -1.66699 15.5 -3s9.16699 -3.16602 12.5 -5.49902s5 -5.16602 5 -8.49902
s-0.166992 -6.66602 -0.5 -9.99902s-0.5 -6.66602 -0.5 -9.99902z" />
    <glyph glyph-name="section" unicode="&#xa7;" horiz-adv-x="510" 
d="M401 391c-12 0 -20.5029 4.49316 -25.5029 13.4932s-9.83301 19 -14.5 30s-10.667 21.167 -18 30.5s-19 14 -35 14c-17.333 0 -31 -6.33301 -41 -19s-15 -27 -15 -43c0 -21.333 6.83301 -40.666 20.5 -57.999s28.167 -32.333 43.5 -45h-1
c16 -13.333 32.333 -27.666 49 -42.999s31.834 -31.666 45.501 -48.999s24.834 -36 33.501 -56s13 -41.333 13 -64c0 -39.333 -11.167 -70.666 -33.5 -93.999s-53.166 -36 -92.499 -38c4 -10 7.16699 -20.167 9.5 -30.5s3.5 -20.5 3.5 -30.5
c0 -23.333 -5 -44.666 -15 -63.999s-23 -36 -39 -50s-34.167 -25 -54.5 -33s-41.166 -12 -62.499 -12c-34 0 -62.667 11.667 -86 35v-1c-12.667 13.333 -24.167 29.5 -34.5 48.5s-15.5 38.167 -15.5 57.5c18.667 10.667 33.834 18.667 45.501 24s21.167 8 28.5 8
c10 0 16.333 -6.33301 19 -19c7.33301 -14.667 16.166 -26.167 26.499 -34.5s22.5 -12.5 36.5 -12.5c17.333 0 30.333 5.33301 39 16s13 24 13 40c0 8.66699 -1.66699 19 -5 31s-7.66602 21.667 -12.999 29c-16 20 -34.5 38.333 -55.5 55s-41.167 34 -60.5 52
s-35.666 38.167 -48.999 60.5s-20 49.166 -20 80.499c0 16.667 3 33 9 49s14.333 30.5 25 43.5s23.667 24.167 39 33.5s32.666 15.333 51.999 18l-7 11.5c-2.66699 4.33301 -4.33398 8.5 -5.00098 12.5v-1c-2.66699 10 -4 21 -4 33c0 20.667 4 40.334 12 59.001
s19 35.334 33 50.001s30.167 26.334 48.5 35.001s38.166 13 59.499 13c16 0 31.833 -2.5 47.5 -7.5s30.5 -12 44.5 -21s26.333 -19.833 37 -32.5s18.667 -26.667 24 -42c3.33301 -11.333 6 -22.833 8 -34.5s4.33301 -23.167 7 -34.5l-46 -9.5c-14 -3 -22 -4.5 -24 -4.5z
M211.997 285.993c-8 0 -15.8281 -2.83301 -23.4951 -8.5s-14.667 -12.667 -21 -21s-11.333 -17.333 -15 -27s-5.5 -18.167 -5.5 -25.5c0 -11.333 3.66699 -23.833 11 -37.5s15.666 -26.5 24.999 -38.5s18.833 -22.167 28.5 -30.5s16.5 -12.833 20.5 -13.5
c9.33301 -1.33301 19.166 -3.33301 29.499 -6s20.166 -4 29.499 -4c14 0 26.333 4.5 37 13.5s16 20.5 16 34.5c0 11.333 -3.33301 23.333 -10 36s-14.834 25 -24.501 37s-20.334 23.5 -32.001 34.5l-32 29c-9.66699 8.33301 -17.667 15 -24 20z" />
    <glyph glyph-name="dieresis" unicode="&#xa8;" horiz-adv-x="227" 
d="M168 573c-11.333 0 -21.168 3.33398 -29.501 10.001s-12.5 15.667 -12.5 27s4.33301 20.666 13 27.999s18.334 11 29.001 11c11.333 0 21 -4.33301 29 -13s12 -18 12 -28c0 -11.333 -4.33301 -20 -13 -26s-18 -9 -28 -9zM59.998 648.001
c4 2 8.00098 2.99902 12.001 2.99902c9.33301 0 17.666 -3.16699 24.999 -9.5s11 -14.166 11 -23.499c0 -14 -4.16699 -25.333 -12.5 -34s-19.5 -13 -33.5 -13c-21.333 0 -32 10.667 -32 32c0 9.33301 2.83301 18.333 8.5 27s13.167 14.667 22.5 18h-1z" />
    <glyph glyph-name="copyright" unicode="&#xa9;" horiz-adv-x="560" 
d="M289 769c31.333 0 58.001 -4.8291 80.001 -14.4961s43.667 -25.834 65 -48.501h-1c10.667 -6 20 -15.833 28 -29.5s14.667 -27.834 20 -42.501s9.5 -28.5 12.5 -41.5s5.16699 -21.833 6.5 -26.5v2c5.33301 -28 9.33301 -56.5 12 -85.5s4 -57.833 4 -86.5
c0 -40.667 -3.66699 -80.5 -11 -119.5s-20.333 -73.667 -39 -104s-43.5 -54.833 -74.5 -73.5s-70.5 -28 -118.5 -28c-28 0 -54.167 4.5 -78.5 13.5s-46.5 21.833 -66.5 38.5s-37 36.667 -51 60s-24.333 49.333 -31 78l1 -1c-6.66699 25.333 -10.667 51.666 -12 78.999
s-2 54 -2 80c0 12.667 0.833008 29.834 2.5 51.501s4 43.667 7 66s7 43.666 12 63.999s10.5 35.833 16.5 46.5c3.33301 5.33301 7.16602 10.666 11.499 15.999l13.5 16v-1l17 17.5c5.33301 5.66699 11.666 10.834 18.999 15.501h-1c15.333 10.667 30.5 19.667 45.5 27
s31.167 13.666 48.5 18.999l-1 -1c10.667 4 21.334 7.16699 32.001 9.5s21.667 3.5 33 3.5zM415.001 422.004c0 12 -0.333984 27.1689 -1.00098 45.502s-2.16699 37 -4.5 56s-5.83301 36.833 -10.5 53.5s-11.334 30 -20.001 40l-17 19
c-9.33301 10.667 -21.666 18.5 -36.999 23.5s-30 7.83301 -44 8.5c-25.333 0 -50.5 -7 -75.5 -21s-42.833 -33 -53.5 -57v1l-2 -8v2l-1 -5c-7.33301 -36 -13.333 -71 -18 -105s-7 -69.333 -7 -106c0 -9.33301 1.16699 -22.166 3.5 -38.499s6.33301 -33.333 12 -51
s13.334 -34.334 23.001 -50.001s21.5 -27.834 35.5 -36.501l13 -8l-1 1c10 -5.33301 21.167 -10.5 33.5 -15.5s24.166 -7.5 35.499 -7.5c3.33301 0 7.83301 1.33301 13.5 4l12.5 6v-1c28.667 11.333 50.667 25.666 66 42.999s26.333 36.833 33 58.5s10.334 45 11.001 70
s1 51.167 1 78.5h-1zM395 585.006c-4.66699 -10.667 -10.0029 -20.0029 -16.0029 -28.0029c-5.33301 -7.33301 -11.333 -13.833 -18 -19.5s-13.667 -8.5 -21 -8.5c-5.33301 0 -9.5 2.16699 -12.5 6.5s-5.83301 8.16602 -8.5 11.499l1 -3
c-5.33301 5.33301 -10.166 10.5 -14.499 15.5s-10.833 7.5 -19.5 7.5c-13.333 0 -23.833 -7.66699 -31.5 -23s-13.5 -33.166 -17.5 -53.499s-6.66699 -40.5 -8 -60.5s-2 -34.667 -2 -44c0 -7.33301 1 -16.166 3 -26.499s5 -20.5 9 -30.5s9.33301 -18.5 16 -25.5
s14.667 -10.5 24 -10.5c8 0 14.333 2.33301 19 7v1c2.66699 4 5.83398 7.83301 9.50098 11.5s7.83398 5.5 12.501 5.5c3.33301 0 8.66602 -2.5 15.999 -7.5s14.833 -11 22.5 -18s14.334 -14 20.001 -21s8.5 -12.833 8.5 -17.5c0 -9.33301 -4 -18.166 -12 -26.499
s-17.667 -15.666 -29 -21.999s-23.333 -11.333 -36 -15s-23.334 -5.5 -32.001 -5.5h-17.5c-4.33301 0 -8.5 0.5 -12.5 1.5s-8 2.5 -12 4.5s-9 5 -15 9l1 -2c-18 8 -32.833 20 -44.5 36s-20.667 33.833 -27 53.5s-10.666 39.667 -12.999 60s-3.5 38.833 -3.5 55.5
c0 20.667 0.666992 45.5 2 74.5s6.66602 56.833 15.999 83.5s23.833 49.334 43.5 68.001s48.167 28 85.5 28c6.66699 0 13.5 -0.333008 20.5 -1s13.5 -2.33398 19.5 -5.00098c5.33301 -2 12 -5.5 20 -10.5s15.833 -10.667 23.5 -17s14.334 -12.833 20.001 -19.5
s9.16699 -13 10.5 -19z" />
    <glyph glyph-name="ordfeminine" unicode="&#xaa;" horiz-adv-x="189" 
d="M161 493l0.000976562 -14c0 -18.667 -10.667 -28 -32 -28c-6 0 -10 2.66699 -12 8c-8 -4.66699 -16 -7 -24 -7c-11.333 0 -21 3 -29 9s-14.5 13.5 -19.5 22.5s-8.66699 19 -11 30s-3.5 21.167 -3.5 30.5c0 8 1 16.5 3 25.5s5 17.333 9 25s9.33301 14.167 16 19.5
s14.667 8 24 8c5.33301 0 10.666 -0.666992 15.999 -2s11 -3.66602 17 -6.99902c2.66699 6.66699 4 11.667 4 15s-1.33301 7.83301 -4 13.5s-6 8.5 -10 8.5c-2.66699 0 -4.5 -0.833008 -5.5 -2.5l-4 -6.5c-1.66699 -2.66699 -4 -5.16699 -7 -7.5
s-7.83301 -3.83301 -14.5 -4.5c-8 0 -15 1.33301 -21 4c-0.666992 -0.666992 -1 0 -1 2c0 0.666992 -0.333008 1.33398 -1 2.00098c0 15.333 6.33301 29.333 19 42s26.667 19 42 19c10.667 0 19.5 -3 26.5 -9s12.333 -13.5 16 -22.5s6.16699 -18.5 7.5 -28.5
s2 -19.333 2 -28c0 -10.667 -0.5 -21.334 -1.5 -32.001s-1.5 -22.334 -1.5 -35.001v-50zM93.001 497c4.66699 0 8.66699 1.49707 12 4.49707s6 6.83301 8 11.5s3.33301 9.5 4 14.5s1 9.16699 1 12.5c0 6.66699 -0.5 14.334 -1.5 23.001s-5.16699 14.667 -12.5 18
c-2 0 -4.66699 -0.333008 -8 -1s-6.33301 -2.5 -9 -5.5s-5 -7.5 -7 -13.5s-3 -14.333 -3 -25c0 -2 0.333008 -5.16699 1 -9.5s1.5 -8.66602 2.5 -12.999s2.5 -8.16602 4.5 -11.499s4.66699 -5 8 -5z" />
    <glyph glyph-name="guillemotleft" unicode="&#xab;" horiz-adv-x="365" 
d="M297 475c3.33301 -1.33301 7.83301 -3.33496 13.5 -6.00195s11.167 -5.66699 16.5 -9s10 -7 14 -11s6 -8 6 -12c0 -3.33301 -1.83301 -8 -5.5 -14l-8.5 -14h1l-35 -53.5c-11.333 -17.667 -23.333 -35.167 -36 -52.5v-2c0 -1.33301 1.33301 -4.16602 4 -8.49902l9 -14
l10 -15l7 -10.5v1c6 -11.333 13.167 -22.333 21.5 -33s16.166 -21.667 23.499 -33l-1 1c1.33301 -2.66699 2.83301 -5.33398 4.5 -8.00098s2.5 -5.33398 2.5 -8.00098c0 -4.66699 -2.83301 -9.33398 -8.5 -14.001s-12.167 -8.66699 -19.5 -12s-14.333 -6.16602 -21 -8.49902
s-11.334 -3.5 -14.001 -3.5c-5.33301 0 -11.166 3.33301 -17.499 10s-12.833 14.834 -19.5 24.501s-13.5 20.334 -20.5 32.001l-19.5 32.5l-13 19c-4.66699 6.66699 -9 13.334 -13 20.001s-7.5 13.334 -10.5 20.001s-4.5 13 -4.5 19c0 7.33301 3.83301 14.666 11.5 21.999
s13.834 14.333 18.501 21v-1c14 21.333 29.333 40.833 46 58.5s28 34.167 34 49.5v-1c5.33301 9.33301 13.333 14 24 14zM126 308.998l0.00292969 0.998047c-1.33301 -2.66699 -2 -5 -2 -7s2.33301 -6.83301 7 -14.5l15.5 -25c5.66699 -9 11.167 -17.167 16.5 -24.5
s8.66602 -12 9.99902 -14c7.33301 -10 15.166 -19 23.499 -27s15.166 -18 20.499 -30v-11c-4.66699 -8 -10.167 -14 -16.5 -18l-20.5 -13l1 1c-2.66699 -2.66699 -6.66699 -4 -12 -4s-9.66602 1.66699 -12.999 5h1c-2.66699 0.666992 -5.33398 3 -8.00098 7h-1
c-8 9.33301 -17.5 21.166 -28.5 35.499l-34 44.5c-11.667 15.333 -22.5 30.333 -32.5 45s-17.333 27.334 -22 38.001c2 6.66699 5.16699 14.667 9.5 24s9.16602 16.666 14.499 21.999l-1 -2c8 10.667 16.5 23.667 25.5 39l26.5 44c8.66699 14 17.167 25.833 25.5 35.5
s15.5 14.5 21.5 14.5c3.33301 0 7.83301 -1.16699 13.5 -3.5s11.334 -5.16602 17.001 -8.49902s10.5 -7.16602 14.5 -11.499s6 -8.83301 6 -13.5c0 -1.33301 -0.666992 -4.66602 -2 -9.99902v-1c-3.33301 -3.33301 -6.33301 -7.33301 -9 -12l-8 -14l1 1
c-9.33301 -16 -19 -31.5 -29 -46.5l-31 -45.5l1 1z" />
    <glyph glyph-name="logicalnot" unicode="&#xac;" horiz-adv-x="519" 
d="M444 175l-20.999 -0.00292969c-7.33301 0 -14 1 -20 3s-11 5.16699 -15 9.5s-6 10.833 -6 19.5c0 11.333 -0.5 22.5 -1.5 33.5s-1.5 22.167 -1.5 33.5v16h-51.5c-17 0 -34.167 -0.666992 -51.5 -2h2c-4.66699 -1.33301 -8.66699 -2.16602 -12 -2.49902
s-8.16602 -0.5 -14.499 -0.5h-27.5h-51c-14 0 -28.333 0.166992 -43 0.5s-28.334 0.833008 -41.001 1.5s-23.5 1.66699 -32.5 3s-14.833 3 -17.5 5c-2 1.33301 -3.33301 4.33301 -4 9s-1.33398 10 -2.00098 16s-1 11.667 -1 17v12c0 7.33301 1.5 12.833 4.5 16.5
s7 6.33398 12 8.00098s10.5 2.5 16.5 2.5h17h172c18 0 36.333 0.5 55 1.5s37 1.5 55 1.5c16.667 0 35.5 -0.333008 56.5 -1s39.5 -3.66699 55.5 -9v-10c0 -3.33301 -0.666992 -6.66602 -2 -9.99902l2 3c0 -12.667 -0.333008 -25 -1 -37s-1 -24.333 -1 -37
c0 -5.33301 0.333008 -11.833 1 -19.5s1 -16.167 1 -25.5c0 -14.667 -2 -28 -6 -40s-12.667 -18 -26 -18zM381.001 289.997h-1c0.666992 0 1 -0.166992 1 -0.5s0.333008 -0.5 1 -0.5z" />
    <glyph glyph-name="uni00AD" unicode="&#xad;" horiz-adv-x="358" 
d="M295 334l2.00098 -0.00195312c10 0 16.333 -5.83301 19 -17.5s4 -23.167 4 -34.5c0 -6 0.166992 -12 0.5 -18s0.166016 -11.5 -0.500977 -16.5s-2.33398 -9.16699 -5.00098 -12.5s-6.66699 -5 -12 -5h-10c-3.33301 0 -6.66602 0.333008 -9.99902 1
c-0.666992 0.666992 -5.33398 1.33398 -14.001 2.00098s-19.334 1.33398 -32.001 2.00098s-26.667 1.33398 -42 2.00098l-44.5 2c-14.333 0.666992 -27.166 1.16699 -38.499 1.5s-19.333 0.5 -24 0.5c-5.33301 0 -11 -0.5 -17 -1.5s-11 -1.5 -15 -1.5
c-1.33301 0 -4.66602 0.666992 -9.99902 2h3c-6.66699 3.33301 -11.167 6.5 -13.5 9.5s-3.5 8.5 -3.5 16.5v49c0 7.33301 1.5 13.166 4.5 17.499s8.16699 6.5 15.5 6.5c9.33301 0 18.333 -0.333008 27 -1s17.667 -1 27 -1c6.66699 0 21 0.166992 43 0.5s44.667 0.5 68 0.5
c19.333 0 36.5 -0.333008 51.5 -1s24.5 -1.66699 28.5 -3h-2z" />
    <glyph glyph-name="registered" unicode="&#xae;" horiz-adv-x="486" 
d="M452 309c0 -49.333 -4.16797 -88.1689 -12.501 -116.502s-20.666 -49.5 -36.999 -63.5s-36.5 -22.833 -60.5 -26.5s-51.333 -5.5 -82 -5.5c-44.667 0 -81.167 5.33301 -109.5 16s-51 25 -68 43s-29.167 39 -36.5 63s-12 49.5 -14 76.5s-2.5 54.5 -1.5 82.5
s1.5 55.333 1.5 82c0 9.33301 0.666992 20.5 2 33.5s3.5 26 6.5 39s6.83301 25.5 11.5 37.5s10.667 21.667 18 29v-1c8.66699 10 20.167 19 34.5 27s29.666 14.833 45.999 20.5s32.833 10 49.5 13s32 4.5 46 4.5c14.667 0 29.334 -1.16699 44.001 -3.5
s29 -5.16602 43 -8.49902h-1c27.333 -8 48.333 -19.167 63 -33.5s25.5 -30.833 32.5 -49.5s11.333 -38.5 13 -59.5s3.16699 -42.167 4.5 -63.5c1.33301 -23.333 2.83301 -46.166 4.5 -68.499s2.5 -44.833 2.5 -67.5zM378.999 211.997
c1.33301 7.33301 2.00391 14.334 2.00391 21.001v21c-0.666992 36 -2.83398 71.833 -6.50098 107.5s-6.5 71.5 -8.5 107.5c-0.666992 13.333 -2.5 28.166 -5.5 44.499s-8.16699 31.166 -15.5 44.499l1 -1c-8.66699 15.333 -19.167 27.333 -31.5 36s-28.833 13 -49.5 13
c-37.333 0 -66.333 -3.83301 -87 -11.5s-36 -18.667 -46 -33s-16.167 -31.666 -18.5 -51.999s-3.5 -43.166 -3.5 -68.499c0 -40.667 1.16699 -81.167 3.5 -121.5s6.16602 -80.5 11.499 -120.5l-1 1c5.33301 -17.333 13.833 -28.5 25.5 -33.5s26.5 -7.5 44.5 -7.5
c11.333 0 22.666 0.666992 33.999 2s22.666 2 33.999 2c10 0 21.5 0.166992 34.5 0.5s25.5 2.16602 37.5 5.49902h1c13.333 1.33301 24 6 32 14l6 11c1.33301 2.66699 2.5 5.5 3.5 8.5s1.83301 6.16699 2.5 9.5zM349.003 219.998c0.666992 0 -1 -3.50098 -5 -10.501
s-7.66699 -12.5 -11 -16.5l-8 -5c-5.33301 0 -10.333 -0.666992 -15 -2s-9.66699 -2 -15 -2c-13.333 0 -23.333 4.66699 -30 14h1c-2.66699 2.66699 -4.16699 9.33398 -4.5 20.001s-1 22 -2 34s-2.83301 22.833 -5.5 32.5s-7.33398 14.834 -14.001 15.501
c-1.33301 -6 -2.16602 -14 -2.49902 -24s-0.833008 -20.167 -1.5 -30.5s-1.66699 -20 -3 -29s-3 -15.5 -5 -19.5l-60 -8l-13 9c-1.33301 5.33301 -2.33301 12.666 -3 21.999s-1.16699 19.5 -1.5 30.5s-0.5 22.5 -0.5 34.5v36v66v34c0 33.333 1 66.666 3 99.999
c1.33301 18.667 6.83301 32 16.5 40s27.167 12 52.5 12c36.667 0 66 -11.833 88 -35.5s33 -53.5 33 -89.5c0 -15.333 -1.5 -32.333 -4.5 -51s-8.83301 -34.667 -17.5 -48c9.33301 -7.33301 16 -17.666 20 -30.999s6.66699 -27 8 -41
c-0.666992 -4 -1.16699 -7.83301 -1.5 -11.5s-0.5 -7.16699 -0.5 -10.5c0 -6 0.166992 -12 0.5 -18s0.833008 -11.667 1.5 -17zM246.003 393.997c2.66699 2 4.33301 7.66797 5 17.001s1 15.666 1 18.999c0 7.33301 -0.333008 15 -1 23s-2.66699 15.333 -6 22
c0 -14 -0.5 -27.833 -1.5 -41.5s-1.5 -27.167 -1.5 -40.5l5 1h-1z" />
    <glyph glyph-name="macron" unicode="&#xaf;" horiz-adv-x="341" 
d="M301 730l2 -1.00293c5.33301 0 9.66602 -1.5 12.999 -4.5s5.83301 -7 7.5 -12s2.83398 -10.5 3.50098 -16.5s1 -11.667 1 -17c0 -4.66699 0.166992 -9.66699 0.5 -15s0 -10.333 -1 -15s-2.66699 -8.66699 -5 -12s-6.5 -5 -12.5 -5h-11.5
c-3.66699 0 -7.16699 0.333008 -10.5 1c-0.666992 0.666992 -5.66699 1.33398 -15 2.00098s-21 1.33398 -35 2.00098s-29.333 1.33398 -46 2.00098s-32.667 1.16699 -48 1.5s-29 0.666016 -41 0.999023s-20.667 0.5 -26 0.5s-11.333 -0.333008 -18 -1s-12 -1 -16 -1
c-2 0 -3.83301 0.166992 -5.5 0.5s-3.5 0.833008 -5.5 1.5h3c-7.33301 2.66699 -12.333 5.5 -15 8.5s-4 8.16699 -4 15.5v44c0 15.333 7.33301 23 22 23c10 0 19.833 -0.333008 29.5 -1s19.167 -1 28.5 -1c4 0 10.833 0.166992 20.5 0.5s21 0.5 34 0.5s27 0.166992 42 0.5
s29.167 0.5 42.5 0.5c16.667 0 31.167 -0.166992 43.5 -0.5s20.5 -1.16602 24.5 -2.49902h-2z" />
    <glyph glyph-name="degree" unicode="&#xb0;" horiz-adv-x="259" 
d="M51 526c-7.33301 9.33301 -12.5 18.5029 -15.5 27.5029s-4.5 19.5 -4.5 31.5c0 19.333 4.33301 35.666 13 48.999v-1c7.33301 14 19 24.833 35 32.5s31.667 11.5 47 11.5c12.667 0 24.834 -2.83301 36.501 -8.5s22 -13.334 31 -23.001s16.167 -20.5 21.5 -32.5
s8 -24 8 -36c0 -12.667 -2.83301 -24.5 -8.5 -35.5s-13.334 -20.5 -23.001 -28.5s-20.334 -14.167 -32.001 -18.5s-23.5 -6.5 -35.5 -6.5c-6.66699 0 -13 1 -19 3v-1c-10 2.66699 -20.167 7.16699 -30.5 13.5s-18.166 14.166 -23.499 23.499v-1zM109 581.003
c0 -3.33301 1.49707 -5.83398 4.49707 -7.50098s5.16699 -2.5 6.5 -2.5c2.66699 0 5.33398 1 8.00098 3s5.66699 3.66699 9 5c-0.666992 6 -2.16699 10.333 -4.5 13s-4.16602 4 -5.49902 4s-4.66602 -1.16699 -9.99902 -3.5s-8 -6.16602 -8 -11.499z" />
    <glyph glyph-name="plusminus" unicode="&#xb1;" horiz-adv-x="359" 
d="M32 312c0 9.33301 1.83789 16.834 5.50488 22.501s8.5 10 14.5 13s12.667 4.83301 20 5.5s15 1 23 1h20h12c-1.33301 8 -2.16602 16.333 -2.49902 25s-0.5 17 -0.5 25c0 16 3.16699 28.833 9.5 38.5s18.5 14.5 36.5 14.5c12.667 0 22.167 -2.66699 28.5 -8
s10.666 -12.333 12.999 -21s3.5 -18 3.5 -28v-28v-12c0 -4 -0.333008 -7.66699 -1 -11c0 2 2.66699 3.66699 8 5s11.666 2.16602 18.999 2.49902s15.333 0.666016 24 0.999023s16.667 0.5 24 0.5h22c3.33301 -7.33301 5.66602 -16 6.99902 -26s2 -19 2 -27
c0 -14.667 -3.33301 -25.5 -10 -32.5s-14.834 -11.667 -24.501 -14s-20.334 -3.16602 -32.001 -2.49902s-22.5 1 -32.5 1c0.666992 -11.333 1 -23.333 1 -36v-36c0 -8.66699 -1.66699 -15.334 -5 -20.001s-8 -8 -14 -10s-13 -3.16699 -21 -3.5s-16.667 -0.5 -26 -0.5
c-10.667 0 -17.334 6.33301 -20.001 19s-4 26 -4 40c0 8 0.166992 15.667 0.5 23s0.5 13 0.5 17v6h-41c-9.33301 0 -18.833 -0.166992 -28.5 -0.5s-19.167 -1.16602 -28.5 -2.49902c0 10 -0.5 19.833 -1.5 29.5s-1.5 19.5 -1.5 29.5zM295.005 130.001l1.99902 -1.00195
c10 0 16.333 -5.66699 19 -17s4 -23 4 -35c0 -11.333 -0.166992 -22.666 -0.5 -33.999s-5.83301 -17 -16.5 -17h-10c-3.33301 0 -6.66602 0.333008 -9.99902 1c-0.666992 0.666992 -5.33398 1.33398 -14.001 2.00098s-19.334 1.33398 -32.001 2.00098
s-26.667 1.33398 -42 2.00098l-44.5 2c-14.333 0.666992 -27.166 1.16699 -38.499 1.5s-19.333 0.5 -24 0.5c-5.33301 0 -11 -0.5 -17 -1.5s-11 -1.5 -15 -1.5c-1.33301 0 -4.66602 0.666992 -9.99902 2h3c-6.66699 2.66699 -11.167 5.66699 -13.5 9
s-3.5 8.66602 -3.5 15.999v49c0 7.33301 1.5 13.166 4.5 17.499s8.16699 6.5 15.5 6.5c9.33301 0 18.333 -0.166992 27 -0.5s17.667 -0.5 27 -0.5c6.66699 0 21 0.166992 43 0.5s44.667 0.5 68 0.5c19.333 0 36.5 -0.333008 51.5 -1s24.5 -1.66699 28.5 -3h-2z" />
    <glyph glyph-name="twosuperior" unicode="&#xb2;" horiz-adv-x="207" 
d="M114 555c0 4 -0.663086 8.33105 -1.99609 12.998s-4.66602 7 -9.99902 7c-6.66699 -3.33301 -10.834 -8.16602 -12.501 -14.499s-3 -12.5 -4 -18.5s-2.5 -11.167 -4.5 -15.5s-6.33301 -6.5 -13 -6.5c-4 0 -9 0.333008 -15 1s-12 2 -18 4s-11.333 4.5 -16 7.5
s-7.33398 6.83301 -8.00098 11.5h1c-0.666992 2 -1.16699 3.83301 -1.5 5.5s-0.5 3.5 -0.5 5.5c0 14 3 27.667 9 41l-1 -1c3.33301 7.33301 7.83301 14.666 13.5 21.999s12.167 13 19.5 17h-1c8 4.66699 16.333 8.33398 25 11.001s17.667 4 27 4c16 0 30 -3.33301 42 -10
s22 -15.5 30 -26.5s14 -23.5 18 -37.5s6 -28.333 6 -43c0 -21.333 -3.5 -39.666 -10.5 -54.999s-15.167 -29.333 -24.5 -42s-19 -24.834 -29 -36.501s-18 -24.834 -24 -39.501h24c6 0 12 -0.166992 18 -0.5s11.167 -1.66602 15.5 -3.99902s8 -6.16602 11 -11.499
s4.5 -13.333 4.5 -24v-23.5c0 -9 -3.33301 -13.5 -10 -13.5c-25.333 0 -51 0.833008 -77 2.5s-51.667 3.5 -77 5.5c-10 0 -15.167 2.66699 -15.5 8s-0.5 10.666 -0.5 15.999c0 6 0.166992 12.333 0.5 19s1.16602 13 2.49902 19c1.33301 4.66699 5 12.334 11 23.001
s12.667 21.834 20 33.501l22 33.5c7.33301 10.667 12.666 18.667 15.999 24v-1c11.333 15.333 20.666 29.166 27.999 41.499s11 28.5 11 48.5z" />
    <glyph glyph-name="threesuperior" unicode="&#xb3;" horiz-adv-x="210" 
d="M180 645c0 -1.33301 0.166016 -2.67578 0.499023 -4.00879s0.5 -2.66602 0.5 -3.99902c0 -8 -2.66699 -17 -8 -27s-11.5 -19.5 -18.5 -28.5s-14 -17.333 -21 -25s-11.833 -13.5 -14.5 -17.5l14 -4c4.66699 -1.33301 9.33398 -3 14.001 -5
c18.667 -16.667 31 -37.167 37 -61.5s9 -48.166 9 -71.499c0 -16 -1.83301 -32.5 -5.5 -49.5s-9.5 -32.5 -17.5 -46.5s-18.5 -25.667 -31.5 -35s-28.833 -14 -47.5 -14c-15.333 0 -28.666 4.16699 -39.999 12.5s-20.833 18.833 -28.5 31.5s-13.334 26.834 -17.001 42.501
s-5.5 30.5 -5.5 44.5c0 7.33301 2.16699 12.666 6.5 15.999s9.83301 5.5 16.5 6.5s13.334 1.5 20.001 1.5s12.667 0.666992 18 2c4.66699 -3.33301 8.66699 -7.83301 12 -13.5s6 -11.834 8 -18.501s3.33301 -13 4 -19s1 -11 1 -15v-4h2c4 0 7.5 1.5 10.5 4.5
s5.5 6.83301 7.5 11.5s3.33301 9.33398 4 14.001s1 8.66699 1 12s-0.833008 9.33301 -2.5 18s-3.83398 17.5 -6.50098 26.5s-5.66699 17.333 -9 25s-6.33301 12.5 -9 14.5c-5.33301 3.33301 -12.833 4.83301 -22.5 4.5s-19.167 -0.166016 -28.5 0.500977
s-17.5 2.83398 -24.5 6.50098s-10.5 11.5 -10.5 23.5c0 4.66699 2.5 9.83398 7.5 15.501s10.667 11.334 17 17.001s12.333 11.334 18 17.001s9.16699 10.5 10.5 14.5c-4 -0.666992 -8 -1.5 -12 -2.5s-8 -1.5 -12 -1.5c-7.33301 0 -12.5 2.5 -15.5 7.5s-5 11 -6 18
s-1.5 14.5 -1.5 22.5s-0.666992 15.333 -2 22v-2c0 2.66699 3.83301 5.5 11.5 8.5s16.667 5.83301 27 8.5s20.833 4.83398 31.5 6.50098s19.334 2.83398 26.001 3.50098l57 3c7.33301 0 13.666 -1.66699 18.999 -5zM108.999 523.99c0.666992 0 1 0.333008 1 1z" />
    <glyph glyph-name="acute" unicode="&#xb4;" horiz-adv-x="168" 
d="M132 641c0 -6.66699 -2.16699 -16.332 -6.5 -28.999s-9.33301 -25.334 -15 -38.001s-11 -23.834 -16 -33.501s-8.16699 -14.5 -9.5 -14.5c-9.33301 0 -18.666 1 -27.999 3s-18 5.66699 -26 11v4c0 5.33301 1.16699 13 3.5 23s5.16602 20.333 8.49902 31
s6.83301 20.834 10.5 30.501s7.16699 16.5 10.5 20.5l17.5 2c5.66699 0.666992 11.5 1 17.5 1c4 0 10.5 -0.333008 19.5 -1s13.5 -4 13.5 -10z" />
    <glyph glyph-name="mu" unicode="&#xb5;" horiz-adv-x="353" 
d="M227 -13c-1.33301 1.33301 -2.00293 2.33008 -2.00293 2.99707c0 2.66699 0.666992 5.66699 2 9s2 6.33301 2 9c0 2 -0.333008 3.33301 -1 4c-9.33301 -3.33301 -21.166 -7.33301 -35.499 -12s-28.166 -7 -41.499 -7c-12 0 -22.333 2.33301 -31 7
c0 -6 0.5 -15.667 1.5 -29s1.5 -26.666 1.5 -39.999c0 -15.333 -1.33301 -26.166 -4 -32.499s-10 -9.5 -22 -9.5c-8 0 -16.667 0.833008 -26 2.5s-17.333 2.5 -24 2.5v1c-9.33301 4.66699 -14 12.334 -14 23.001c0 19.333 0.666992 39.5 2 60.5l4 60.5v-1
c1.33301 12.667 2 25.167 2 37.5v37.5v37.5c0 12.333 -0.333008 24.833 -1 37.5v-1c-0.666992 15.333 -1.16699 30.333 -1.5 45s-0.5 29.667 -0.5 45c0 26 1 52 3 78s3 51.667 3 77c0 4 -0.166992 8 -0.5 12s0 7.66699 1 11s3.33301 6 7 8s9.5 3 17.5 3
c9.33301 0 19 -0.666992 29 -2s18 -4 24 -8h-1c3.33301 -1.33301 5.33301 -4.83301 6 -10.5s1 -10.834 1 -15.501c0 -20.667 -0.833008 -41.167 -2.5 -61.5s-2.5 -40.833 -2.5 -61.5c0 -26 0.333008 -51.667 1 -77s1 -51.333 1 -78c0 -8.66699 -0.333008 -14.667 -1 -18v1
c-0.666992 -2.66699 -1 -6.33398 -1 -11.001c0 -3.33301 0.666992 -8.33301 2 -15v1c5.33301 -9.33301 13 -16.333 23 -21s20 -7 30 -7c5.33301 0 11.833 1.16699 19.5 3.5s13.167 5.5 16.5 9.5c0.666992 0.666992 1.33398 8.33398 2.00098 23.001
s1.33398 32.334 2.00098 53.001s1 42.834 1 66.501v65.5v38c0 9.33301 -0.166992 17.166 -0.5 23.499s-0.5 12.166 -0.5 17.499v20c0 13.333 0.833008 26 2.5 38s5.16699 23 10.5 33c13.333 1.33301 26.166 3.16602 38.499 5.49902s22.166 3.5 29.499 3.5
c4.66699 0 8 -4.83301 10 -14.5s3.33301 -21.667 4 -36s0.833984 -29.666 0.500977 -45.999s-0.5 -31.5 -0.5 -45.5c0 -26.667 -0.333008 -54.667 -1 -84s-1.5 -58.833 -2.5 -88.5s-2.33301 -59 -4 -88s-3.83398 -56.167 -6.50098 -81.5
c-0.666992 -5.33301 -5.16699 -8.66602 -13.5 -9.99902s-17.166 -2 -26.499 -2c-7.33301 0 -14 0.166992 -20 0.5s-10 0.5 -12 0.5z" />
    <glyph glyph-name="paragraph" unicode="&#xb6;" horiz-adv-x="489" 
d="M342 549c-3.33301 0.666992 -6.16602 1.3252 -8.49902 1.99219s-5.16602 1.33398 -8.49902 2.00098c2.66699 -1.33301 4.16699 -3.16602 4.5 -5.49902s0.5 -4.5 0.5 -6.5c0 -49.333 0.666992 -98.166 2 -146.499s2 -97.166 2 -146.499
c0 -8.66699 -0.166992 -17.167 -0.5 -25.5s-0.5 -16.833 -0.5 -25.5c0 -21.333 0.666992 -42.166 2 -62.499s2 -41.5 2 -63.5c0 -22.667 -2.33301 -43 -7 -61c-8 -4.66699 -18.5 -7.66699 -31.5 -9s-23.833 -2 -32.5 -2c-10 0 -17.667 2.66699 -23 8
c-2 2 -3.83301 10 -5.5 24s-2.83398 30.333 -3.50098 49s-1.16699 37.834 -1.5 57.501s-0.5 36.5 -0.5 50.5v27c-2 -0.666992 -5.33301 -1 -10 -1c-9.33301 0 -17.333 1.83301 -24 5.5s-14.334 6.16699 -23.001 7.5c-29.333 4 -53.166 13.167 -71.499 27.5
s-32.833 31.333 -43.5 51s-17.834 41.167 -21.501 64.5s-5.5 46.666 -5.5 69.999c0 27.333 2.16699 54 6.5 80s13.833 50.667 28.5 74c9.33301 14.667 20.333 26.334 33 35.001s26.667 15.5 42 20.5s31.5 8.33301 48.5 10s34.5 2.5 52.5 2.5c16 0 36.5 -0.166992 61.5 -0.5
s49.333 -1.66602 73 -3.99902s43.834 -6.16602 60.501 -11.499s25 -13 25 -23c0 -7.33301 -0.5 -15.333 -1.5 -24s-1.5 -17 -1.5 -25c0 -14.667 0.166992 -29.167 0.5 -43.5s0.5 -28.5 0.5 -42.5c0 -42.667 -1.33301 -85 -4 -127s-4 -84.333 -4 -127
c0 -30 0.166992 -59 0.5 -87s0.5 -57.667 0.5 -89c0 -6.66699 -0.333008 -13.667 -1 -21s-2 -14 -4 -20s-4.83301 -11 -8.5 -15s-8.83398 -6 -15.501 -6c-5.33301 0 -11.833 0.333008 -19.5 1s-15 2.16699 -22 4.5s-13.167 5.5 -18.5 9.5s-8 9.33301 -8 16
c0 8.66699 0.833008 16.5 2.5 23.5s2.5 15.167 2.5 24.5c0 22 -1.16699 43.667 -3.5 65s-3.5 43 -3.5 65c0 36 1.33301 72.333 4 109s4 73 4 109c0 21.333 -0.333008 42.333 -1 63s-2 41.667 -4 63h-17z" />
    <glyph glyph-name="periodcentered" unicode="&#xb7;" horiz-adv-x="157" 
d="M36 314c-4.66699 5.33301 -8 10.499 -10 15.499s-3 11.167 -3 18.5c0 10.667 2.66699 20.334 8 29.001v-1c4.66699 8 11.5 14.333 20.5 19s18.167 7 27.5 7c14.667 0 27.667 -6.16699 39 -18.5s17 -25.833 17 -40.5s-6.16699 -27 -18.5 -37s-25.5 -15 -39.5 -15
c-2 0 -5.66699 0.666992 -11 2v-1c-5.33301 1.33301 -11 4 -17 8s-10.333 8.66699 -13 14z" />
    <glyph glyph-name="cedilla" unicode="&#xb8;" horiz-adv-x="225" 
d="M182 -12c4.66699 -5.33301 8.66895 -12 12.002 -20s5 -15 5 -21c0 -10 -3 -19.333 -9 -28l1 1c-6.66699 -10 -15.5 -18.667 -26.5 -26s-22.167 -12.666 -33.5 -15.999h1c-10.667 -3.33301 -21.5 -6.33301 -32.5 -9s-22.167 -4 -33.5 -4
c-12.667 0 -20.834 2.16699 -24.501 6.5s-6.16699 12.166 -7.5 23.499c-1.33301 6.66699 -3.16602 13 -5.49902 19s-3.5 12.333 -3.5 19c0 16.667 8.33301 25 25 25c5.33301 0 9.66602 -0.166992 12.999 -0.5s6.33301 -0.5 9 -0.5c3.33301 0 6.66602 0.5 9.99902 1.5
s8.66602 3.16699 15.999 6.5c-15.333 4.66699 -25.166 11.5 -29.499 20.5s-8.5 20.5 -12.5 34.5c13.333 3.33301 23.333 5.33301 30 6s12.667 1 18 1c4 0 8.16699 -0.166992 12.5 -0.5s10.166 -0.5 17.499 -0.5h10.5c3.66699 0 7.83398 0.333008 12.501 1
c0 -7.33301 0.333008 -12.5 1 -15.5s2 -5.5 4 -7.5s4.5 -4.16699 7.5 -6.5s7.16699 -5.83301 12.5 -10.5v1v0z" />
    <glyph glyph-name="onesuperior" unicode="&#xb9;" horiz-adv-x="164" 
d="M129 663v-83.0039v-162c0 -13.333 -0.333008 -26.166 -1 -38.499s-1 -25.166 -1 -38.499v-12.5c0 -4.33301 0.333008 -8.5 1 -12.5c-2 -1.33301 -5.66699 -2 -11 -2h-12c-4 0 -9 0.166992 -15 0.5s-11.833 0.833008 -17.5 1.5s-10.667 1.33398 -15 2.00098
s-6.5 1.66699 -6.5 3c0 40 0.166992 79.833 0.5 119.5s0.5 79.5 0.5 119.5v11c0 3.33301 0.333008 7 1 11l-6 -4c-2 -1.33301 -4.66699 -2 -8 -2c-5.33301 0 -10.166 2 -14.499 6s-8.5 7.66699 -12.5 11h3c-4 2 -7.83301 5 -11.5 9s-5.5 8.66699 -5.5 14
c0 2.66699 1.5 6.33398 4.5 11.001s6.66699 9.5 11 14.5s8.66602 9.66699 12.999 14l9.5 9.5c12 10 26.667 15 44 15c6.66699 0 13 -0.5 19 -1.5s12.333 -1.83301 19 -2.5z" />
    <glyph glyph-name="ordmasculine" unicode="&#xba;" horiz-adv-x="259" 
d="M51 526c-7.33301 9.33301 -12.5 18.5029 -15.5 27.5029s-4.5 19.5 -4.5 31.5c0 19.333 4.33301 35.666 13 48.999v-1c7.33301 14 19 24.833 35 32.5s31.667 11.5 47 11.5c12.667 0 24.834 -2.83301 36.501 -8.5s22 -13.334 31 -23.001s16.167 -20.5 21.5 -32.5
s8 -24 8 -36c0 -12.667 -2.83301 -24.5 -8.5 -35.5s-13.334 -20.5 -23.001 -28.5s-20.334 -14.167 -32.001 -18.5s-23.5 -6.5 -35.5 -6.5c-6.66699 0 -13 1 -19 3v-1c-10 2.66699 -20.167 7.16699 -30.5 13.5s-18.166 14.166 -23.499 23.499v-1zM110 576.003
c0 -6 2.16895 -10.333 6.50195 -13s7.16602 -4 8.49902 -4c4 0 8.16699 1.66699 12.5 5s8.16602 6 11.499 8c-0.666992 10.667 -2.5 18.167 -5.5 22.5s-5.83301 6.5 -8.5 6.5c-2 0 -6.66699 -2 -14 -6s-11 -10.333 -11 -19z" />
    <glyph glyph-name="guillemotright" unicode="&#xbb;" horiz-adv-x="367" 
d="M133 146c-4.66699 -6 -7.99902 -11.3301 -9.99902 -15.9971s-3.66699 -7.66699 -5 -9l1 2c-5.33301 -8.66699 -13.333 -13 -24 -13c-4 0 -8 1 -12 3l1 -1l-45 22h2l-10 8c-3.33301 2.66699 -5 6.66699 -5 12c0 3.33301 3.83301 11.666 11.5 24.999l25.5 43
c9.33301 15.333 18.5 29.666 27.5 42.999s14.833 21.666 17.5 24.999l-33.5 54.5c-11 17.667 -22.833 34.834 -35.5 51.501v-1c-2 4 -4.5 8.16699 -7.5 12.5s-4.5 8.5 -4.5 12.5c0 5.33301 1.66699 10.166 5 14.499s7.16602 8.33301 11.499 12s9 7 14 10
s9.5 5.83301 13.5 8.5h-1c2.66699 2 5.5 3.83301 8.5 5.5s6.16699 2.5 9.5 2.5c1.33301 0 5.5 -3.83301 12.5 -11.5s15.167 -17.5 24.5 -29.5l30 -39c10.667 -14 20.5 -27.5 29.5 -40.5s16.5 -24.333 22.5 -34s9 -16.167 9 -19.5c0 -4 -3 -12 -9 -24
s-13.333 -25.5 -22 -40.5l-27.5 -46.5zM339.001 306.003c0 -6 -2.16602 -13.8311 -6.49902 -23.498s-9.33301 -19.834 -15 -30.501s-11.5 -20.834 -17.5 -30.501l-14 -22.5v1l-11.5 -23.5c-4.33301 -9 -9 -17.667 -14 -26s-10.333 -15.5 -16 -21.5s-11.167 -9 -16.5 -9
c-4 0 -7.33301 0.666992 -10 2l1 -1c-3.33301 1.33301 -7.66602 3.33301 -12.999 6s-10.833 5.83398 -16.5 9.50098s-11 7.33398 -16 11.001s-8.5 7.16699 -10.5 10.5l16 31.5l26 48.5l34 62h-1c-3.33301 6 -6.33301 11.667 -9 17l-8 14c-2.66699 4.66699 -4.66699 8 -6 10
l-24 39c-6 10 -11.833 19.167 -17.5 27.5s-8.83398 13.166 -9.50098 14.499c0 2 -0.166992 3.83301 -0.5 5.5s-0.5 3.16699 -0.5 4.5c0 6.66699 2 12.167 6 16.5s8.66699 7.83301 14 10.5h1c5.33301 3.33301 10.666 7.33301 15.999 12s11.333 7 18 7
c3.33301 0 8.5 -3.5 15.5 -10.5s15 -16 24 -27s18.333 -23.167 28 -36.5s18.5 -26.333 26.5 -39s14.5 -24.334 19.5 -35.001s7.5 -18.667 7.5 -24zM118.002 120.005v1v-1z" />
    <glyph glyph-name="onequarter" unicode="&#xbc;" horiz-adv-x="457" 
d="M143 676c4.66699 -18 7.00098 -34.668 7.00098 -50.001c0 -8.66699 -0.333008 -16.667 -1 -24s-1 -14.666 -1 -21.999v-162c0 -13.333 -0.5 -26.833 -1.5 -40.5s-1.5 -27.5 -1.5 -41.5v-10c0 -3.33301 0.333008 -6.66602 1 -9.99902
c-1.33301 -1.33301 -4.66602 -2 -9.99902 -2h-12c-6.66699 0 -15 0.333008 -25 1s-18 2 -24 4c-1.33301 0 -2.33301 5.16699 -3 15.5s-1.16699 23.5 -1.5 39.5s-0.5 33.667 -0.5 53s0.166992 38 0.5 56s0.5 34 0.5 48v29v11c0 3.33301 0.333008 7 1 11
c-5.33301 -4 -10 -6 -14 -6c-16 10.667 -27 18.667 -33 24s-9 10.666 -9 15.999c0 2.66699 1.66699 6.33398 5 11.001s7.16602 9.5 11.499 14.5s8.66602 9.66699 12.999 14l9.5 9.5c6 5.33301 12.833 9.16602 20.5 11.499s15.5 3.5 23.5 3.5c6.66699 0 14 -0.333008 22 -1
s15.333 -1.66699 22 -3zM438.001 125.999c0 -9.33301 -0.833984 -15.8311 -2.50098 -19.498s-4.16699 -6.16699 -7.5 -7.5s-7.16602 -2 -11.499 -2s-9.5 -0.666992 -15.5 -2v-10c0 -10.667 -0.333008 -21.167 -1 -31.5s-1 -20.5 -1 -30.5c0 -5.33301 -1.5 -9.33301 -4.5 -12
s-6.83301 -4.5 -11.5 -5.5s-9.66699 -1.5 -15 -1.5h-15c-5.33301 0 -10.333 0.166992 -15 0.5s-9.33398 1.16602 -14.001 2.49902l-8 99c-0.666992 -2.66699 -8 -4 -22 -4c-9.33301 0 -20.833 0.5 -34.5 1.5s-29.5 3.16699 -47.5 6.5c0.666992 3.33301 2.33398 9 5.00098 17
l8.5 24.5c3 8.33301 6.16699 16.166 9.5 23.499s5.66602 12.333 6.99902 15v-1c4.66699 9.33301 11.5 24.333 20.5 45l28.5 63.5c10 21.667 19.833 41 29.5 58s17.834 26.5 24.501 28.5c2 0.666992 4.33301 1 7 1h7c12.667 0 22.667 -2 30 -6s11 -14.667 11 -32
c0 -5.33301 -0.166992 -10.5 -0.5 -15.5s-0.5 -9.5 -0.5 -13.5c0.666992 -21.333 1.16699 -42.666 1.5 -63.999s0.5 -42.666 0.5 -63.999c2.66699 1.33301 5 2 7 2c7.33301 0 13 -2.33301 17 -7s7 -10.334 9 -17.001s3.16699 -13.834 3.5 -21.501s0.5 -14.5 0.5 -20.5z
M325 195.001c0.666992 0.666992 1 3.99805 1 9.99805c0 2.66699 -0.166992 5.66699 -0.5 9s-0.5 6.33301 -0.5 9v9c-0.666992 -1.33301 -2.5 -4.16602 -5.5 -8.49902l-9 -13.5c-3 -4.66699 -5.66699 -9.16699 -8 -13.5s-3.5 -7.16602 -3.5 -8.49902h1
c2 0 6.33301 0.833008 13 2.5s10.667 3.16699 12 4.5zM320 674.999c8 -2.66699 16.167 -4.50195 24.5 -5.50195s15.833 -2.5 22.5 -4.5s12 -5 16 -9s6 -10 6 -18c0 -3.33301 -3.16699 -14.166 -9.5 -32.499s-15 -41.166 -26 -68.499l-37 -92.5l-43 -106l-45 -107l-41.5 -97
l-32.5 -76c-9 -21 -15.5 -35.167 -19.5 -42.5c-14.667 -3.33301 -30.167 -4.83301 -46.5 -4.5s-31.5 0.5 -45.5 0.5c9.33301 30 19.5 59.333 30.5 88l33.5 85l63 158.5l63 157.5c3.33301 9.33301 6.83301 18 10.5 26s7.16699 16.667 10.5 26c2 6 5.5 15.5 10.5 28.5
s10.5 26.167 16.5 39.5s12.5 25.333 19.5 36s13.5 16.667 19.5 18z" />
    <glyph glyph-name="onehalf" unicode="&#xbd;" horiz-adv-x="488" 
d="M378 277c0 4 -0.5 8.33398 -1.5 13.001s-4.16699 7 -9.5 7c-6.66699 -3.33301 -10.834 -8.16602 -12.501 -14.499s-2.83398 -12.5 -3.50098 -18.5s-2 -11.167 -4 -15.5s-6.66699 -6.5 -14 -6.5c-6 0 -12.5 0.666992 -19.5 2s-13.333 3.33301 -19 6
s-10.334 6.16699 -14.001 10.5s-5.5 9.83301 -5.5 16.5c0 13.333 3.33301 26.666 10 39.999l-1 -1c7.33301 17.333 18.333 30.833 33 40.5s31.334 14.5 50.001 14.5c16 0 30 -3.33301 42 -10s22 -15.5 30 -26.5s14 -23.5 18 -37.5s6 -28.333 6 -43
c0 -15.333 -2.5 -30.5 -7.5 -45.5s-11.833 -28.833 -20.5 -41.5h1c-9.33301 -14 -20.166 -27.833 -32.499 -41.5s-22.166 -28.5 -29.499 -44.5h24c6.66699 0 13 -0.166992 19 -0.5s11.333 -1.66602 16 -3.99902s8.33398 -6.33301 11.001 -12s4 -13.834 4 -24.501v-23
c0 -8.66699 -3.66699 -13 -11 -13c-25.333 0 -50.833 0.666992 -76.5 2s-51.167 3.33301 -76.5 6c-10 0 -15.167 2.66699 -15.5 8s-0.5 10.666 -0.5 15.999c0 6 0.166992 12.333 0.5 19s1.16602 13 2.49902 19c1.33301 4.66699 5 12.334 11 23.001s12.667 21.834 20 33.501
l21.5 33c7 10.333 12.167 18.166 15.5 23.499v-1c6 8.66699 11.5 16.167 16.5 22.5s9.16699 12.666 12.5 18.999s5.83301 13.333 7.5 21s2.5 17.167 2.5 28.5zM147 663.001c0.666992 -13.333 1 -27.002 1 -41.002v-42v-162c0 -13.333 -0.333008 -26.166 -1 -38.499
s-1 -25.166 -1 -38.499v-12.5c0 -4.33301 0.333008 -8.5 1 -12.5c-2 -1.33301 -5.66699 -2 -11 -2h-12c-6.66699 0 -15 0.333008 -25 1s-18 2 -24 4c-1.33301 0 -2.33301 5.16699 -3 15.5s-1.16699 23.5 -1.5 39.5s-0.5 33.667 -0.5 53s0.166992 38 0.5 56s0.5 34 0.5 48v29
v11c0 3.33301 0.333008 7 1 11c-5.33301 -4 -10 -6 -14 -6c-5.33301 0 -10.166 2 -14.499 6l-11.5 11h2c-4 2 -7.83301 5 -11.5 9s-5.5 8.66699 -5.5 14c0 2.66699 1.5 6.33398 4.5 11.001s6.66699 9.5 11 14.5s8.66602 9.66699 12.999 14l9.5 9.5
c6 5.33301 12.833 9.16602 20.5 11.499s15.5 3.5 23.5 3.5c6.66699 0 13 -0.5 19 -1.5s12.333 -1.83301 19 -2.5zM322 674.999c8 -2.66699 16.168 -4.50195 24.501 -5.50195s15.833 -2.5 22.5 -4.5s12 -5 16 -9s6 -10 6 -18c0 -3.33301 -3.16699 -14.166 -9.5 -32.499
s-15 -41.166 -26 -68.499l-37 -92.5l-43 -106l-45 -107l-41.5 -97l-32.5 -76c-9 -21 -15.5 -35.167 -19.5 -42.5c-14.667 -3.33301 -30.334 -4.83301 -47.001 -4.5s-31.667 0.5 -45 0.5c8.66699 30 18.667 59.333 30 88l34 85l62.5 158.5l63.5 157.5
c3.33301 9.33301 6.83301 18 10.5 26s7.16699 16.667 10.5 26c2 6 5.5 15.5 10.5 28.5s10.5 26.167 16.5 39.5s12.5 25.333 19.5 36s13.5 16.667 19.5 18z" />
    <glyph glyph-name="threequarters" unicode="&#xbe;" horiz-adv-x="479" 
d="M342 675c8 -2.66699 16.1689 -4.50195 24.502 -5.50195s15.833 -2.5 22.5 -4.5s12 -5 16 -9s6 -10 6 -18c0 -3.33301 -3.16699 -14.166 -9.5 -32.499s-15 -41.166 -26 -68.499l-37 -92.5l-43 -106l-45 -107l-41.5 -97l-32.5 -76c-9 -21 -15.5 -35.167 -19.5 -42.5
c-15.333 -3.33301 -31.166 -4.83301 -47.499 -4.5s-31.166 0.5 -44.499 0.5c8.66699 30 18.667 59.333 30 88l34 85l52 132c-7.33301 -18 -18.166 -33.333 -32.499 -46s-32.5 -19 -54.5 -19c-15.333 0 -28.833 4.16699 -40.5 12.5s-21.334 19 -29.001 32
s-13.334 27.167 -17.001 42.5s-5.5 30 -5.5 44c0 7.33301 2.16699 12.666 6.5 15.999s9.83301 5.5 16.5 6.5s13.5 1.5 20.5 1.5s13.167 0.666992 18.5 2c4 -2.66699 7 -7.33398 9 -14.001s3.66699 -13.834 5 -21.501s2.66602 -14.667 3.99902 -21
s3.66602 -10.833 6.99902 -13.5h1c4 0 7.5 1.66699 10.5 5s5.5 7.16602 7.5 11.499s3.5 8.83301 4.5 13.5s1.5 8.66699 1.5 12c0 4 -0.833008 10.333 -2.5 19s-3.83398 17.5 -6.50098 26.5s-5.66699 17.167 -9 24.5s-6.66602 12 -9.99902 14
c-5.33301 2.66699 -12.833 4 -22.5 4s-19.167 0.333008 -28.5 1s-17.5 3 -24.5 7s-10.5 11.667 -10.5 23c0 4.66699 2.5 10 7.5 16s10.667 11.833 17 17.5l18 16.5c5.66699 5.33301 9.5 10 11.5 14c-4 -0.666992 -8.16699 -1.5 -12.5 -2.5s-8.83301 -1.5 -13.5 -1.5
c-6.66699 0 -11.5 2.5 -14.5 7.5s-5 11 -6 18s-1.66699 14.667 -2 23s-0.833008 15.5 -1.5 21.5l1 -2v1c0 2.66699 3.66699 5.33398 11 8.00098s16.166 5.33398 26.499 8.00098s20.833 4.83398 31.5 6.50098s19.334 2.83398 26.001 3.50098l58 3
c7.33301 0 13.666 -1.66699 18.999 -5l6 -8c0 -9.33301 -1.16699 -17.333 -3.5 -24s-5.5 -12.667 -9.5 -18s-8.5 -10.666 -13.5 -15.999s-9.83301 -11.333 -14.5 -18l-22 -30c16 -5.33301 29 -13 39 -23s17.667 -21.5 23 -34.5s8.83301 -26.833 10.5 -41.5s2.5 -29 2.5 -43
c0 -12.667 -1 -25.834 -3 -39.501s-5.33301 -26.167 -10 -37.5l73 181c3.33301 9.33301 6.83301 18 10.5 26s7.16699 16.667 10.5 26c2 6 5.5 15.5 10.5 28.5s10.5 26.167 16.5 39.5s12.5 25.333 19.5 36s13.5 16.667 19.5 18zM458.002 123.998
c0 -9.33301 -0.833984 -15.832 -2.50098 -19.499s-4.16699 -6.16699 -7.5 -7.5s-7.16602 -2 -11.499 -2s-9.5 -0.666992 -15.5 -2v-11c0 -10.667 -0.333008 -21 -1 -31s-1 -20 -1 -30c0 -6 -1.5 -10.333 -4.5 -13s-6.83301 -4.5 -11.5 -5.5s-9.66699 -1.33301 -15 -1
s-10.333 0.5 -15 0.5c-5.33301 0 -10.333 0.166992 -15 0.5s-9.33398 1.16602 -14.001 2.49902l-8 99c-1.33301 -3.33301 -9 -5 -23 -5c-19.333 0 -46.333 3 -81 9c0.666992 3.33301 2.33398 8.83301 5.00098 16.5l8.5 24.5c3 8.66699 6 16.667 9 24s5.16699 12.333 6.5 15
v-1c8.66699 14.667 17.667 33 27 55s19 43.5 29 64.5s20.333 39 31 54s21 22.5 31 22.5c12.667 0 22.667 -2 30 -6s11 -15 11 -33c0 -5.33301 -0.166992 -10.5 -0.5 -15.5s-0.5 -9.5 -0.5 -13.5c0.666992 -21.333 1.16699 -42.5 1.5 -63.5s0.5 -42.167 0.5 -63.5
c1.33301 0 2.5 0.166992 3.5 0.5s2.16699 0.5 3.5 0.5c7.33301 0 13 -2.33301 17 -7s7 -10.167 9 -16.5s3.16699 -13.333 3.5 -21s0.5 -14.5 0.5 -20.5zM345.001 194.999c0 0.666992 0.167969 1.16504 0.500977 1.49805s0.5 1.16602 0.5 2.49902
c0 2.66699 -0.166992 5.83398 -0.5 9.50098s-0.5 7.16699 -0.5 10.5c-0.666992 3.33301 -1 7 -1 11c-0.666992 -1.33301 -2.33398 -4.16602 -5.00098 -8.49902l-8.5 -14c-3 -5 -5.66699 -9.66699 -8 -14s-3.5 -7.16602 -3.5 -8.49902h1c2 0 6.33301 1 13 3
s10.667 3.66699 12 5v2zM112.002 524.997l-1.00098 -1c0.666992 0 1.33398 0.333008 2.00098 1h-1z" />
    <glyph glyph-name="questiondown" unicode="&#xbf;" horiz-adv-x="383" 
d="M39 -68c0 25.333 1.83496 48.501 5.50195 69.501s9.66699 40.667 18 59s18.833 35.666 31.5 51.999s28 33.166 46 50.499l25 25c9.33301 9.33301 14 18.666 14 27.999c0 10 -0.833008 21.333 -2.5 34s-2.5 23.667 -2.5 33c0 13.333 4.33301 21.666 13 24.999
s18.667 5 30 5c12 0 22.167 -0.666992 30.5 -2s15.166 -4 20.499 -8s9.33301 -10 12 -18s4 -18.667 4 -32c0 -19.333 -3 -37.833 -9 -55.5s-14 -34.667 -24 -51s-21.333 -31.666 -34 -45.999s-25.667 -27.833 -39 -40.5s-24.333 -26 -33 -40s-13 -30.333 -13 -49
c0 -9.33301 1.16699 -20.333 3.5 -33s6 -24.667 11 -36s11.667 -20.833 20 -28.5s18.5 -11.5 30.5 -11.5c15.333 0 27.166 5 35.499 15s12.5 22.667 12.5 38c0 4.66699 -0.333008 9.33398 -1 14.001s-1 9.33398 -1 14.001c0 6 3 11 9 15s13.167 7.33301 21.5 10
s16.5 4.66699 24.5 6s14 2 18 2c13.333 0 22.5 -4.5 27.5 -13.5s7.5 -19.167 7.5 -30.5c0 -20 -3.83301 -40.167 -11.5 -60.5s-18.167 -38.5 -31.5 -54.5s-29.166 -29 -47.499 -39s-38.166 -15 -59.499 -15c-22.667 0 -43.834 4.83301 -63.501 14.5
s-36.834 22.334 -51.501 38.001s-26.167 33.667 -34.5 54s-12.5 41.166 -12.5 62.499zM261.002 400.001c3.33301 -5.33301 5 -11.667 5 -19c0 -8 -2 -16 -6 -24s-9.66699 -14 -17 -18h1c-7.33301 -5.33301 -16 -8 -26 -8c-11.333 0 -20.833 4.66699 -28.5 14
s-11.5 19.333 -11.5 30c0 12.667 4.66699 23.667 14 33s20.333 14 33 14c7.33301 0 14.333 -2 21 -6s11.667 -9.33301 15 -16z" />
    <glyph glyph-name="Agrave" unicode="&#xc0;" horiz-adv-x="395" 
d="M331 216l9.99902 -39.999c4 -16 7.66699 -32.667 11 -50s6.33301 -34 9 -50s4 -29 4 -39c0 -7.33301 -1.33301 -13.833 -4 -19.5s-6 -11.167 -10 -16.5c-12.667 1.33301 -25.334 1.66602 -38.001 0.999023s-24.667 2.33301 -36 9l-9.5 36c-3.66699 14 -7 28.5 -10 43.5
l-8.5 44c-2.66699 14.333 -4.33398 26.5 -5.00098 36.5c-7.33301 0.666992 -14.666 1.16699 -21.999 1.5s-14.666 0.5 -21.999 0.5h-18c-6 0 -12 -0.666992 -18 -2c-6 -14.667 -10.667 -30.5 -14 -47.5l-9.5 -49.5c-3 -16 -6.16699 -30.5 -9.5 -43.5s-8 -22.5 -14 -28.5
c-5.33301 0 -12.166 -0.5 -20.499 -1.5s-16.5 -1 -24.5 0s-15 3.66699 -21 8s-9 11.5 -9 21.5c0 18 2 35.5 6 52.5s9 34.167 15 51.5v-1c3.33301 8.66699 6 17.334 8 26.001l6 27l44 226c2.66699 16 6 33.833 10 53.5s8.33301 39.667 13 60s9.5 40.166 14.5 59.499
s10.167 36.666 15.5 51.999c3.33301 8.66699 7.16602 14.834 11.499 18.501s11.166 5.5 20.499 5.5c5.33301 0 10.333 -0.666992 15 -2s9.66699 -2 15 -2c6 0 10.667 0.333008 14 1c4.66699 -7.33301 8.83398 -19.5 12.501 -36.5s8.33398 -42.333 14.001 -76l21 -131
c8.33301 -53.667 19.5 -120.167 33.5 -199.5v1zM181.999 258.001c8 0 16.002 0.499023 24.002 1.49902s16 1.5 24 1.5c-1.33301 11.333 -2.5 25.333 -3.5 42s-2.33301 32.834 -4 48.501s-3.33398 29 -5.00098 40s-3.83398 16.5 -6.50098 16.5zM218.001 827
c8.66699 0 15.333 -3.99902 20 -11.999s8.16699 -17 10.5 -27s3.66602 -19.833 3.99902 -29.5s0.5 -16.167 0.5 -19.5c0 -4.66699 -0.333008 -8 -1 -10v1c-1.33301 -6.66699 -4.16602 -12.167 -8.49902 -16.5s-9.83301 -6.5 -16.5 -6.5c-7.33301 0 -13.5 2 -18.5 6
s-9.33301 9 -13 15s-7 12.333 -10 19s-5.83301 12.667 -8.5 18h1l-5 6v-1c-3.33301 4 -6.5 8.16699 -9.5 12.5s-4.5 9.16602 -4.5 14.499c0 6 2.33301 11 7 15s10.167 7 16.5 9s12.833 3.5 19.5 4.5s12 1.5 16 1.5z" />
    <glyph glyph-name="Aacute" unicode="&#xc1;" horiz-adv-x="395" 
d="M321 216l9.99902 -39.999c4 -16 7.66699 -32.667 11 -50s6.33301 -34 9 -50s4 -29 4 -39c0 -7.33301 -1.33301 -13.833 -4 -19.5s-6 -11.167 -10 -16.5c-12.667 1.33301 -25.334 1.66602 -38.001 0.999023s-24.667 2.33301 -36 9l-9.5 36c-3.66699 14 -7 28.5 -10 43.5
l-8.5 44c-2.66699 14.333 -4.33398 26.5 -5.00098 36.5c-7.33301 0.666992 -14.666 1.16699 -21.999 1.5s-14.666 0.5 -21.999 0.5h-18c-6 0 -12 -0.666992 -18 -2c-6 -14.667 -10.667 -30.5 -14 -47.5l-9.5 -49.5c-3 -16 -6.16699 -30.5 -9.5 -43.5s-8 -22.5 -14 -28.5
c-5.33301 0 -12.166 -0.5 -20.499 -1.5s-16.5 -1 -24.5 0s-15 3.66699 -21 8s-9 11.5 -9 21.5c0 18 2 35.5 6 52.5s9 34.167 15 51.5v-1c3.33301 8.66699 6 17.334 8 26.001l6 27l44 226c2.66699 16 6 33.833 10 53.5s8.33301 39.667 13 60s9.5 40.166 14.5 59.499
s10.167 36.666 15.5 51.999c3.33301 8.66699 7.16602 14.834 11.499 18.501s11.166 5.5 20.499 5.5c5.33301 0 10.333 -0.666992 15 -2s9.66699 -2 15 -2c6 0 10.667 0.333008 14 1c4.66699 -7.33301 8.83398 -19.5 12.501 -36.5s8.33398 -42.333 14.001 -76l21 -131
c8.33301 -53.667 19.5 -120.167 33.5 -199.5v1zM171.999 258.001c8 0 16.002 0.499023 24.002 1.49902s16 1.5 24 1.5c-1.33301 11.333 -2.5 25.333 -3.5 42s-2.33301 32.834 -4 48.501s-3.33398 29 -5.00098 40s-3.83398 16.5 -6.50098 16.5zM298.001 811
c0 -6.66699 -2.16699 -16.332 -6.5 -28.999s-9.33301 -25.334 -15 -38.001s-11 -23.834 -16 -33.501s-8.16699 -14.5 -9.5 -14.5c-9.33301 0 -18.666 1 -27.999 3s-18 5.66699 -26 11v4c0 5.33301 1.16699 13 3.5 23s5.16602 20.333 8.49902 31s6.83301 20.834 10.5 30.501
s7.16699 16.5 10.5 20.5l17.5 2c5.66699 0.666992 11.5 1 17.5 1c4 0 10.5 -0.333008 19.5 -1s13.5 -4 13.5 -10z" />
    <glyph glyph-name="Acircumflex" unicode="&#xc2;" horiz-adv-x="395" 
d="M328 216l9.99902 -39.999c4 -16 7.66699 -32.667 11 -50s6.33301 -34 9 -50s4 -29 4 -39c0 -7.33301 -1.33301 -13.833 -4 -19.5s-6 -11.167 -10 -16.5c-12.667 1.33301 -25.334 1.66602 -38.001 0.999023s-24.667 2.33301 -36 9l-9.5 36c-3.66699 14 -7 28.5 -10 43.5
l-8.5 44c-2.66699 14.333 -4.33398 26.5 -5.00098 36.5c-7.33301 0.666992 -14.666 1.16699 -21.999 1.5s-14.666 0.5 -21.999 0.5h-18c-6 0 -12 -0.666992 -18 -2c-6 -14.667 -10.667 -30.5 -14 -47.5l-9.5 -49.5c-3 -16 -6.16699 -30.5 -9.5 -43.5s-8 -22.5 -14 -28.5
c-5.33301 0 -12.166 -0.5 -20.499 -1.5s-16.5 -1 -24.5 0s-15 3.66699 -21 8s-9 11.5 -9 21.5c0 18 2 35.5 6 52.5s9 34.167 15 51.5v-1c3.33301 8.66699 6 17.334 8 26.001l6 27l44 226c2.66699 16 6 33.833 10 53.5s8.33301 39.667 13 60s9.5 40.166 14.5 59.499
s10.167 36.666 15.5 51.999c3.33301 8.66699 7.16602 14.834 11.499 18.501s11.166 5.5 20.499 5.5c5.33301 0 10.333 -0.666992 15 -2s9.66699 -2 15 -2c6 0 10.667 0.333008 14 1c4.66699 -7.33301 8.83398 -19.5 12.501 -36.5s8.33398 -42.333 14.001 -76l21 -131
c8.33301 -53.667 19.5 -120.167 33.5 -199.5v1zM178.999 258.001c8 0 16.002 0.499023 24.002 1.49902s16 1.5 24 1.5c-1.33301 11.333 -2.5 25.333 -3.5 42s-2.33301 32.834 -4 48.501s-3.33398 29 -5.00098 40s-3.83398 16.5 -6.50098 16.5zM210.001 749l-36.002 -29.498
l-22 -18c-5.33301 -4.33301 -9.5 -7.33301 -12.5 -9s-5.83301 -2.5 -8.5 -2.5s-6 1.5 -10 4.5s-8 6.5 -12 10.5s-7.83301 8.16699 -11.5 12.5s-6.5 7.5 -8.5 9.5h1l-6 8c-2 2.66699 -3 5.66699 -3 9c0 4.66699 4.5 12.334 13.5 23.001s19.333 21.5 31 32.5s23 21 34 30
s18.5 14.833 22.5 17.5c3.33301 2.66699 7.5 5.66699 12.5 9s10.167 5 15.5 5c2.66699 0 8.66699 -3.83301 18 -11.5s19.666 -16.667 30.999 -27l34.5 -31.5c11.667 -10.667 21.834 -19 30.501 -25l-1 1c4.66699 -2.66699 8.83398 -6.33398 12.501 -11.001
s5.5 -9.66699 5.5 -15c0 -2.66699 -2.33301 -6.83398 -7 -12.501s-10.167 -11.334 -16.5 -17.001s-12.666 -10.667 -18.999 -15s-11.5 -6.5 -15.5 -6.5c-6 0 -10.333 2 -13 6l2 -1c-3.33301 2 -8.33301 5.83301 -15 11.5l-21 18.5z" />
    <glyph glyph-name="Atilde" unicode="&#xc3;" horiz-adv-x="398" 
d="M326 216l9.99902 -39.999c4 -16 7.66699 -32.667 11 -50s6.33301 -34 9 -50s4 -29 4 -39c0 -7.33301 -1.33301 -13.833 -4 -19.5s-6 -11.167 -10 -16.5c-12.667 1.33301 -25.334 1.66602 -38.001 0.999023s-24.667 2.33301 -36 9l-9.5 36c-3.66699 14 -7 28.5 -10 43.5
l-8.5 44c-2.66699 14.333 -4.33398 26.5 -5.00098 36.5c-7.33301 0.666992 -14.666 1.16699 -21.999 1.5s-14.666 0.5 -21.999 0.5h-18c-6 0 -12 -0.666992 -18 -2c-6 -14.667 -10.667 -30.5 -14 -47.5l-9.5 -49.5c-3 -16 -6.16699 -30.5 -9.5 -43.5s-8 -22.5 -14 -28.5
c-5.33301 0 -12.166 -0.5 -20.499 -1.5s-16.5 -1 -24.5 0s-15 3.66699 -21 8s-9 11.5 -9 21.5c0 18 2 35.5 6 52.5s9 34.167 15 51.5v-1c3.33301 8.66699 6 17.334 8 26.001l6 27l44 226c2.66699 16 6 33.833 10 53.5s8.33301 39.667 13 60s9.5 40.166 14.5 59.499
s10.167 36.666 15.5 51.999c3.33301 8.66699 7.16602 14.834 11.499 18.501s11.166 5.5 20.499 5.5c5.33301 0 10.333 -0.666992 15 -2s9.66699 -2 15 -2c6 0 10.667 0.333008 14 1c4.66699 -7.33301 8.83398 -19.5 12.501 -36.5s8.33398 -42.333 14.001 -76l21 -131
c8.33301 -53.667 19.5 -120.167 33.5 -199.5v1zM176.999 258.001c8 0 16.002 0.499023 24.002 1.49902s16 1.5 24 1.5c-1.33301 11.333 -2.5 25.333 -3.5 42s-2.33301 32.834 -4 48.501s-3.33398 29 -5.00098 40s-3.83398 16.5 -6.50098 16.5zM351.001 765
c0 -7.33301 -3.00195 -13.998 -9.00195 -19.998s-13.167 -11.333 -21.5 -16s-16.833 -8.33398 -25.5 -11.001s-16 -4 -22 -4c-16 0 -31.167 3.16699 -45.5 9.5s-28.166 14.166 -41.499 23.499l1 -1c-2.66699 1.33301 -5.16699 2.33301 -7.5 3s-5.16602 1 -8.49902 1
c-8 0 -14.167 -1.16699 -18.5 -3.5s-7.83301 -4.83301 -10.5 -7.5s-5.33398 -5.16699 -8.00098 -7.5s-6.66699 -3.5 -12 -3.5c-4.66699 0 -9.16699 1.5 -13.5 4.5s-8.33301 6.83301 -12 11.5s-6.5 9.5 -8.5 14.5s-3 9.5 -3 13.5c0 7.33301 2.66699 14.333 8 21
s12 12.667 20 18s16.333 9.5 25 12.5s16.334 4.5 23.001 4.5c10.667 0 21 -1.83301 31 -5.5s19.167 -7.66699 27.5 -12l24 -12c7.66699 -3.66699 14.834 -5.5 21.501 -5.5c5.33301 0 10 1.33301 14 4s7.66699 5.66699 11 9s6.66602 6.33301 9.99902 9s7 4 11 4
s8.33301 -2.16699 13 -6.5s9 -9.5 13 -15.5s7.33301 -12 10 -18s4 -10.667 4 -14z" />
    <glyph glyph-name="Adieresis" unicode="&#xc4;" horiz-adv-x="395" 
d="M333 216l9.99902 -39.999c4 -16 7.66699 -32.667 11 -50s6.33301 -34 9 -50s4 -29 4 -39c0 -7.33301 -1.33301 -13.833 -4 -19.5s-6 -11.167 -10 -16.5c-12.667 1.33301 -25.334 1.66602 -38.001 0.999023s-24.667 2.33301 -36 9l-9.5 36c-3.66699 14 -7 28.5 -10 43.5
l-8.5 44c-2.66699 14.333 -4.33398 26.5 -5.00098 36.5c-7.33301 0.666992 -14.666 1.16699 -21.999 1.5s-14.666 0.5 -21.999 0.5h-18c-6 0 -12 -0.666992 -18 -2c-6 -14.667 -10.667 -30.5 -14 -47.5l-9.5 -49.5c-3 -16 -6.16699 -30.5 -9.5 -43.5s-8 -22.5 -14 -28.5
c-5.33301 0 -12.166 -0.5 -20.499 -1.5s-16.5 -1 -24.5 0s-15 3.66699 -21 8s-9 11.5 -9 21.5c0 18 2 35.5 6 52.5s9 34.167 15 51.5v-1c3.33301 8.66699 6 17.334 8 26.001l6 27l44 226c2.66699 16 6 33.833 10 53.5s8.33301 39.667 13 60s9.5 40.166 14.5 59.499
s10.167 36.666 15.5 51.999c3.33301 8.66699 7.16602 14.834 11.499 18.501s11.166 5.5 20.499 5.5c5.33301 0 10.333 -0.666992 15 -2s9.66699 -2 15 -2c6 0 10.667 0.333008 14 1c4.66699 -7.33301 8.83398 -19.5 12.501 -36.5s8.33398 -42.333 14.001 -76l21 -131
c8.33301 -53.667 19.5 -120.167 33.5 -199.5v1zM183.999 258.001c8 0 16.002 0.499023 24.002 1.49902s16 1.5 24 1.5c-1.33301 11.333 -2.5 25.333 -3.5 42s-2.33301 32.834 -4 48.501s-3.33398 29 -5.00098 40s-3.83398 16.5 -6.50098 16.5zM265.001 715
c-11.333 0 -21.168 3.33398 -29.501 10.001s-12.5 15.667 -12.5 27s4.33301 20.666 13 27.999s18.334 11 29.001 11c11.333 0 21 -4.33301 29 -13s12 -18 12 -28c0 -11.333 -4.33301 -20 -13 -26s-18 -9 -28 -9zM156.999 790.001c4 2 8.00098 2.99902 12.001 2.99902
c9.33301 0 17.666 -3.16699 24.999 -9.5s11 -14.166 11 -23.499c0 -14 -4.16699 -25.333 -12.5 -34s-19.5 -13 -33.5 -13c-21.333 0 -32 10.667 -32 32c0 9.33301 2.83301 18.333 8.5 27s13.167 14.667 22.5 18h-1z" />
    <glyph glyph-name="Aring" unicode="&#xc5;" horiz-adv-x="395" 
d="M302 216l9.99902 -39.999c4 -16 7.66699 -32.667 11 -50s6.33301 -34 9 -50s4 -29 4 -39c0 -7.33301 -1.33301 -13.833 -4 -19.5s-6 -11.167 -10 -16.5c-12.667 1.33301 -25.334 1.66602 -38.001 0.999023s-24.667 2.33301 -36 9l-9.5 36c-3.66699 14 -7 28.5 -10 43.5
l-8.5 44c-2.66699 14.333 -4.33398 26.5 -5.00098 36.5c-7.33301 0.666992 -14.666 1.16699 -21.999 1.5s-14.666 0.5 -21.999 0.5h-18c-6 0 -12 -0.666992 -18 -2c-6 -14.667 -10.667 -30.5 -14 -47.5l-9.5 -49.5c-3 -16 -6.16699 -30.5 -9.5 -43.5s-8 -22.5 -14 -28.5
c-5.33301 0 -12.166 -0.5 -20.499 -1.5s-16.5 -1 -24.5 0s-15 3.66699 -21 8s-9 11.5 -9 21.5c0 18 2 35.5 6 52.5s9 34.167 15 51.5v-1c3.33301 8.66699 6 17.334 8 26.001l6 27l44 226c2.66699 16 6 33.833 10 53.5s8.33301 39.667 13 60s9.5 40.166 14.5 59.499
s10.167 36.666 15.5 51.999c3.33301 8.66699 7.16602 14.834 11.499 18.501s11.166 5.5 20.499 5.5c5.33301 0 10.333 -0.666992 15 -2s9.66699 -2 15 -2c6 0 10.667 0.333008 14 1c4.66699 -7.33301 8.83398 -19.5 12.501 -36.5s8.33398 -42.333 14.001 -76l21 -131
c8.33301 -53.667 19.5 -120.167 33.5 -199.5v1zM152.999 258.001c8 0 16.002 0.499023 24.002 1.49902s16 1.5 24 1.5c-1.33301 11.333 -2.5 25.333 -3.5 42s-2.33301 32.834 -4 48.501s-3.33398 29 -5.00098 40s-3.83398 16.5 -6.50098 16.5zM281.001 690
c0 -22.667 -7.33203 -44 -21.999 -64v1c-7.33301 -10.667 -16.833 -19.167 -28.5 -25.5s-23.5 -9.5 -35.5 -9.5s-23.5 2.66699 -34.5 8s-20.667 12.333 -29 21s-14.833 18.5 -19.5 29.5s-7 22.5 -7 34.5c0 3.33301 0.333008 6.5 1 9.5s1.33398 6.16699 2.00098 9.5l2 12
c3.33301 20 13.166 36 29.499 48s34.166 18 53.499 18c26 0 47.167 -9 63.5 -27s24.5 -39.667 24.5 -65zM200.002 673c8 5.33301 11.999 10.999 11.999 16.999c0 10.667 -5.33301 16 -16 16c-3.33301 0 -6.83301 -0.666992 -10.5 -2s-6.5 -4.66602 -8.5 -9.99902l-2 -22
c0.666992 -0.666992 3.33398 -1 8.00098 -1c7.33301 0 13 0.666992 17 2z" />
    <glyph glyph-name="AE" unicode="&#xc6;" horiz-adv-x="582" 
d="M381 248c-0.666992 -3.33301 -1.16602 -6.49609 -1.49902 -9.49609s-0.5 -6.16699 -0.5 -9.5c0 -4 0.166992 -8.16699 0.5 -12.5s0.5 -8.5 0.5 -12.5c0 -10 -0.333008 -20 -1 -30s-1 -20 -1 -30c0 -5.33301 -0.333008 -10.666 -1 -15.999s-0.5 -10.166 0.5 -14.499
s3.83301 -7.83301 8.5 -10.5s12 -4 22 -4c8.66699 0 17 0.166992 25 0.5s13.333 0.5 16 0.5c22 -0.666992 39.167 -0.833984 51.5 -0.500977s21.166 -1.5 26.499 -5.5s8.5 -11.5 9.5 -22.5s1.5 -27.5 1.5 -49.5c0 -8 -3.16699 -13.667 -9.5 -17s-14.166 -5.5 -23.499 -6.5
s-19.166 -1.16699 -29.499 -0.5s-19.5 1 -27.5 1h-67h-10.5c-3.66699 0 -7.16699 -0.333008 -10.5 -1h1c-3.33301 0 -6.33301 -0.166992 -9 -0.5s-5.33398 -0.5 -8.00098 -0.5c-9.33301 0 -18.833 0.333008 -28.5 1s-19.167 1 -28.5 1c-1.33301 11.333 -2.33301 23 -3 35
s-1 23.667 -1 35s0.166992 22.333 0.5 33s0.5 21.667 0.5 33c0 8 -0.333008 15.833 -1 23.5s-1 15.167 -1 22.5c-4.66699 -0.666992 -9.16699 -1.16699 -13.5 -1.5s-8.83301 -0.5 -13.5 -0.5c-9.33301 0 -18.5 0.333008 -27.5 1s-18.167 1 -27.5 1
c-2 -8.66699 -4.83301 -16.834 -8.5 -24.501s-6.83398 -16.167 -9.50098 -25.5l1 1c-2 -8.66699 -4.5 -18.667 -7.5 -30l-9.5 -34.5c-3.33301 -11.667 -7.33301 -22.667 -12 -33s-9.66699 -18.833 -15 -25.5c-13.333 -3.33301 -27.333 -6.5 -42 -9.5s-28.667 -4.5 -42 -4.5
c-5.33301 0 -10.333 1 -15 3s-7 6 -7 12c0 3.33301 1.66699 10 5 20l11 32c4 11.333 8 22 12 32s6.66699 17 8 21l22 65.5c7.33301 21 15.333 42.5 24 64.5c12.667 32.667 25.334 67.334 38.001 104.001s27.667 68.667 45 96h-1c12.667 28 24.5 55.833 35.5 83.5l33.5 84.5
c5.33301 9.33301 8.66602 17.5 9.99902 24.5s2.83301 12.667 4.5 17s4.16699 7.66602 7.5 9.99902s9.66602 3.83301 18.999 4.5c20 1.33301 40.167 2 60.5 2h59.5c12.667 0 25.334 -0.166992 38.001 -0.5s25.334 -0.833008 38.001 -1.5
c15.333 -0.666992 24.666 -7.33398 27.999 -20.001s5 -29.334 5 -50.001c0 -8.66699 -3.83301 -15 -11.5 -19s-17 -6.83301 -28 -8.5s-22.833 -2.5 -35.5 -2.5h-33h-43c-1.33301 0 -2.33301 -1.5 -3 -4.5s-1.16699 -6.5 -1.5 -10.5s-0.5 -7.83301 -0.5 -11.5v-7.5v-116v-39
c0 -12.667 0.666992 -25.667 2 -39c2.66699 -0.666992 7.16699 -1.33398 13.5 -2.00098s13.5 -1.16699 21.5 -1.5s16.167 -0.5 24.5 -0.5h23.5h16c5.33301 -8.66699 8.33301 -18.334 9 -29.001s1 -20.667 1 -30c0 -10.667 -3.83301 -18.167 -11.5 -22.5s-17.167 -7 -28.5 -8
s-23.333 -1.16699 -36 -0.5s-24 1 -34 1zM285.001 403.004c-9.33301 -23.333 -17.332 -46.4971 -23.999 -69.4971s-16.334 -44.167 -29.001 -63.5h48c0.666992 0 1 0.166992 1 0.5s0.333008 0.5 1 0.5c0 7.33301 -0.166992 14.666 -0.5 21.999s-0.5 14.666 -0.5 21.999
c0 14.667 0.333008 29.167 1 43.5s1.66699 29.166 3 44.499z" />
    <glyph glyph-name="Ccedilla" unicode="&#xc7;" horiz-adv-x="379" 
d="M265 154c4.66699 0 11.1719 -0.5 19.5049 -1.5s16.5 -2.66699 24.5 -5s14.833 -5.66602 20.5 -9.99902s8.5 -9.83301 8.5 -16.5c0 -5.33301 -1.16699 -10 -3.5 -14s-5.16602 -8 -8.49902 -12c-8 -11.333 -16.5 -22.5 -25.5 -33.5s-18.667 -21.167 -29 -30.5
s-21.833 -16.833 -34.5 -22.5s-26.334 -8.5 -41.001 -8.5c-30 0 -55.333 6 -76 18s-37.5 27.833 -50.5 47.5s-22.5 41.5 -28.5 65.5s-9 48 -9 72c0 21.333 0.333008 42.666 1 63.999s1 42.666 1 63.999c0 18.667 0.166992 39.667 0.5 63s1.83301 47 4.5 71s7 47.667 13 71
s14.667 44.333 26 63s25.666 34 42.999 46s38.666 19 63.999 21h6c16.667 0 33.667 -3.66699 51 -11s33.166 -17.166 47.499 -29.499s26.166 -26.5 35.499 -42.5s14 -33 14 -51c0 -2 -3.33301 -4.5 -10 -7.5s-14.334 -5.66699 -23.001 -8s-16.834 -4.33301 -24.501 -6
s-12.834 -2.5 -15.501 -2.5c-9.33301 0 -16 3.33301 -20 10s-7.83301 14 -11.5 22s-8.16699 15.333 -13.5 22s-13.666 10 -24.999 10c-13.333 0 -24.166 -5.16699 -32.499 -15.5s-14.833 -22.666 -19.5 -36.999s-8 -29.166 -10 -44.499s-3 -28 -3 -38
c-2 -75.333 -3 -150.333 -3 -225c0 -9.33301 0.666992 -20.666 2 -33.999s4 -26.333 8 -39s9.83301 -23.334 17.5 -32.001s18.167 -13 31.5 -13c10 0 17.5 3.16699 22.5 9.5s9.66699 13.166 14 20.499s9.33301 14.166 15 20.499s14.5 9.5 26.5 9.5zM259.005 -12
c4.66699 -5.33301 8.66895 -12 12.002 -20s5 -15 5 -21c0 -10 -3 -19.333 -9 -28l1 1c-6.66699 -10 -15.5 -18.667 -26.5 -26s-22.167 -12.666 -33.5 -15.999h1c-10.667 -3.33301 -21.5 -6.33301 -32.5 -9s-22.167 -4 -33.5 -4c-12.667 0 -20.834 2.16699 -24.501 6.5
s-6.16699 12.166 -7.5 23.499c-1.33301 6.66699 -3.16602 13 -5.49902 19s-3.5 12.333 -3.5 19c0 16.667 8.33301 25 25 25c5.33301 0 9.66602 -0.166992 12.999 -0.5s6.33301 -0.5 9 -0.5c3.33301 0 6.66602 0.5 9.99902 1.5s8.66602 3.16699 15.999 6.5
c-15.333 4.66699 -25.166 11.5 -29.499 20.5s-8.5 20.5 -12.5 34.5c13.333 3.33301 23.333 5.33301 30 6s12.667 1 18 1c4 0 8.16699 -0.166992 12.5 -0.5s10.166 -0.5 17.499 -0.5h10.5c3.66699 0 7.83398 0.333008 12.501 1c0 -7.33301 0.333008 -12.5 1 -15.5
s2 -5.5 4 -7.5s4.5 -4.16699 7.5 -6.5s7.16699 -5.83301 12.5 -10.5v1z" />
    <glyph glyph-name="Egrave" unicode="&#xc8;" horiz-adv-x="346" 
d="M249 105c3.33301 0 6.83105 0.166992 10.498 0.5s7.16699 0.5 10.5 0.5c13.333 0 22.666 -3.66699 27.999 -11s8.83301 -16.333 10.5 -27s2.16699 -22 1.5 -34s-0.666992 -22.333 0 -31c-17.333 -1.33301 -34.666 -2.33301 -51.999 -3s-34.666 -1 -51.999 -1
c-4.66699 0 -14.667 0.166992 -30 0.5s-31.666 0.833008 -48.999 1.5s-33.333 1.5 -48 2.5s-23.334 2.16699 -26.001 3.5c-4 9.33301 -7.16699 20.166 -9.5 32.499s-4 25.333 -5 39s-1.66699 27 -2 40s-0.5 24.833 -0.5 35.5c0 84.667 -0.666992 169 -2 253
s-2 168.333 -2 253c8 8 16.833 12.667 26.5 14s19.834 2 30.501 2c24 0 48 0.833008 72 2.5s47.667 2.5 71 2.5c10.667 0 21.167 -0.833008 31.5 -2.5s20.166 -5.16699 29.499 -10.5l4.5 -37.5c1.66699 -13.667 2.5 -25.167 2.5 -34.5c0 -11.333 -4.33301 -17.833 -13 -19.5
s-17.334 -2.5 -26.001 -2.5c-22 0 -44 -0.5 -66 -1.5s-43.667 -2.16699 -65 -3.5c0 -32 -1.66699 -63.833 -5 -95.5s-5 -63.5 -5 -95.5c0 -6.66699 0.333008 -11.667 1 -15c16 1.33301 32 3 48 5s32 3 48 3c6 0 12 -0.333008 18 -1s11.667 -1 17 -1
c0.666992 -3.33301 2 -8.66602 4 -15.999s3.83301 -15 5.5 -23l4.5 -22.5c1.33301 -7 2 -12.167 2 -15.5c0 -8 -5.33301 -13.667 -16 -17s-23.667 -5.5 -39 -6.5s-31.166 -1.33301 -47.499 -1s-30.166 0.166016 -41.499 -0.500977v-9c-0.666992 -12.667 0 -25.167 2 -37.5
s3 -24.833 3 -37.5c0 -12 0.166992 -24 0.5 -36s1.83301 -24 4.5 -36c19.333 -3.33301 38.5 -5.16602 57.5 -5.49902s38.167 -0.5 57.5 -0.5zM165.998 817c8.66699 0 15.333 -3.99902 20 -11.999s8.16699 -17 10.5 -27s3.66602 -19.833 3.99902 -29.5s0.5 -16.167 0.5 -19.5
c0 -4.66699 -0.333008 -8 -1 -10v1c-1.33301 -6.66699 -4.16602 -12.167 -8.49902 -16.5s-9.83301 -6.5 -16.5 -6.5c-7.33301 0 -13.5 2 -18.5 6s-9.33301 9 -13 15s-7 12.333 -10 19s-5.83301 12.667 -8.5 18h1l-5 6v-1c-3.33301 4 -6.5 8.16699 -9.5 12.5
s-4.5 9.16602 -4.5 14.499c0 6 2.33301 11 7 15s10.167 7 16.5 9s12.833 3.5 19.5 4.5s12 1.5 16 1.5z" />
    <glyph glyph-name="Eacute" unicode="&#xc9;" horiz-adv-x="346" 
d="M249 105c3.33301 0 6.83105 0.166992 10.498 0.5s7.16699 0.5 10.5 0.5c13.333 0 22.666 -3.66699 27.999 -11s8.83301 -16.333 10.5 -27s2.16699 -22 1.5 -34s-0.666992 -22.333 0 -31c-17.333 -1.33301 -34.666 -2.33301 -51.999 -3s-34.666 -1 -51.999 -1
c-4.66699 0 -14.667 0.166992 -30 0.5s-31.666 0.833008 -48.999 1.5s-33.333 1.5 -48 2.5s-23.334 2.16699 -26.001 3.5c-4 9.33301 -7.16699 20.166 -9.5 32.499s-4 25.333 -5 39s-1.66699 27 -2 40s-0.5 24.833 -0.5 35.5c0 84.667 -0.666992 169 -2 253
s-2 168.333 -2 253c8 8 16.833 12.667 26.5 14s19.834 2 30.501 2c24 0 48 0.833008 72 2.5s47.667 2.5 71 2.5c10.667 0 21.167 -0.833008 31.5 -2.5s20.166 -5.16699 29.499 -10.5l4.5 -37.5c1.66699 -13.667 2.5 -25.167 2.5 -34.5c0 -11.333 -4.33301 -17.833 -13 -19.5
s-17.334 -2.5 -26.001 -2.5c-22 0 -44 -0.5 -66 -1.5s-43.667 -2.16699 -65 -3.5c0 -32 -1.66699 -63.833 -5 -95.5s-5 -63.5 -5 -95.5c0 -6.66699 0.333008 -11.667 1 -15c16 1.33301 32 3 48 5s32 3 48 3c6 0 12 -0.333008 18 -1s11.667 -1 17 -1
c0.666992 -3.33301 2 -8.66602 4 -15.999s3.83301 -15 5.5 -23l4.5 -22.5c1.33301 -7 2 -12.167 2 -15.5c0 -8 -5.33301 -13.667 -16 -17s-23.667 -5.5 -39 -6.5s-31.166 -1.33301 -47.499 -1s-30.166 0.166016 -41.499 -0.500977v-9c-0.666992 -12.667 0 -25.167 2 -37.5
s3 -24.833 3 -37.5c0 -12 0.166992 -24 0.5 -36s1.83301 -24 4.5 -36c19.333 -3.33301 38.5 -5.16602 57.5 -5.49902s38.167 -0.5 57.5 -0.5zM229.998 824c0 -6.66699 -2.16699 -16.332 -6.5 -28.999s-9.33301 -25.334 -15 -38.001s-11 -23.834 -16 -33.501
s-8.16699 -14.5 -9.5 -14.5c-9.33301 0 -18.666 1 -27.999 3s-18 5.66699 -26 11v4c0 5.33301 1.16699 13 3.5 23s5.16602 20.333 8.49902 31s6.83301 20.834 10.5 30.501s7.16699 16.5 10.5 20.5l17.5 2c5.66699 0.666992 11.5 1 17.5 1c4 0 10.5 -0.333008 19.5 -1
s13.5 -4 13.5 -10z" />
    <glyph glyph-name="Ecircumflex" unicode="&#xca;" horiz-adv-x="346" 
d="M249 105c3.33301 0 6.83105 0.166992 10.498 0.5s7.16699 0.5 10.5 0.5c13.333 0 22.666 -3.66699 27.999 -11s8.83301 -16.333 10.5 -27s2.16699 -22 1.5 -34s-0.666992 -22.333 0 -31c-17.333 -1.33301 -34.666 -2.33301 -51.999 -3s-34.666 -1 -51.999 -1
c-4.66699 0 -14.667 0.166992 -30 0.5s-31.666 0.833008 -48.999 1.5s-33.333 1.5 -48 2.5s-23.334 2.16699 -26.001 3.5c-4 9.33301 -7.16699 20.166 -9.5 32.499s-4 25.333 -5 39s-1.66699 27 -2 40s-0.5 24.833 -0.5 35.5c0 84.667 -0.666992 169 -2 253
s-2 168.333 -2 253c8 8 16.833 12.667 26.5 14s19.834 2 30.501 2c24 0 48 0.833008 72 2.5s47.667 2.5 71 2.5c10.667 0 21.167 -0.833008 31.5 -2.5s20.166 -5.16699 29.499 -10.5l4.5 -37.5c1.66699 -13.667 2.5 -25.167 2.5 -34.5c0 -11.333 -4.33301 -17.833 -13 -19.5
s-17.334 -2.5 -26.001 -2.5c-22 0 -44 -0.5 -66 -1.5s-43.667 -2.16699 -65 -3.5c0 -32 -1.66699 -63.833 -5 -95.5s-5 -63.5 -5 -95.5c0 -6.66699 0.333008 -11.667 1 -15c16 1.33301 32 3 48 5s32 3 48 3c6 0 12 -0.333008 18 -1s11.667 -1 17 -1
c0.666992 -3.33301 2 -8.66602 4 -15.999s3.83301 -15 5.5 -23l4.5 -22.5c1.33301 -7 2 -12.167 2 -15.5c0 -8 -5.33301 -13.667 -16 -17s-23.667 -5.5 -39 -6.5s-31.166 -1.33301 -47.499 -1s-30.166 0.166016 -41.499 -0.500977v-9c-0.666992 -12.667 0 -25.167 2 -37.5
s3 -24.833 3 -37.5c0 -12 0.166992 -24 0.5 -36s1.83301 -24 4.5 -36c19.333 -3.33301 38.5 -5.16602 57.5 -5.49902s38.167 -0.5 57.5 -0.5zM167.998 772l-36.002 -29.498l-22 -18c-5.33301 -4.33301 -9.5 -7.33301 -12.5 -9s-5.83301 -2.5 -8.5 -2.5s-6 1.5 -10 4.5
s-8 6.5 -12 10.5s-7.83301 8.16699 -11.5 12.5s-6.5 7.5 -8.5 9.5h1l-6 8c-2 2.66699 -3 5.66699 -3 9c0 4.66699 4.5 12.334 13.5 23.001s19.333 21.5 31 32.5s23 21 34 30s18.5 14.833 22.5 17.5c3.33301 2.66699 7.5 5.66699 12.5 9s10.167 5 15.5 5
c2.66699 0 8.66699 -3.83301 18 -11.5s19.666 -16.667 30.999 -27l34.5 -31.5c11.667 -10.667 21.834 -19 30.501 -25l-1 1c4.66699 -2.66699 8.83398 -6.33398 12.501 -11.001s5.5 -9.66699 5.5 -15c0 -2.66699 -2.33301 -6.83398 -7 -12.501
s-10.167 -11.334 -16.5 -17.001s-12.666 -10.667 -18.999 -15s-11.5 -6.5 -15.5 -6.5c-6 0 -10.333 2 -13 6l2 -1c-3.33301 2 -8.33301 5.83301 -15 11.5l-21 18.5z" />
    <glyph glyph-name="Edieresis" unicode="&#xcb;" horiz-adv-x="346" 
d="M249 105c3.33301 0 6.83105 0.166992 10.498 0.5s7.16699 0.5 10.5 0.5c13.333 0 22.666 -3.66699 27.999 -11s8.83301 -16.333 10.5 -27s2.16699 -22 1.5 -34s-0.666992 -22.333 0 -31c-17.333 -1.33301 -34.666 -2.33301 -51.999 -3s-34.666 -1 -51.999 -1
c-4.66699 0 -14.667 0.166992 -30 0.5s-31.666 0.833008 -48.999 1.5s-33.333 1.5 -48 2.5s-23.334 2.16699 -26.001 3.5c-4 9.33301 -7.16699 20.166 -9.5 32.499s-4 25.333 -5 39s-1.66699 27 -2 40s-0.5 24.833 -0.5 35.5c0 84.667 -0.666992 169 -2 253
s-2 168.333 -2 253c8 8 16.833 12.667 26.5 14s19.834 2 30.501 2c24 0 48 0.833008 72 2.5s47.667 2.5 71 2.5c10.667 0 21.167 -0.833008 31.5 -2.5s20.166 -5.16699 29.499 -10.5l4.5 -37.5c1.66699 -13.667 2.5 -25.167 2.5 -34.5c0 -11.333 -4.33301 -17.833 -13 -19.5
s-17.334 -2.5 -26.001 -2.5c-22 0 -44 -0.5 -66 -1.5s-43.667 -2.16699 -65 -3.5c0 -32 -1.66699 -63.833 -5 -95.5s-5 -63.5 -5 -95.5c0 -6.66699 0.333008 -11.667 1 -15c16 1.33301 32 3 48 5s32 3 48 3c6 0 12 -0.333008 18 -1s11.667 -1 17 -1
c0.666992 -3.33301 2 -8.66602 4 -15.999s3.83301 -15 5.5 -23l4.5 -22.5c1.33301 -7 2 -12.167 2 -15.5c0 -8 -5.33301 -13.667 -16 -17s-23.667 -5.5 -39 -6.5s-31.166 -1.33301 -47.499 -1s-30.166 0.166016 -41.499 -0.500977v-9c-0.666992 -12.667 0 -25.167 2 -37.5
s3 -24.833 3 -37.5c0 -12 0.166992 -24 0.5 -36s1.83301 -24 4.5 -36c19.333 -3.33301 38.5 -5.16602 57.5 -5.49902s38.167 -0.5 57.5 -0.5zM214.998 730c-11.333 0 -21.168 3.33398 -29.501 10.001s-12.5 15.667 -12.5 27s4.33301 20.666 13 27.999s18.334 11 29.001 11
c11.333 0 21 -4.33301 29 -13s12 -18 12 -28c0 -11.333 -4.33301 -20 -13 -26s-18 -9 -28 -9zM106.996 805.001c4 2 8.00098 2.99902 12.001 2.99902c9.33301 0 17.666 -3.16699 24.999 -9.5s11 -14.166 11 -23.499c0 -14 -4.16699 -25.333 -12.5 -34s-19.5 -13 -33.5 -13
c-21.333 0 -32 10.667 -32 32c0 9.33301 2.83301 18.333 8.5 27s13.167 14.667 22.5 18h-1z" />
    <glyph glyph-name="Igrave" unicode="&#xcc;" horiz-adv-x="188" 
d="M139 632c0 -15.333 -0.833008 -30.6709 -2.5 -46.0039s-2.5 -30.666 -2.5 -45.999v-59c0 -26.667 -1.16699 -53 -3.5 -79s-3.5 -52.333 -3.5 -79c0 -22.667 0.666992 -45 2 -67s2 -44.333 2 -67c0 -10.667 -0.333008 -21.334 -1 -32.001s-1 -21.667 -1 -33
s0.333008 -22.666 1 -33.999s1 -22.666 1 -33.999c0 -6 -0.166992 -12 -0.5 -18s-1.5 -12.333 -3.5 -19c-10 -7.33301 -22.5 -11.833 -37.5 -13.5s-28.5 -2.83398 -40.5 -3.50098c-7.33301 6.66699 -12.5 14.334 -15.5 23.001s-4.5 17.667 -4.5 27
c0 44 1.66699 87.333 5 130s5 86 5 130c0 50.667 -1.5 101.334 -4.5 152.001s-4.5 101 -4.5 151c0 20.667 4.66699 33.334 14 38.001s21.333 7 36 7h21.5c7 0 13.333 -0.666992 19 -2s10.167 -4 13.5 -8s5 -10 5 -18zM88 809.995c8.66699 0 15.333 -3.99902 20 -11.999
s8.16699 -17 10.5 -27s3.66602 -19.833 3.99902 -29.5s0.5 -16.167 0.5 -19.5c0 -4.66699 -0.333008 -8 -1 -10v1c-1.33301 -6.66699 -4.16602 -12.167 -8.49902 -16.5s-9.83301 -6.5 -16.5 -6.5c-7.33301 0 -13.5 2 -18.5 6s-9.33301 9 -13 15s-7 12.333 -10 19
s-5.83301 12.667 -8.5 18h1l-5 6v-1c-3.33301 4 -6.5 8.16699 -9.5 12.5s-4.5 9.16602 -4.5 14.499c0 6 2.33301 11 7 15s10.167 7 16.5 9s12.833 3.5 19.5 4.5s12 1.5 16 1.5z" />
    <glyph glyph-name="Iacute" unicode="&#xcd;" horiz-adv-x="180" 
d="M132 632c0 -15.333 -0.833008 -30.6709 -2.5 -46.0039s-2.5 -30.666 -2.5 -45.999v-59c0 -26.667 -1.16699 -53 -3.5 -79s-3.5 -52.333 -3.5 -79c0 -22.667 0.666992 -45 2 -67s2 -44.333 2 -67c0 -10.667 -0.333008 -21.334 -1 -32.001s-1 -21.667 -1 -33
s0.333008 -22.666 1 -33.999s1 -22.666 1 -33.999c0 -6 -0.166992 -12 -0.5 -18s-1.5 -12.333 -3.5 -19c-10 -7.33301 -22.5 -11.833 -37.5 -13.5s-28.5 -2.83398 -40.5 -3.50098c-7.33301 6.66699 -12.5 14.334 -15.5 23.001s-4.5 17.667 -4.5 27
c0 44 1.66699 87.333 5 130s5 86 5 130c0 50.667 -1.5 101.334 -4.5 152.001s-4.5 101 -4.5 151c0 20.667 4.66699 33.334 14 38.001s21.333 7 36 7h21.5c7 0 13.333 -0.666992 19 -2s10.167 -4 13.5 -8s5 -10 5 -18zM163 807.995c0 -6.66699 -2.16699 -16.332 -6.5 -28.999
s-9.33301 -25.334 -15 -38.001s-11 -23.834 -16 -33.501s-8.16699 -14.5 -9.5 -14.5c-9.33301 0 -18.666 1 -27.999 3s-18 5.66699 -26 11v4c0 5.33301 1.16699 13 3.5 23s5.16602 20.333 8.49902 31s6.83301 20.834 10.5 30.501s7.16699 16.5 10.5 20.5l17.5 2
c5.66699 0.666992 11.5 1 17.5 1c4 0 10.5 -0.333008 19.5 -1s13.5 -4 13.5 -10z" />
    <glyph glyph-name="Icircumflex" unicode="&#xce;" horiz-adv-x="241" 
d="M259 632c0 -15.333 -0.833008 -30.6709 -2.5 -46.0039s-2.5 -30.666 -2.5 -45.999v-59c0 -26.667 -1.16699 -53 -3.5 -79s-3.5 -52.333 -3.5 -79c0 -22.667 0.666992 -45 2 -67s2 -44.333 2 -67c0 -10.667 -0.333008 -21.334 -1 -32.001s-1 -21.667 -1 -33
s0.333008 -22.666 1 -33.999s1 -22.666 1 -33.999c0 -6 -0.166992 -12 -0.5 -18s-1.5 -12.333 -3.5 -19c-10 -7.33301 -22.5 -11.833 -37.5 -13.5s-28.5 -2.83398 -40.5 -3.50098c-7.33301 6.66699 -12.5 14.334 -15.5 23.001s-4.5 17.667 -4.5 27
c0 44 1.66699 87.333 5 130s5 86 5 130c0 50.667 -1.5 101.334 -4.5 152.001s-4.5 101 -4.5 151c0 20.667 4.66699 33.334 14 38.001s21.333 7 36 7h21.5c7 0 13.333 -0.666992 19 -2s10.167 -4 13.5 -8s5 -10 5 -18zM211 725.995l-36.002 -29.498l-22 -18
c-5.33301 -4.33301 -9.5 -7.33301 -12.5 -9s-5.83301 -2.5 -8.5 -2.5s-6 1.5 -10 4.5s-8 6.5 -12 10.5s-7.83301 8.16699 -11.5 12.5s-6.5 7.5 -8.5 9.5h1l-6 8c-2 2.66699 -3 5.66699 -3 9c0 4.66699 4.5 12.334 13.5 23.001s19.333 21.5 31 32.5s23 21 34 30
s18.5 14.833 22.5 17.5c3.33301 2.66699 7.5 5.66699 12.5 9s10.167 5 15.5 5c2.66699 0 8.66699 -3.83301 18 -11.5s19.666 -16.667 30.999 -27l34.5 -31.5c11.667 -10.667 21.834 -19 30.501 -25l-1 1c4.66699 -2.66699 8.83398 -6.33398 12.501 -11.001
s5.5 -9.66699 5.5 -15c0 -2.66699 -2.33301 -6.83398 -7 -12.501s-10.167 -11.334 -16.5 -17.001s-12.666 -10.667 -18.999 -15s-11.5 -6.5 -15.5 -6.5c-6 0 -10.333 2 -13 6l2 -1c-3.33301 2 -8.33301 5.83301 -15 11.5l-21 18.5z" />
    <glyph glyph-name="Idieresis" unicode="&#xcf;" horiz-adv-x="227" 
d="M183 632c0 -15.333 -0.833008 -30.6709 -2.5 -46.0039s-2.5 -30.666 -2.5 -45.999v-59c0 -26.667 -1.16699 -53 -3.5 -79s-3.5 -52.333 -3.5 -79c0 -22.667 0.666992 -45 2 -67s2 -44.333 2 -67c0 -10.667 -0.333008 -21.334 -1 -32.001s-1 -21.667 -1 -33
s0.333008 -22.666 1 -33.999s1 -22.666 1 -33.999c0 -6 -0.166992 -12 -0.5 -18s-1.5 -12.333 -3.5 -19c-10 -7.33301 -22.5 -11.833 -37.5 -13.5s-28.5 -2.83398 -40.5 -3.50098c-7.33301 6.66699 -12.5 14.334 -15.5 23.001s-4.5 17.667 -4.5 27
c0 44 1.66699 87.333 5 130s5 86 5 130c0 50.667 -1.5 101.334 -4.5 152.001s-4.5 101 -4.5 151c0 20.667 4.66699 33.334 14 38.001s21.333 7 36 7h21.5c7 0 13.333 -0.666992 19 -2s10.167 -4 13.5 -8s5 -10 5 -18zM178 688.995c-11.333 0 -21.168 3.33398 -29.501 10.001
s-12.5 15.667 -12.5 27s4.33301 20.666 13 27.999s18.334 11 29.001 11c11.333 0 21 -4.33301 29 -13s12 -18 12 -28c0 -11.333 -4.33301 -20 -13 -26s-18 -9 -28 -9zM69.998 763.996c4 2 8.00098 2.99902 12.001 2.99902c9.33301 0 17.666 -3.16699 24.999 -9.5
s11 -14.166 11 -23.499c0 -14 -4.16699 -25.333 -12.5 -34s-19.5 -13 -33.5 -13c-21.333 0 -32 10.667 -32 32c0 9.33301 2.83301 18.333 8.5 27s13.167 14.667 22.5 18h-1z" />
    <glyph glyph-name="Eth" unicode="&#xd0;" horiz-adv-x="383" 
d="M41 196c0 17.333 0.332031 34.5049 0.999023 51.5049s1 34.167 1 51.5c0 10.667 -0.333008 21.167 -1 31.5s-1 21.166 -1 32.499c0 22.667 0.5 45.167 1.5 67.5s1.5 45.166 1.5 68.499v14v53c0 17.333 0.5 35 1.5 53s3.16699 33.333 6.5 46
c9.33301 4 18.833 6.66699 28.5 8s19.167 2 28.5 2h15c14 0 29.833 -0.5 47.5 -1.5s35 -3.5 52 -7.5s33 -9.66699 48 -17s26.833 -17 35.5 -29c7.33301 -10.667 13 -23 17 -37s6.83301 -28.333 8.5 -43s2.66699 -29.334 3 -44.001s0.5 -28.334 0.5 -41.001
c0 -20 -0.666992 -39.833 -2 -59.5s-2 -39.5 -2 -59.5c0 -15.333 0.166992 -30.5 0.5 -45.5s0.5 -30.167 0.5 -45.5v-30.5c0 -12.333 -0.333008 -25 -1 -38s-1.5 -25.333 -2.5 -37s-2.5 -20.834 -4.5 -27.501c-8 -26 -20.333 -46.5 -37 -61.5s-35.667 -26.167 -57 -33.5
s-44.166 -12 -68.499 -14s-48.833 -3 -73.5 -3c-13.333 -0 -23.5 1.33301 -30.5 4s-12 6.66699 -15 12s-4.5 11.833 -4.5 19.5v25.5c0 22.667 0.333008 45.167 1 67.5s1 44.833 1 67.5zM131.999 364.005c0 -22 0.50293 -43.999 1.50293 -65.999s1.5 -43.667 1.5 -65
c0 -23.333 -0.666992 -46.833 -2 -70.5s-2 -47.5 -2 -71.5h5c11.333 0 22.666 1.16699 33.999 3.5s22.666 4.83301 33.999 7.5s19.666 10.5 24.999 23.5s9 28.167 11 45.5s3 35.666 3 54.999v51c0.666992 30 1.66699 59.833 3 89.5s2 59.5 2 89.5
c0 16 -0.333008 31.167 -1 45.5s-3.33398 27 -8.00098 38s-12.167 19.667 -22.5 26s-25.5 9.5 -45.5 9.5h-15c-4.66699 0 -9.66699 -0.333008 -15 -1c-1.33301 -35.333 -3.16602 -70.5 -5.49902 -105.5s-3.5 -69.833 -3.5 -104.5zM195.002 395.006
c-3.33301 1.33301 -10.333 2.33203 -21 2.99902s-22.667 1 -36 1c-16.667 0 -32.834 -0.166992 -48.501 -0.5s-25.834 -0.5 -30.501 -0.5c-6.66699 0 -13 0.333008 -19 1s-12.667 1 -20 1c-5.33301 0 -9 -2.16699 -11 -6.5s-3 -10.166 -3 -17.499v-51
c0 -8 0.833008 -13.5 2.5 -16.5s4.83398 -6.16699 9.50098 -9.5h-2c4 -1.33301 6.33301 -2 7 -2c3.33301 0 7 0.5 11 1.5s8 1.5 12 1.5c4.66699 0 14.5 -0.5 29.5 -1.5l46.5 -3c16 -1 30.333 -2.16699 43 -3.5s19.334 -2.33301 20.001 -3c3.33301 -0.666992 8 -1 14 -1
c8 0 12 6 12 18v36c0 11.333 -0.833008 23 -2.5 35s-6.16699 18 -13.5 18h-2h2z" />
    </font>
</defs>
</svg>
